<?xml version="1.0" encoding="UTF-8" standalone="no"?><svg xmlns="http://www.w3.org/2000/svg" xmlns:xlink="http://www.w3.org/1999/xlink" contentScriptType="application/ecmascript" contentStyleType="text/css" height="779px" preserveAspectRatio="none" style="width:2696px;height:779px;background:#FFFFFF;" version="1.1" viewBox="0 0 2696 779" width="2696px" zoomAndPan="magnify"><defs><filter height="300%" id="fup66nufp7t3e" width="300%" x="-1" y="-1"><feGaussianBlur result="blurOut" stdDeviation="2.0"/><feColorMatrix in="blurOut" result="blurOut2" type="matrix" values="0 0 0 0 0 0 0 0 0 0 0 0 0 0 0 0 0 0 .4 0"/><feOffset dx="4.0" dy="4.0" in="blurOut2" result="blurOut3"/><feBlend in="SourceGraphic" in2="blurOut3" mode="normal"/></filter></defs><g><rect fill="#ADD8E6" height="767.2813" style="stroke:#A80036;stroke-width:1.0;" width="426" x="229.5" y="6"/><text fill="#000000" font-family="sans-serif" font-size="13" font-weight="bold" lengthAdjust="spacing" textLength="94" x="395.5" y="18.0669">ServerAdmin</text><rect fill="#DDDDDD" height="767.2813" style="stroke:#A80036;stroke-width:1.0;" width="116" x="811" y="6"/><text fill="#000000" font-family="sans-serif" font-size="13" font-weight="bold" lengthAdjust="spacing" textLength="94" x="822" y="18.0669">GrpcChannel</text><rect fill="#FFC0CB" height="767.2813" style="stroke:#A80036;stroke-width:1.0;" width="670.5" x="1085" y="6"/><text fill="#000000" font-family="sans-serif" font-size="13" font-weight="bold" lengthAdjust="spacing" textLength="47" x="1396.75" y="18.0669">Server</text><rect fill="#DDDDDD" height="767.2813" style="stroke:#A80036;stroke-width:1.0;" width="131" x="1800" y="6"/><text fill="#000000" font-family="sans-serif" font-size="13" font-weight="bold" lengthAdjust="spacing" textLength="125" x="1803" y="18.0669">RabbitMQ Queue</text><rect fill="#FFA500" height="767.2813" style="stroke:#A80036;stroke-width:1.0;" width="630.5" x="2060" y="6"/><text fill="#000000" font-family="sans-serif" font-size="13" font-weight="bold" lengthAdjust="spacing" textLength="82" x="2334.25" y="18.0669">ServerLogs</text><rect fill="#FFFFFF" filter="url(#fup66nufp7t3e)" height="423.7578" style="stroke:#A80036;stroke-width:1.0;" width="10" x="287" y="91.5625"/><rect fill="#FFFFFF" filter="url(#fup66nufp7t3e)" height="365.4922" style="stroke:#A80036;stroke-width:1.0;" width="10" x="605" y="120.6953"/><rect fill="#FFFFFF" filter="url(#fup66nufp7t3e)" height="307.2266" style="stroke:#A80036;stroke-width:1.0;" width="10" x="864" y="149.8281"/><rect fill="#FFFFFF" filter="url(#fup66nufp7t3e)" height="248.9609" style="stroke:#A80036;stroke-width:1.0;" width="10" x="1134" y="178.9609"/><rect fill="#FFFFFF" filter="url(#fup66nufp7t3e)" height="20.1641" style="stroke:#A80036;stroke-width:1.0;" width="10" x="1463" y="247.2266"/><rect fill="#FFFFFF" filter="url(#fup66nufp7t3e)" height="14" style="stroke:#A80036;stroke-width:1.0;" width="10" x="1594.5" y="296.5234"/><rect fill="#FFFFFF" filter="url(#fup66nufp7t3e)" height="59.1328" style="stroke:#A80036;stroke-width:1.0;" width="10" x="1707" y="339.6563"/><rect fill="#FFFFFF" filter="url(#fup66nufp7t3e)" height="175.6641" style="stroke:#A80036;stroke-width:1.0;" width="10" x="1860.5" y="368.7891"/><rect fill="#FFFFFF" filter="url(#fup66nufp7t3e)" height="172.5313" style="stroke:#A80036;stroke-width:1.0;" width="10" x="2092" y="544.4531"/><rect fill="#FFFFFF" filter="url(#fup66nufp7t3e)" height="143.3984" style="stroke:#A80036;stroke-width:1.0;" width="10" x="2277" y="573.5859"/><rect fill="#FFFFFF" filter="url(#fup66nufp7t3e)" height="14" style="stroke:#A80036;stroke-width:1.0;" width="10" x="2511" y="645.8516"/><rect fill="#FFFFFF" filter="url(#fup66nufp7t3e)" height="14" style="stroke:#A80036;stroke-width:1.0;" width="10" x="2583.5" y="602.7188"/><rect fill="#FFFFFF" filter="url(#fup66nufp7t3e)" height="14" style="stroke:#A80036;stroke-width:1.0;" width="10" x="2652" y="688.9844"/><line style="stroke:#A80036;stroke-width:1.0;stroke-dasharray:5.0,5.0;" x1="49" x2="49" y1="60.4297" y2="734.9844"/><line style="stroke:#A80036;stroke-width:1.0;stroke-dasharray:5.0,5.0;" x1="291.5" x2="291.5" y1="60.4297" y2="734.9844"/><line style="stroke:#A80036;stroke-width:1.0;stroke-dasharray:5.0,5.0;" x1="609.5" x2="609.5" y1="60.4297" y2="734.9844"/><line style="stroke:#A80036;stroke-width:1.0;stroke-dasharray:5.0,5.0;" x1="869" x2="869" y1="60.4297" y2="734.9844"/><line style="stroke:#A80036;stroke-width:1.0;stroke-dasharray:5.0,5.0;" x1="1139" x2="1139" y1="60.4297" y2="734.9844"/><line style="stroke:#A80036;stroke-width:1.0;stroke-dasharray:5.0,5.0;" x1="1467.5" x2="1467.5" y1="60.4297" y2="734.9844"/><line style="stroke:#A80036;stroke-width:1.0;stroke-dasharray:5.0,5.0;" x1="1599.5" x2="1599.5" y1="248.7422" y2="734.9844"/><line style="stroke:#A80036;stroke-width:1.0;stroke-dasharray:5.0,5.0;" x1="1711.5" x2="1711.5" y1="60.4297" y2="734.9844"/><line style="stroke:#A80036;stroke-width:1.0;stroke-dasharray:5.0,5.0;" x1="1865.5" x2="1865.5" y1="60.4297" y2="734.9844"/><line style="stroke:#A80036;stroke-width:1.0;stroke-dasharray:5.0,5.0;" x1="2097" x2="2097" y1="60.4297" y2="734.9844"/><line style="stroke:#A80036;stroke-width:1.0;stroke-dasharray:5.0,5.0;" x1="2281.5" x2="2281.5" y1="60.4297" y2="734.9844"/><line style="stroke:#A80036;stroke-width:1.0;stroke-dasharray:5.0,5.0;" x1="2515.5" x2="2515.5" y1="60.4297" y2="734.9844"/><line style="stroke:#A80036;stroke-width:1.0;stroke-dasharray:5.0,5.0;" x1="2588.5" x2="2588.5" y1="60.4297" y2="734.9844"/><line style="stroke:#A80036;stroke-width:1.0;stroke-dasharray:5.0,5.0;" x1="2656.5" x2="2656.5" y1="60.4297" y2="734.9844"/><rect fill="#FEFECE" filter="url(#fup66nufp7t3e)" height="30.2969" style="stroke:#A80036;stroke-width:1.5;" width="84" x="5" y="25.1328"/><text fill="#000000" font-family="sans-serif" font-size="14" lengthAdjust="spacing" textLength="70" x="12" y="45.1279">WebClient</text><rect fill="#FEFECE" filter="url(#fup66nufp7t3e)" height="30.2969" style="stroke:#A80036;stroke-width:1.5;" width="84" x="5" y="733.9844"/><text fill="#000000" font-family="sans-serif" font-size="14" lengthAdjust="spacing" textLength="70" x="12" y="753.9795">WebClient</text><rect fill="#FEFECE" filter="url(#fup66nufp7t3e)" height="30.2969" style="stroke:#A80036;stroke-width:1.5;" width="113" x="233.5" y="25.1328"/><text fill="#000000" font-family="sans-serif" font-size="14" lengthAdjust="spacing" textLength="99" x="240.5" y="45.1279">UserController</text><rect fill="#FEFECE" filter="url(#fup66nufp7t3e)" height="30.2969" style="stroke:#A80036;stroke-width:1.5;" width="113" x="233.5" y="733.9844"/><text fill="#000000" font-family="sans-serif" font-size="14" lengthAdjust="spacing" textLength="99" x="240.5" y="753.9795">UserController</text><rect fill="#FEFECE" filter="url(#fup66nufp7t3e)" height="30.2969" style="stroke:#A80036;stroke-width:1.5;" width="79" x="568.5" y="25.1328"/><text fill="#000000" font-family="sans-serif" font-size="14" lengthAdjust="spacing" textLength="65" x="575.5" y="45.1279">UserGrpc</text><rect fill="#FEFECE" filter="url(#fup66nufp7t3e)" height="30.2969" style="stroke:#A80036;stroke-width:1.5;" width="79" x="568.5" y="733.9844"/><text fill="#000000" font-family="sans-serif" font-size="14" lengthAdjust="spacing" textLength="65" x="575.5" y="753.9795">UserGrpc</text><rect fill="#FEFECE" filter="url(#fup66nufp7t3e)" height="30.2969" style="stroke:#A80036;stroke-width:1.5;" width="104" x="815" y="25.1328"/><text fill="#000000" font-family="sans-serif" font-size="14" lengthAdjust="spacing" textLength="90" x="822" y="45.1279">GrpcChannel</text><rect fill="#FEFECE" filter="url(#fup66nufp7t3e)" height="30.2969" style="stroke:#A80036;stroke-width:1.5;" width="104" x="815" y="733.9844"/><text fill="#000000" font-family="sans-serif" font-size="14" lengthAdjust="spacing" textLength="90" x="822" y="753.9795">GrpcChannel</text><rect fill="#FEFECE" filter="url(#fup66nufp7t3e)" height="30.2969" style="stroke:#A80036;stroke-width:1.5;" width="96" x="1089" y="25.1328"/><text fill="#000000" font-family="sans-serif" font-size="14" lengthAdjust="spacing" textLength="82" x="1096" y="45.1279">UserService</text><rect fill="#FEFECE" filter="url(#fup66nufp7t3e)" height="30.2969" style="stroke:#A80036;stroke-width:1.5;" width="96" x="1089" y="733.9844"/><text fill="#000000" font-family="sans-serif" font-size="14" lengthAdjust="spacing" textLength="82" x="1096" y="753.9795">UserService</text><rect fill="#FEFECE" filter="url(#fup66nufp7t3e)" height="30.2969" style="stroke:#A80036;stroke-width:1.5;" width="113" x="1409.5" y="25.1328"/><text fill="#000000" font-family="sans-serif" font-size="14" lengthAdjust="spacing" textLength="99" x="1416.5" y="45.1279">UserController</text><rect fill="#FEFECE" filter="url(#fup66nufp7t3e)" height="30.2969" style="stroke:#A80036;stroke-width:1.5;" width="113" x="1409.5" y="733.9844"/><text fill="#000000" font-family="sans-serif" font-size="14" lengthAdjust="spacing" textLength="99" x="1416.5" y="753.9795">UserController</text><rect fill="#FEFECE" filter="url(#fup66nufp7t3e)" height="30.2969" style="stroke:#A80036;stroke-width:1.5;" width="122" x="1536.5" y="733.9844"/><text fill="#000000" font-family="sans-serif" font-size="14" lengthAdjust="spacing" textLength="108" x="1543.5" y="753.9795">LogGameModel</text><rect fill="#FEFECE" filter="url(#fup66nufp7t3e)" height="30.2969" style="stroke:#A80036;stroke-width:1.5;" width="75" x="1672.5" y="25.1328"/><text fill="#000000" font-family="sans-serif" font-size="14" lengthAdjust="spacing" textLength="61" x="1679.5" y="45.1279">LogLogic</text><rect fill="#FEFECE" filter="url(#fup66nufp7t3e)" height="30.2969" style="stroke:#A80036;stroke-width:1.5;" width="75" x="1672.5" y="733.9844"/><text fill="#000000" font-family="sans-serif" font-size="14" lengthAdjust="spacing" textLength="61" x="1679.5" y="753.9795">LogLogic</text><rect fill="#FEFECE" filter="url(#fup66nufp7t3e)" height="30.2969" style="stroke:#A80036;stroke-width:1.5;" width="86" x="1820.5" y="25.1328"/><text fill="#000000" font-family="sans-serif" font-size="14" lengthAdjust="spacing" textLength="72" x="1827.5" y="45.1279">LogQueue</text><rect fill="#FEFECE" filter="url(#fup66nufp7t3e)" height="30.2969" style="stroke:#A80036;stroke-width:1.5;" width="86" x="1820.5" y="733.9844"/><text fill="#000000" font-family="sans-serif" font-size="14" lengthAdjust="spacing" textLength="72" x="1827.5" y="753.9795">LogQueue</text><rect fill="#FEFECE" filter="url(#fup66nufp7t3e)" height="30.2969" style="stroke:#A80036;stroke-width:1.5;" width="62" x="2064" y="25.1328"/><text fill="#000000" font-family="sans-serif" font-size="14" lengthAdjust="spacing" textLength="48" x="2071" y="45.1279">Logger</text><rect fill="#FEFECE" filter="url(#fup66nufp7t3e)" height="30.2969" style="stroke:#A80036;stroke-width:1.5;" width="62" x="2064" y="733.9844"/><text fill="#000000" font-family="sans-serif" font-size="14" lengthAdjust="spacing" textLength="48" x="2071" y="753.9795">Logger</text><rect fill="#FEFECE" filter="url(#fup66nufp7t3e)" height="30.2969" style="stroke:#A80036;stroke-width:1.5;" width="83" x="2238.5" y="25.1328"/><text fill="#000000" font-family="sans-serif" font-size="14" lengthAdjust="spacing" textLength="69" x="2245.5" y="45.1279">LogsLogic</text><rect fill="#FEFECE" filter="url(#fup66nufp7t3e)" height="30.2969" style="stroke:#A80036;stroke-width:1.5;" width="83" x="2238.5" y="733.9844"/><text fill="#000000" font-family="sans-serif" font-size="14" lengthAdjust="spacing" textLength="69" x="2245.5" y="753.9795">LogsLogic</text><rect fill="#FEFECE" filter="url(#fup66nufp7t3e)" height="30.2969" style="stroke:#A80036;stroke-width:1.5;" width="63" x="2482.5" y="25.1328"/><text fill="#000000" font-family="sans-serif" font-size="14" lengthAdjust="spacing" textLength="49" x="2489.5" y="45.1279">Games</text><rect fill="#FEFECE" filter="url(#fup66nufp7t3e)" height="30.2969" style="stroke:#A80036;stroke-width:1.5;" width="63" x="2482.5" y="733.9844"/><text fill="#000000" font-family="sans-serif" font-size="14" lengthAdjust="spacing" textLength="49" x="2489.5" y="753.9795">Games</text><rect fill="#FEFECE" filter="url(#fup66nufp7t3e)" height="30.2969" style="stroke:#A80036;stroke-width:1.5;" width="54" x="2559.5" y="25.1328"/><text fill="#000000" font-family="sans-serif" font-size="14" lengthAdjust="spacing" textLength="40" x="2566.5" y="45.1279">Users</text><rect fill="#FEFECE" filter="url(#fup66nufp7t3e)" height="30.2969" style="stroke:#A80036;stroke-width:1.5;" width="54" x="2559.5" y="733.9844"/><text fill="#000000" font-family="sans-serif" font-size="14" lengthAdjust="spacing" textLength="40" x="2566.5" y="753.9795">Users</text><rect fill="#FEFECE" filter="url(#fup66nufp7t3e)" height="30.2969" style="stroke:#A80036;stroke-width:1.5;" width="55" x="2627.5" y="25.1328"/><text fill="#000000" font-family="sans-serif" font-size="14" lengthAdjust="spacing" textLength="41" x="2634.5" y="45.1279">Dates</text><rect fill="#FEFECE" filter="url(#fup66nufp7t3e)" height="30.2969" style="stroke:#A80036;stroke-width:1.5;" width="55" x="2627.5" y="733.9844"/><text fill="#000000" font-family="sans-serif" font-size="14" lengthAdjust="spacing" textLength="41" x="2634.5" y="753.9795">Dates</text><rect fill="#FFFFFF" filter="url(#fup66nufp7t3e)" height="423.7578" style="stroke:#A80036;stroke-width:1.0;" width="10" x="287" y="91.5625"/><rect fill="#FFFFFF" filter="url(#fup66nufp7t3e)" height="365.4922" style="stroke:#A80036;stroke-width:1.0;" width="10" x="605" y="120.6953"/><rect fill="#FFFFFF" filter="url(#fup66nufp7t3e)" height="307.2266" style="stroke:#A80036;stroke-width:1.0;" width="10" x="864" y="149.8281"/><rect fill="#FFFFFF" filter="url(#fup66nufp7t3e)" height="248.9609" style="stroke:#A80036;stroke-width:1.0;" width="10" x="1134" y="178.9609"/><rect fill="#FFFFFF" filter="url(#fup66nufp7t3e)" height="20.1641" style="stroke:#A80036;stroke-width:1.0;" width="10" x="1463" y="247.2266"/><rect fill="#FFFFFF" filter="url(#fup66nufp7t3e)" height="14" style="stroke:#A80036;stroke-width:1.0;" width="10" x="1594.5" y="296.5234"/><rect fill="#FFFFFF" filter="url(#fup66nufp7t3e)" height="59.1328" style="stroke:#A80036;stroke-width:1.0;" width="10" x="1707" y="339.6563"/><rect fill="#FFFFFF" filter="url(#fup66nufp7t3e)" height="175.6641" style="stroke:#A80036;stroke-width:1.0;" width="10" x="1860.5" y="368.7891"/><rect fill="#FFFFFF" filter="url(#fup66nufp7t3e)" height="172.5313" style="stroke:#A80036;stroke-width:1.0;" width="10" x="2092" y="544.4531"/><rect fill="#FFFFFF" filter="url(#fup66nufp7t3e)" height="143.3984" style="stroke:#A80036;stroke-width:1.0;" width="10" x="2277" y="573.5859"/><rect fill="#FFFFFF" filter="url(#fup66nufp7t3e)" height="14" style="stroke:#A80036;stroke-width:1.0;" width="10" x="2511" y="645.8516"/><rect fill="#FFFFFF" filter="url(#fup66nufp7t3e)" height="14" style="stroke:#A80036;stroke-width:1.0;" width="10" x="2583.5" y="602.7188"/><rect fill="#FFFFFF" filter="url(#fup66nufp7t3e)" height="14" style="stroke:#A80036;stroke-width:1.0;" width="10" x="2652" y="688.9844"/><polygon fill="#A80036" points="275,87.5625,285,91.5625,275,95.5625,279,91.5625" style="stroke:#A80036;stroke-width:1.0;"/><line style="stroke:#A80036;stroke-width:1.0;" x1="49" x2="281" y1="91.5625" y2="91.5625"/><text fill="#000000" font-family="sans-serif" font-size="13" lengthAdjust="spacing" textLength="184" x="56" y="86.4966">Post(userAsking, userToAdd)</text><polygon fill="#A80036" points="593,116.6953,603,120.6953,593,124.6953,597,120.6953" style="stroke:#A80036;stroke-width:1.0;"/><line style="stroke:#A80036;stroke-width:1.0;" x1="297" x2="599" y1="120.6953" y2="120.6953"/><text fill="#000000" font-family="sans-serif" font-size="13" lengthAdjust="spacing" textLength="289" x="304" y="115.6294">response = AddUser(userAsking, userToAdd)</text><polygon fill="#A80036" points="852,145.8281,862,149.8281,852,153.8281,856,149.8281" style="stroke:#A80036;stroke-width:1.0;"/><line style="stroke:#A80036;stroke-width:1.0;" x1="615" x2="858" y1="149.8281" y2="149.8281"/><text fill="#000000" font-family="sans-serif" font-size="13" lengthAdjust="spacing" textLength="230" x="622" y="144.7622">response = AddUserAsync(request)</text><polygon fill="#A80036" points="1122,174.9609,1132,178.9609,1122,182.9609,1126,178.9609" style="stroke:#A80036;stroke-width:1.0;"/><line style="stroke:#A80036;stroke-width:1.0;" x1="874" x2="1128" y1="178.9609" y2="178.9609"/><text fill="#000000" font-family="sans-serif" font-size="13" lengthAdjust="spacing" textLength="241" x="881" y="173.895">AddUser(userToAddRequest, context)</text><polygon fill="#A80036" points="1456,204.0938,1466,208.0938,1456,212.0938,1460,208.0938" style="stroke:#A80036;stroke-width:1.0;"/><line style="stroke:#A80036;stroke-width:1.0;" x1="1144" x2="1462" y1="208.0938" y2="208.0938"/><text fill="#000000" font-family="sans-serif" font-size="13" lengthAdjust="spacing" textLength="300" x="1151" y="203.0278">AddUser(userToAddRequest.UserToAddModify)</text><polygon fill="#A80036" points="1524.5,233.2266,1534.5,237.2266,1524.5,241.2266,1528.5,237.2266" style="stroke:#A80036;stroke-width:1.0;"/><line style="stroke:#A80036;stroke-width:1.0;" x1="1144" x2="1530.5" y1="237.2266" y2="237.2266"/><text fill="#000000" font-family="sans-serif" font-size="13" lengthAdjust="spacing" textLength="300" x="1151" y="232.1606">log = new LogGameModel(commandConstant)</text><rect fill="#FEFECE" filter="url(#fup66nufp7t3e)" height="30.2969" style="stroke:#A80036;stroke-width:1.5;" width="122" x="1536.5" y="216.0938"/><text fill="#000000" font-family="sans-serif" font-size="14" lengthAdjust="spacing" textLength="108" x="1543.5" y="236.0889">LogGameModel</text><polygon fill="#A80036" points="1155,263.3906,1145,267.3906,1155,271.3906,1151,267.3906" style="stroke:#A80036;stroke-width:1.0;"/><line style="stroke:#A80036;stroke-width:1.0;" x1="1149" x2="1467" y1="267.3906" y2="267.3906"/><polygon fill="#A80036" points="1582.5,292.5234,1592.5,296.5234,1582.5,300.5234,1586.5,296.5234" style="stroke:#A80036;stroke-width:1.0;"/><line style="stroke:#A80036;stroke-width:1.0;" x1="1144" x2="1588.5" y1="296.5234" y2="296.5234"/><text fill="#000000" font-family="sans-serif" font-size="13" lengthAdjust="spacing" textLength="107" x="1151" y="291.4575">log.Result = true</text><polygon fill="#A80036" points="1155,306.5234,1145,310.5234,1155,314.5234,1151,310.5234" style="stroke:#A80036;stroke-width:1.0;"/><line style="stroke:#A80036;stroke-width:1.0;" x1="1149" x2="1598.5" y1="310.5234" y2="310.5234"/><polygon fill="#A80036" points="1695,335.6563,1705,339.6563,1695,343.6563,1699,339.6563" style="stroke:#A80036;stroke-width:1.0;"/><line style="stroke:#A80036;stroke-width:1.0;" x1="1144" x2="1701" y1="339.6563" y2="339.6563"/><text fill="#000000" font-family="sans-serif" font-size="13" lengthAdjust="spacing" textLength="85" x="1151" y="334.5903">SendLog(log)</text><polygon fill="#A80036" points="1848.5,364.7891,1858.5,368.7891,1848.5,372.7891,1852.5,368.7891" style="stroke:#A80036;stroke-width:1.0;"/><line style="stroke:#A80036;stroke-width:1.0;" x1="1717" x2="1854.5" y1="368.7891" y2="368.7891"/><text fill="#000000" font-family="sans-serif" font-size="13" lengthAdjust="spacing" textLength="108" x="1724" y="363.7231">BasicPublish(log)</text><polygon fill="#A80036" points="885,423.9219,875,427.9219,885,431.9219,881,427.9219" style="stroke:#A80036;stroke-width:1.0;"/><line style="stroke:#A80036;stroke-width:1.0;" x1="879" x2="1138" y1="427.9219" y2="427.9219"/><text fill="#000000" font-family="sans-serif" font-size="13" lengthAdjust="spacing" textLength="114" x="891" y="422.856">return UsersReply</text><polygon fill="#A80036" points="626,453.0547,616,457.0547,626,461.0547,622,457.0547" style="stroke:#A80036;stroke-width:1.0;"/><line style="stroke:#A80036;stroke-width:1.0;" x1="620" x2="868" y1="457.0547" y2="457.0547"/><text fill="#000000" font-family="sans-serif" font-size="13" lengthAdjust="spacing" textLength="114" x="632" y="451.9888">return UsersReply</text><polygon fill="#A80036" points="308,482.1875,298,486.1875,308,490.1875,304,486.1875" style="stroke:#A80036;stroke-width:1.0;"/><line style="stroke:#A80036;stroke-width:1.0;" x1="302" x2="609" y1="486.1875" y2="486.1875"/><text fill="#000000" font-family="sans-serif" font-size="13" lengthAdjust="spacing" textLength="177" x="314" y="481.1216">return UsersReply.response</text><polygon fill="#A80036" points="60,511.3203,50,515.3203,60,519.3203,56,515.3203" style="stroke:#A80036;stroke-width:1.0;"/><line style="stroke:#A80036;stroke-width:1.0;" x1="54" x2="291" y1="515.3203" y2="515.3203"/><text fill="#000000" font-family="sans-serif" font-size="13" lengthAdjust="spacing" textLength="214" x="66" y="510.2544">return OkObjectRestult(response)</text><polygon fill="#A80036" points="2080,540.4531,2090,544.4531,2080,548.4531,2084,544.4531" style="stroke:#A80036;stroke-width:1.0;"/><line style="stroke:#A80036;stroke-width:1.0;" x1="1865.5" x2="2086" y1="544.4531" y2="544.4531"/><text fill="#000000" font-family="sans-serif" font-size="13" lengthAdjust="spacing" textLength="186" x="1872.5" y="539.3872">ReceiveItem(gameLogModel)</text><polygon fill="#A80036" points="2265,569.5859,2275,573.5859,2265,577.5859,2269,573.5859" style="stroke:#A80036;stroke-width:1.0;"/><line style="stroke:#A80036;stroke-width:1.0;" x1="2102" x2="2271" y1="573.5859" y2="573.5859"/><text fill="#000000" font-family="sans-serif" font-size="13" lengthAdjust="spacing" textLength="156" x="2109" y="568.52">AddLog(gameLogModel)</text><polygon fill="#A80036" points="2571.5,598.7188,2581.5,602.7188,2571.5,606.7188,2575.5,602.7188" style="stroke:#A80036;stroke-width:1.0;"/><line style="stroke:#A80036;stroke-width:1.0;" x1="2287" x2="2577.5" y1="602.7188" y2="602.7188"/><text fill="#000000" font-family="sans-serif" font-size="13" lengthAdjust="spacing" textLength="204" x="2294" y="597.6528">AddUserGameLog(gameToAdd)</text><polygon fill="#A80036" points="2298,612.7188,2288,616.7188,2298,620.7188,2294,616.7188" style="stroke:#A80036;stroke-width:1.0;"/><line style="stroke:#A80036;stroke-width:1.0;" x1="2292" x2="2587.5" y1="616.7188" y2="616.7188"/><polygon fill="#A80036" points="2499,641.8516,2509,645.8516,2499,649.8516,2503,645.8516" style="stroke:#A80036;stroke-width:1.0;"/><line style="stroke:#A80036;stroke-width:1.0;" x1="2287" x2="2505" y1="645.8516" y2="645.8516"/><text fill="#000000" font-family="sans-serif" font-size="13" lengthAdjust="spacing" textLength="205" x="2294" y="640.7856">AddGameDateLog(gameToAdd)</text><polygon fill="#A80036" points="2298,655.8516,2288,659.8516,2298,663.8516,2294,659.8516" style="stroke:#A80036;stroke-width:1.0;"/><line style="stroke:#A80036;stroke-width:1.0;" x1="2292" x2="2515" y1="659.8516" y2="659.8516"/><polygon fill="#A80036" points="2640,684.9844,2650,688.9844,2640,692.9844,2644,688.9844" style="stroke:#A80036;stroke-width:1.0;"/><line style="stroke:#A80036;stroke-width:1.0;" x1="2287" x2="2646" y1="688.9844" y2="688.9844"/><text fill="#000000" font-family="sans-serif" font-size="13" lengthAdjust="spacing" textLength="166" x="2294" y="683.9185">AddDateLog(gameToAdd)</text><polygon fill="#A80036" points="2298,698.9844,2288,702.9844,2298,706.9844,2294,702.9844" style="stroke:#A80036;stroke-width:1.0;"/><line style="stroke:#A80036;stroke-width:1.0;" x1="2292" x2="2656" y1="702.9844" y2="702.9844"/><polygon fill="#A80036" points="2108,712.9844,2098,716.9844,2108,720.9844,2104,716.9844" style="stroke:#A80036;stroke-width:1.0;"/><line style="stroke:#A80036;stroke-width:1.0;" x1="2102" x2="2281" y1="716.9844" y2="716.9844"/><!--MD5=[048d15ab7acb63a7e17e0f4facb9e053]
@startuml
participant WebClient



box "ServerAdmin" #LightBlue
participant "UserController" as UserController1
participant UserGrpc
WebClient -> UserController1 : Post(userAsking, userToAdd)
activate UserController1
UserController1 -> UserGrpc : response = AddUser(userAsking, userToAdd)
activate UserGrpc
UserGrpc -> GrpcChannel : response = AddUserAsync(request)
end box

box "GrpcChannel"
participant GrpcChannel
activate GrpcChannel
GrpcChannel -> UserService : AddUser(userToAddRequest, context)
end box

box "Server" #Pink
participant UserService
participant "UserController" as UserController2
participant LogGameModel
participant LogLogic
activate UserService
UserService -> UserController2 : AddUser(userToAddRequest.UserToAddModify)
create LogGameModel
UserService -> LogGameModel : log = new LogGameModel(commandConstant)
activate UserController2
UserController2 -> UserService 
deactivate UserController2
UserService -> LogGameModel : log.Result = true
activate LogGameModel
LogGameModel -> UserService
deactivate LogGameModel
UserService -> LogLogic : SendLog(log)
activate LogLogic
LogLogic -> LogQueue : BasicPublish(log)
activate LogQueue
deactivate LogLogic
UserService -> GrpcChannel : return UsersReply
deactivate UserService
GrpcChannel -> UserGrpc : return UsersReply
deactivate GrpcChannel
UserGrpc -> UserController1 : return UsersReply.response
deactivate UserGrpc
UserController1 -> WebClient : return OkObjectRestult(response)
deactivate UserController1
end box

box "RabbitMQ Queue"
participant "Log Queue" as LogQueue
LogQueue -> Logger : ReceiveItem(gameLogModel)
deactivate LogQueue
end box

box "ServerLogs" #Orange
participant Logger
participant LogsLogic
participant Games
participant Users
participant Dates
activate Logger
Logger -> LogsLogic : AddLog(gameLogModel)
activate LogsLogic
LogsLogic -> Users : AddUserGameLog(gameToAdd)
activate Users
Users -> LogsLogic
deactivate Users
LogsLogic -> Games : AddGameDateLog(gameToAdd)
activate Games
Games -> LogsLogic
deactivate Games
LogsLogic -> Dates : AddDateLog(gameToAdd)
activate Dates
Dates -> LogsLogic
deactivate Dates
LogsLogic -> Logger
deactivate LogsLogic
deactivate Logger
end box
deactivate LogQueue
@enduml

PlantUML version 1.2021.7(Sun May 23 12:40:07 UTC 2021)
(GPL source distribution)
Java Runtime: OpenJDK Runtime Environment
JVM: OpenJDK 64-Bit Server VM
Default Encoding: UTF-8
Language: en
Country: US
--></g></svg>