<svg version="1.1" xmlns="http://www.w3.org/2000/svg" xmlns:xlink="http://www.w3.org/1999/xlink" width="211.4443359375" height="213"><defs/><g><g transform="translate(-550,-142) scale(1,1)"><rect fill="#C0C0C0" stroke="none" x="567" y="295" width="191.4443359375" height="57" opacity="0.2"/></g><g transform="translate(-550,-142) scale(1,1)"><rect fill="#ffffff" stroke="none" x="560" y="288" width="191.4443359375" height="57"/></g><g transform="translate(-550,-142) scale(1,1)"><path fill="none" stroke="#000000" d="M 560 288 L 751.4443359375 288 L 751.4443359375 345 L 560 345 L 560 288 Z Z" stroke-miterlimit="10"/></g><g transform="translate(-550,-142) scale(1,1)"><path fill="none" stroke="#000000" d="M 560 313 L 751.4443359375 313" stroke-miterlimit="10"/></g><g transform="translate(-550,-142) scale(1,1)"><path fill="none" stroke="#000000" d="M 560 323 L 751.4443359375 323" stroke-miterlimit="10"/></g><g transform="translate(-550,-142) scale(1,1)"><g><path fill="none" stroke="none"/><text fill="#000000" stroke="none" font-family="Arial" font-size="13px" font-style="normal" font-weight="bold" text-decoration="none" x="606.581787109375" y="307.5">SettingsManager</text></g></g><g transform="translate(-550,-142) scale(1,1)"><g><path fill="none" stroke="none"/><text fill="#000000" stroke="none" font-family="Arial" font-size="13px" font-style="normal" font-weight="normal" text-decoration="none" x="565" y="340.5">+ReadSetting(string key): string</text></g></g><g transform="translate(-550,-142) scale(1,1)"><path fill="#C0C0C0" stroke="none" d="M 662.17724609375 170.5 C 662.17724609375 164.1487248 667.32597089375 159 673.67724609375 159 C 680.02852129375 159 685.17724609375 164.1487248 685.17724609375 170.5 C 685.17724609375 176.8512752 680.02852129375 182 673.67724609375 182 C 667.32597089375 182 662.17724609375 176.8512752 662.17724609375 170.5 Z" opacity="0.2"/></g><g transform="translate(-550,-142) scale(1,1)"><path fill="#ffffff" stroke="none" d="M 655.17724609375 163.5 C 655.17724609375 157.1487248 660.32597089375 152 666.67724609375 152 C 673.02852129375 152 678.17724609375 157.1487248 678.17724609375 163.5 C 678.17724609375 169.8512752 673.02852129375 175 666.67724609375 175 C 660.32597089375 175 655.17724609375 169.8512752 655.17724609375 163.5 Z"/></g><g transform="translate(-550,-142) scale(1,1)"><path fill="none" stroke="#000000" d="M 655.17724609375 163.5 C 655.17724609375 157.1487248 660.32597089375 152 666.67724609375 152 C 673.02852129375 152 678.17724609375 157.1487248 678.17724609375 163.5 C 678.17724609375 169.8512752 673.02852129375 175 666.67724609375 175 C 660.32597089375 175 655.17724609375 169.8512752 655.17724609375 163.5 Z" stroke-miterlimit="10"/></g><g transform="translate(-550,-142) scale(1,1)"><g><path fill="none" stroke="none"/><text fill="#000000" stroke="none" font-family="Arial" font-size="13px" font-style="normal" font-weight="bold" text-decoration="none" x="615.73095703125" y="194.5">ISettingsManager</text></g></g><g transform="translate(-550,-142) scale(1,1)"><path fill="none" stroke="#000000" d="M 666 288 L 666 175" stroke-miterlimit="10"/></g></g></svg>