<?xml version="1.0" encoding="UTF-8" standalone="no"?><svg xmlns="http://www.w3.org/2000/svg" xmlns:xlink="http://www.w3.org/1999/xlink" contentScriptType="application/ecmascript" contentStyleType="text/css" height="686px" preserveAspectRatio="none" style="width:2264px;height:686px;background:#FFFFFF;" version="1.1" viewBox="0 0 2264 686" width="2264px" zoomAndPan="magnify"><defs><filter height="300%" id="f6t3rbzwkcis" width="300%" x="-1" y="-1"><feGaussianBlur result="blurOut" stdDeviation="2.0"/><feColorMatrix in="blurOut" result="blurOut2" type="matrix" values="0 0 0 0 0 0 0 0 0 0 0 0 0 0 0 0 0 0 .4 0"/><feOffset dx="4.0" dy="4.0" in="blurOut2" result="blurOut3"/><feBlend in="SourceGraphic" in2="blurOut3" mode="normal"/></filter></defs><g><rect fill="#ADD8E6" height="674.9844" style="stroke:#A80036;stroke-width:1.0;" width="528" x="323.5" y="6"/><text fill="#000000" font-family="sans-serif" font-size="13" font-weight="bold" lengthAdjust="spacing" textLength="94" x="540.5" y="18.0669">ServerAdmin</text><rect fill="#DDDDDD" height="674.9844" style="stroke:#A80036;stroke-width:1.0;" width="116" x="1083" y="6"/><text fill="#000000" font-family="sans-serif" font-size="13" font-weight="bold" lengthAdjust="spacing" textLength="94" x="1094" y="18.0669">GrpcChannel</text><rect fill="#FFC0CB" height="674.9844" style="stroke:#A80036;stroke-width:1.0;" width="896" x="1362" y="6"/><text fill="#000000" font-family="sans-serif" font-size="13" font-weight="bold" lengthAdjust="spacing" textLength="47" x="1786.5" y="18.0669">Server</text><rect fill="#FFFFFF" filter="url(#f6t3rbzwkcis)" height="533.125" style="stroke:#A80036;stroke-width:1.0;" width="10" x="381" y="91.5625"/><rect fill="#FFFFFF" filter="url(#f6t3rbzwkcis)" height="474.8594" style="stroke:#A80036;stroke-width:1.0;" width="10" x="801" y="120.6953"/><rect fill="#FFFFFF" filter="url(#f6t3rbzwkcis)" height="416.5938" style="stroke:#A80036;stroke-width:1.0;" width="10" x="1136" y="149.8281"/><rect fill="#FFFFFF" filter="url(#f6t3rbzwkcis)" height="358.3281" style="stroke:#A80036;stroke-width:1.0;" width="10" x="1411" y="178.9609"/><rect fill="#FFFFFF" filter="url(#f6t3rbzwkcis)" height="300.0625" style="stroke:#A80036;stroke-width:1.0;" width="10" x="1836" y="208.0938"/><rect fill="#FFFFFF" filter="url(#f6t3rbzwkcis)" height="29.1328" style="stroke:#A80036;stroke-width:1.0;" width="10" x="2127" y="279.3594"/><rect fill="#FFFFFF" filter="url(#f6t3rbzwkcis)" height="14" style="stroke:#A80036;stroke-width:1.0;" width="10" x="2224.5" y="337.625"/><line style="stroke:#A80036;stroke-width:1.0;stroke-dasharray:5.0,5.0;" x1="49" x2="49" y1="60.4297" y2="642.6875"/><line style="stroke:#A80036;stroke-width:1.0;stroke-dasharray:5.0,5.0;" x1="385.5" x2="385.5" y1="60.4297" y2="642.6875"/><line style="stroke:#A80036;stroke-width:1.0;stroke-dasharray:5.0,5.0;" x1="805.5" x2="805.5" y1="60.4297" y2="642.6875"/><line style="stroke:#A80036;stroke-width:1.0;stroke-dasharray:5.0,5.0;" x1="1141" x2="1141" y1="60.4297" y2="642.6875"/><line style="stroke:#A80036;stroke-width:1.0;stroke-dasharray:5.0,5.0;" x1="1416" x2="1416" y1="60.4297" y2="642.6875"/><line style="stroke:#A80036;stroke-width:1.0;stroke-dasharray:5.0,5.0;" x1="1840.5" x2="1840.5" y1="60.4297" y2="642.6875"/><line style="stroke:#A80036;stroke-width:1.0;stroke-dasharray:5.0,5.0;" x1="2132" x2="2132" y1="60.4297" y2="642.6875"/><line style="stroke:#A80036;stroke-width:1.0;stroke-dasharray:5.0,5.0;" x1="2229" x2="2229" y1="60.4297" y2="642.6875"/><rect fill="#FEFECE" filter="url(#f6t3rbzwkcis)" height="30.2969" style="stroke:#A80036;stroke-width:1.5;" width="84" x="5" y="25.1328"/><text fill="#000000" font-family="sans-serif" font-size="14" lengthAdjust="spacing" textLength="70" x="12" y="45.1279">WebClient</text><rect fill="#FEFECE" filter="url(#f6t3rbzwkcis)" height="30.2969" style="stroke:#A80036;stroke-width:1.5;" width="84" x="5" y="641.6875"/><text fill="#000000" font-family="sans-serif" font-size="14" lengthAdjust="spacing" textLength="70" x="12" y="661.6826">WebClient</text><rect fill="#FEFECE" filter="url(#f6t3rbzwkcis)" height="30.2969" style="stroke:#A80036;stroke-width:1.5;" width="113" x="327.5" y="25.1328"/><text fill="#000000" font-family="sans-serif" font-size="14" lengthAdjust="spacing" textLength="99" x="334.5" y="45.1279">UserController</text><rect fill="#FEFECE" filter="url(#f6t3rbzwkcis)" height="30.2969" style="stroke:#A80036;stroke-width:1.5;" width="113" x="327.5" y="641.6875"/><text fill="#000000" font-family="sans-serif" font-size="14" lengthAdjust="spacing" textLength="99" x="334.5" y="661.6826">UserController</text><rect fill="#FEFECE" filter="url(#f6t3rbzwkcis)" height="30.2969" style="stroke:#A80036;stroke-width:1.5;" width="79" x="764.5" y="25.1328"/><text fill="#000000" font-family="sans-serif" font-size="14" lengthAdjust="spacing" textLength="65" x="771.5" y="45.1279">UserGrpc</text><rect fill="#FEFECE" filter="url(#f6t3rbzwkcis)" height="30.2969" style="stroke:#A80036;stroke-width:1.5;" width="79" x="764.5" y="641.6875"/><text fill="#000000" font-family="sans-serif" font-size="14" lengthAdjust="spacing" textLength="65" x="771.5" y="661.6826">UserGrpc</text><rect fill="#FEFECE" filter="url(#f6t3rbzwkcis)" height="30.2969" style="stroke:#A80036;stroke-width:1.5;" width="104" x="1087" y="25.1328"/><text fill="#000000" font-family="sans-serif" font-size="14" lengthAdjust="spacing" textLength="90" x="1094" y="45.1279">GrpcChannel</text><rect fill="#FEFECE" filter="url(#f6t3rbzwkcis)" height="30.2969" style="stroke:#A80036;stroke-width:1.5;" width="104" x="1087" y="641.6875"/><text fill="#000000" font-family="sans-serif" font-size="14" lengthAdjust="spacing" textLength="90" x="1094" y="661.6826">GrpcChannel</text><rect fill="#FEFECE" filter="url(#f6t3rbzwkcis)" height="30.2969" style="stroke:#A80036;stroke-width:1.5;" width="96" x="1366" y="25.1328"/><text fill="#000000" font-family="sans-serif" font-size="14" lengthAdjust="spacing" textLength="82" x="1373" y="45.1279">UserService</text><rect fill="#FEFECE" filter="url(#f6t3rbzwkcis)" height="30.2969" style="stroke:#A80036;stroke-width:1.5;" width="96" x="1366" y="641.6875"/><text fill="#000000" font-family="sans-serif" font-size="14" lengthAdjust="spacing" textLength="82" x="1373" y="661.6826">UserService</text><rect fill="#FEFECE" filter="url(#f6t3rbzwkcis)" height="30.2969" style="stroke:#A80036;stroke-width:1.5;" width="113" x="1782.5" y="25.1328"/><text fill="#000000" font-family="sans-serif" font-size="14" lengthAdjust="spacing" textLength="99" x="1789.5" y="45.1279">UserController</text><rect fill="#FEFECE" filter="url(#f6t3rbzwkcis)" height="30.2969" style="stroke:#A80036;stroke-width:1.5;" width="113" x="1782.5" y="641.6875"/><text fill="#000000" font-family="sans-serif" font-size="14" lengthAdjust="spacing" textLength="99" x="1789.5" y="661.6826">UserController</text><rect fill="#FEFECE" filter="url(#f6t3rbzwkcis)" height="30.2969" style="stroke:#A80036;stroke-width:1.5;" width="122" x="2069" y="25.1328"/><text fill="#000000" font-family="sans-serif" font-size="14" lengthAdjust="spacing" textLength="108" x="2076" y="45.1279">GameController</text><rect fill="#FEFECE" filter="url(#f6t3rbzwkcis)" height="30.2969" style="stroke:#A80036;stroke-width:1.5;" width="122" x="2069" y="641.6875"/><text fill="#000000" font-family="sans-serif" font-size="14" lengthAdjust="spacing" textLength="108" x="2076" y="661.6826">GameController</text><rect fill="#FEFECE" filter="url(#f6t3rbzwkcis)" height="30.2969" style="stroke:#A80036;stroke-width:1.5;" width="45" x="2205" y="25.1328"/><text fill="#000000" font-family="sans-serif" font-size="14" lengthAdjust="spacing" textLength="31" x="2212" y="45.1279">user</text><rect fill="#FEFECE" filter="url(#f6t3rbzwkcis)" height="30.2969" style="stroke:#A80036;stroke-width:1.5;" width="45" x="2205" y="641.6875"/><text fill="#000000" font-family="sans-serif" font-size="14" lengthAdjust="spacing" textLength="31" x="2212" y="661.6826">user</text><rect fill="#FFFFFF" filter="url(#f6t3rbzwkcis)" height="533.125" style="stroke:#A80036;stroke-width:1.0;" width="10" x="381" y="91.5625"/><rect fill="#FFFFFF" filter="url(#f6t3rbzwkcis)" height="474.8594" style="stroke:#A80036;stroke-width:1.0;" width="10" x="801" y="120.6953"/><rect fill="#FFFFFF" filter="url(#f6t3rbzwkcis)" height="416.5938" style="stroke:#A80036;stroke-width:1.0;" width="10" x="1136" y="149.8281"/><rect fill="#FFFFFF" filter="url(#f6t3rbzwkcis)" height="358.3281" style="stroke:#A80036;stroke-width:1.0;" width="10" x="1411" y="178.9609"/><rect fill="#FFFFFF" filter="url(#f6t3rbzwkcis)" height="300.0625" style="stroke:#A80036;stroke-width:1.0;" width="10" x="1836" y="208.0938"/><rect fill="#FFFFFF" filter="url(#f6t3rbzwkcis)" height="29.1328" style="stroke:#A80036;stroke-width:1.0;" width="10" x="2127" y="279.3594"/><rect fill="#FFFFFF" filter="url(#f6t3rbzwkcis)" height="14" style="stroke:#A80036;stroke-width:1.0;" width="10" x="2224.5" y="337.625"/><polygon fill="#A80036" points="369,87.5625,379,91.5625,369,95.5625,373,91.5625" style="stroke:#A80036;stroke-width:1.0;"/><line style="stroke:#A80036;stroke-width:1.0;" x1="49" x2="375" y1="91.5625" y2="91.5625"/><text fill="#000000" font-family="sans-serif" font-size="13" lengthAdjust="spacing" textLength="313" x="56" y="86.4966">DeleteGameForUser(userAsking, gameToDelete)</text><polygon fill="#A80036" points="789,116.6953,799,120.6953,789,124.6953,793,120.6953" style="stroke:#A80036;stroke-width:1.0;"/><line style="stroke:#A80036;stroke-width:1.0;" x1="391" x2="795" y1="120.6953" y2="120.6953"/><text fill="#000000" font-family="sans-serif" font-size="13" lengthAdjust="spacing" textLength="391" x="398" y="115.6294">response = DeleteGameForUser(userAsking, gameToDelete)</text><polygon fill="#A80036" points="1124,145.8281,1134,149.8281,1124,153.8281,1128,149.8281" style="stroke:#A80036;stroke-width:1.0;"/><line style="stroke:#A80036;stroke-width:1.0;" x1="811" x2="1130" y1="149.8281" y2="149.8281"/><text fill="#000000" font-family="sans-serif" font-size="13" lengthAdjust="spacing" textLength="306" x="818" y="144.7622">response = DeleteGameForUserAsync(request)</text><polygon fill="#A80036" points="1399,174.9609,1409,178.9609,1399,182.9609,1403,178.9609" style="stroke:#A80036;stroke-width:1.0;"/><line style="stroke:#A80036;stroke-width:1.0;" x1="1146" x2="1405" y1="178.9609" y2="178.9609"/><text fill="#000000" font-family="sans-serif" font-size="13" lengthAdjust="spacing" textLength="246" x="1153" y="173.895">DeleteGameForUser(request, context)</text><polygon fill="#A80036" points="1824,204.0938,1834,208.0938,1824,212.0938,1828,208.0938" style="stroke:#A80036;stroke-width:1.0;"/><line style="stroke:#A80036;stroke-width:1.0;" x1="1421" x2="1830" y1="208.0938" y2="208.0938"/><text fill="#000000" font-family="sans-serif" font-size="13" lengthAdjust="spacing" textLength="366" x="1428" y="203.0278">DeleteGameForUser(request.UserAsking, request.Game)</text><line style="stroke:#A80036;stroke-width:1.0;" x1="1846" x2="1888" y1="237.2266" y2="237.2266"/><line style="stroke:#A80036;stroke-width:1.0;" x1="1888" x2="1888" y1="237.2266" y2="250.2266"/><line style="stroke:#A80036;stroke-width:1.0;" x1="1847" x2="1888" y1="250.2266" y2="250.2266"/><polygon fill="#A80036" points="1857,246.2266,1847,250.2266,1857,254.2266,1853,250.2266" style="stroke:#A80036;stroke-width:1.0;"/><text fill="#000000" font-family="sans-serif" font-size="13" lengthAdjust="spacing" textLength="267" x="1853" y="232.1606">user = GetUser(userToDeleteGameFrom)</text><polygon fill="#A80036" points="2115,275.3594,2125,279.3594,2115,283.3594,2119,279.3594" style="stroke:#A80036;stroke-width:1.0;"/><line style="stroke:#A80036;stroke-width:1.0;" x1="1846" x2="2121" y1="279.3594" y2="279.3594"/><text fill="#000000" font-family="sans-serif" font-size="13" lengthAdjust="spacing" textLength="245" x="1853" y="274.2935">game = GetGetGame(gameToDelete)</text><polygon fill="#A80036" points="1857,304.4922,1847,308.4922,1857,312.4922,1853,308.4922" style="stroke:#A80036;stroke-width:1.0;"/><line style="stroke:#A80036;stroke-width:1.0;" x1="1851" x2="2131" y1="308.4922" y2="308.4922"/><text fill="#000000" font-family="sans-serif" font-size="13" lengthAdjust="spacing" textLength="80" x="1863" y="303.4263">return game</text><polygon fill="#A80036" points="2212.5,333.625,2222.5,337.625,2212.5,341.625,2216.5,337.625" style="stroke:#A80036;stroke-width:1.0;"/><line style="stroke:#A80036;stroke-width:1.0;" x1="1846" x2="2218.5" y1="337.625" y2="337.625"/><text fill="#000000" font-family="sans-serif" font-size="13" lengthAdjust="spacing" textLength="128" x="1853" y="332.5591">DeleteGame(game)</text><polygon fill="#A80036" points="1857,347.625,1847,351.625,1857,355.625,1853,351.625" style="stroke:#A80036;stroke-width:1.0;"/><line style="stroke:#A80036;stroke-width:1.0;" x1="1851" x2="2228.5" y1="351.625" y2="351.625"/><polygon fill="#A80036" points="1432,361.625,1422,365.625,1432,369.625,1428,365.625" style="stroke:#A80036;stroke-width:1.0;"/><line style="stroke:#A80036;stroke-width:1.0;" x1="1426" x2="1835" y1="365.625" y2="365.625"/><polygon fill="#A80036" points="1824,390.7578,1834,394.7578,1824,398.7578,1828,394.7578" style="stroke:#A80036;stroke-width:1.0;"/><line style="stroke:#A80036;stroke-width:1.0;" x1="1421" x2="1830" y1="394.7578" y2="394.7578"/><text fill="#000000" font-family="sans-serif" font-size="13" lengthAdjust="spacing" textLength="391" x="1428" y="389.6919">ownedGames = ListOwnedGameByUser(request.UserAsking)</text><line style="stroke:#A80036;stroke-width:1.0;" x1="1846" x2="1888" y1="423.8906" y2="423.8906"/><line style="stroke:#A80036;stroke-width:1.0;" x1="1888" x2="1888" y1="423.8906" y2="436.8906"/><line style="stroke:#A80036;stroke-width:1.0;" x1="1847" x2="1888" y1="436.8906" y2="436.8906"/><polygon fill="#A80036" points="1857,432.8906,1847,436.8906,1857,440.8906,1853,436.8906" style="stroke:#A80036;stroke-width:1.0;"/><text fill="#000000" font-family="sans-serif" font-size="13" lengthAdjust="spacing" textLength="175" x="1853" y="418.8247">user = GetUser(username)</text><line style="stroke:#A80036;stroke-width:1.0;" x1="1846" x2="1888" y1="466.0234" y2="466.0234"/><line style="stroke:#A80036;stroke-width:1.0;" x1="1888" x2="1888" y1="466.0234" y2="479.0234"/><line style="stroke:#A80036;stroke-width:1.0;" x1="1847" x2="1888" y1="479.0234" y2="479.0234"/><polygon fill="#A80036" points="1857,475.0234,1847,479.0234,1857,483.0234,1853,479.0234" style="stroke:#A80036;stroke-width:1.0;"/><text fill="#000000" font-family="sans-serif" font-size="13" lengthAdjust="spacing" textLength="236" x="1853" y="460.9575">user = GameListToString(username)</text><polygon fill="#A80036" points="1432,504.1563,1422,508.1563,1432,512.1563,1428,508.1563" style="stroke:#A80036;stroke-width:1.0;"/><line style="stroke:#A80036;stroke-width:1.0;" x1="1426" x2="1840" y1="508.1563" y2="508.1563"/><text fill="#000000" font-family="sans-serif" font-size="13" lengthAdjust="spacing" textLength="130" x="1438" y="503.0903">return ownedGames</text><polygon fill="#A80036" points="1157,533.2891,1147,537.2891,1157,541.2891,1153,537.2891" style="stroke:#A80036;stroke-width:1.0;"/><line style="stroke:#A80036;stroke-width:1.0;" x1="1151" x2="1415" y1="537.2891" y2="537.2891"/><text fill="#000000" font-family="sans-serif" font-size="13" lengthAdjust="spacing" textLength="114" x="1163" y="532.2231">return UsersReply</text><polygon fill="#A80036" points="822,562.4219,812,566.4219,822,570.4219,818,566.4219" style="stroke:#A80036;stroke-width:1.0;"/><line style="stroke:#A80036;stroke-width:1.0;" x1="816" x2="1140" y1="566.4219" y2="566.4219"/><text fill="#000000" font-family="sans-serif" font-size="13" lengthAdjust="spacing" textLength="114" x="828" y="561.356">return UsersReply</text><polygon fill="#A80036" points="402,591.5547,392,595.5547,402,599.5547,398,595.5547" style="stroke:#A80036;stroke-width:1.0;"/><line style="stroke:#A80036;stroke-width:1.0;" x1="396" x2="805" y1="595.5547" y2="595.5547"/><text fill="#000000" font-family="sans-serif" font-size="13" lengthAdjust="spacing" textLength="177" x="408" y="590.4888">return UsersReply.response</text><polygon fill="#A80036" points="60,620.6875,50,624.6875,60,628.6875,56,624.6875" style="stroke:#A80036;stroke-width:1.0;"/><line style="stroke:#A80036;stroke-width:1.0;" x1="54" x2="385" y1="624.6875" y2="624.6875"/><text fill="#000000" font-family="sans-serif" font-size="13" lengthAdjust="spacing" textLength="214" x="66" y="619.6216">return OkObjectRestult(response)</text><!--MD5=[1fd713ca4b625fcd5634c1068308fbe7]
@startuml
participant WebClient



box "ServerAdmin" #LightBlue
participant "UserController" as UserController1
participant UserGrpc
WebClient -> UserController1 : DeleteGameForUser(userAsking, gameToDelete)
activate UserController1
UserController1 -> UserGrpc : response = DeleteGameForUser(userAsking, gameToDelete)
activate UserGrpc
UserGrpc -> GrpcChannel : response = DeleteGameForUserAsync(request)
end box

box "GrpcChannel"
participant GrpcChannel
activate GrpcChannel
GrpcChannel -> UserService : DeleteGameForUser(request, context)
end box
box "Server" #Pink
participant UserService
participant "UserController" as UserController2
participant GameController
activate UserService
UserService -> UserController2 : DeleteGameForUser(request.UserAsking, request.Game)
activate UserController2
UserController2 -> UserController2 : user = GetUser(userToDeleteGameFrom)
UserController2 -> GameController : game = GetGetGame(gameToDelete)
activate GameController
GameController -> UserController2 : return game
deactivate GameController
UserController2 -> user : DeleteGame(game)
activate user
user -> UserController2
deactivate user
UserController2 -> UserService 
UserService -> UserController2 : ownedGames = ListOwnedGameByUser(request.UserAsking)
UserController2 -> UserController2 : user = GetUser(username)
UserController2 -> UserController2 : user = GameListToString(username)
UserController2 -> UserService : return ownedGames
deactivate UserController2
UserService -> GrpcChannel : return UsersReply
deactivate UserService
GrpcChannel -> UserGrpc : return UsersReply
deactivate GrpcChannel
UserGrpc -> UserController1 : return UsersReply.response
deactivate UserGrpc
UserController1 -> WebClient : return OkObjectRestult(response)
deactivate UserController1
end box
@enduml

PlantUML version 1.2021.7(Sun May 23 12:40:07 UTC 2021)
(GPL source distribution)
Java Runtime: OpenJDK Runtime Environment
JVM: OpenJDK 64-Bit Server VM
Default Encoding: UTF-8
Language: en
Country: US
--></g></svg>