<svg version="1.1" xmlns="http://www.w3.org/2000/svg" xmlns:xlink="http://www.w3.org/1999/xlink" width="1594.91015625" height="1128"><defs/><g><g transform="translate(-30,-310) scale(1,1)"><rect fill="#C0C0C0" stroke="none" x="87" y="327" width="413.78369140625" height="115" opacity="0.2"/></g><g transform="translate(-30,-310) scale(1,1)"><rect fill="#ffffff" stroke="none" x="80" y="320" width="413.78369140625" height="115"/></g><g transform="translate(-30,-310) scale(1,1)"><path fill="none" stroke="#000000" d="M 80 320 L 493.78369140625 320 L 493.78369140625 435 L 80 435 L 80 320 Z Z" stroke-miterlimit="10"/></g><g transform="translate(-30,-310) scale(1,1)"><path fill="none" stroke="#000000" d="M 80 360 L 493.78369140625 360" stroke-miterlimit="10"/></g><g transform="translate(-30,-310) scale(1,1)"><path fill="none" stroke="#000000" d="M 80 383 L 493.78369140625 383" stroke-miterlimit="10"/></g><g transform="translate(-30,-310) scale(1,1)"><g><path fill="none" stroke="none"/><text fill="#000000" stroke="none" font-family="Arial" font-size="13px" font-style="normal" font-weight="bold" text-decoration="none" x="265.93505859375" y="339.5">Startup</text></g></g><g transform="translate(-30,-310) scale(1,1)"><g><path fill="none" stroke="none"/><text fill="#000000" stroke="none" font-family="Arial" font-size="13px" font-style="normal" font-weight="normal" text-decoration="none" x="234.517333984375" y="354.5">(from ServerLogs)</text></g></g><g transform="translate(-30,-310) scale(1,1)"><g><path fill="none" stroke="none"/><text fill="#000000" stroke="none" font-family="Arial" font-size="13px" font-style="normal" font-weight="normal" text-decoration="none" x="85" y="377.5">+Configuration: IConfiguration</text></g></g><g transform="translate(-30,-310) scale(1,1)"><g><path fill="none" stroke="none"/><text fill="#000000" stroke="none" font-family="Arial" font-size="13px" font-style="normal" font-weight="normal" text-decoration="none" x="85" y="400.5">«constructor»+Startup()</text></g></g><g transform="translate(-30,-310) scale(1,1)"><g><path fill="none" stroke="none"/><text fill="#000000" stroke="none" font-family="Arial" font-size="13px" font-style="normal" font-weight="normal" text-decoration="none" x="85" y="415.5">+ConfigureServices(services: IServiceCollection): void</text></g></g><g transform="translate(-30,-310) scale(1,1)"><g><path fill="none" stroke="none"/><text fill="#000000" stroke="none" font-family="Arial" font-size="13px" font-style="normal" font-weight="normal" text-decoration="none" x="85" y="430.5">+Configure(app: IApplicationBuilder, env: IWebHostEnvironment): void</text></g></g><g transform="translate(-30,-310) scale(1,1)"><rect fill="#C0C0C0" stroke="none" x="119" y="503" width="293.30517578125" height="87" opacity="0.2"/></g><g transform="translate(-30,-310) scale(1,1)"><rect fill="#ffffff" stroke="none" x="112" y="496" width="293.30517578125" height="87"/></g><g transform="translate(-30,-310) scale(1,1)"><path fill="none" stroke="#000000" d="M 112 496 L 405.30517578125 496 L 405.30517578125 583 L 112 583 L 112 496 Z Z" stroke-miterlimit="10"/></g><g transform="translate(-30,-310) scale(1,1)"><path fill="none" stroke="#000000" d="M 112 536 L 405.30517578125 536" stroke-miterlimit="10"/></g><g transform="translate(-30,-310) scale(1,1)"><path fill="none" stroke="#000000" d="M 112 546 L 405.30517578125 546" stroke-miterlimit="10"/></g><g transform="translate(-30,-310) scale(1,1)"><g><path fill="none" stroke="none"/><text fill="#000000" stroke="none" font-family="Arial" font-size="13px" font-style="normal" font-weight="bold" text-decoration="none" x="233.728515625" y="515.5">Program</text></g></g><g transform="translate(-30,-310) scale(1,1)"><g><path fill="none" stroke="none"/><text fill="#000000" stroke="none" font-family="Arial" font-size="13px" font-style="normal" font-weight="normal" text-decoration="none" x="206.278076171875" y="530.5">(from ServerLogs)</text></g></g><g transform="translate(-30,-310) scale(1,1)"><g><path fill="none" stroke="none"/><text fill="#000000" stroke="none" font-family="Arial" font-size="13px" font-style="normal" font-weight="normal" text-decoration="none" x="117" y="563.5">+Main(args: string[][*]): void</text><path fill="none" stroke="#000000" d="M 117 563.5 L 276.30712890625 563.5" stroke-miterlimit="10"/></g></g><g transform="translate(-30,-310) scale(1,1)"><g><path fill="none" stroke="none"/><text fill="#000000" stroke="none" font-family="Arial" font-size="13px" font-style="normal" font-weight="normal" text-decoration="none" x="117" y="578.5">+CreateHostBuilder(args: string[][*]): IHostBuilder</text><path fill="none" stroke="#000000" d="M 117 578.5 L 401.30517578125 578.5" stroke-miterlimit="10"/></g></g><g transform="translate(-30,-310) scale(1,1)"><rect fill="#C0C0C0" stroke="none" x="759" y="615" width="338.51318359375" height="160" opacity="0.2"/></g><g transform="translate(-30,-310) scale(1,1)"><rect fill="#ffffff" stroke="none" x="752" y="608" width="338.51318359375" height="160"/></g><g transform="translate(-30,-310) scale(1,1)"><path fill="none" stroke="#000000" d="M 752 608 L 1090.51318359375 608 L 1090.51318359375 768 L 752 768 L 752 608 Z Z" stroke-miterlimit="10"/></g><g transform="translate(-30,-310) scale(1,1)"><path fill="none" stroke="#000000" d="M 752 648 L 1090.51318359375 648" stroke-miterlimit="10"/></g><g transform="translate(-30,-310) scale(1,1)"><path fill="none" stroke="#000000" d="M 752 701 L 1090.51318359375 701" stroke-miterlimit="10"/></g><g transform="translate(-30,-310) scale(1,1)"><g><path fill="none" stroke="none"/><text fill="#000000" stroke="none" font-family="Arial" font-size="13px" font-style="normal" font-weight="bold" text-decoration="none" x="901.01708984375" y="627.5">Logger</text></g></g><g transform="translate(-30,-310) scale(1,1)"><g><path fill="none" stroke="none"/><text fill="#000000" stroke="none" font-family="Arial" font-size="13px" font-style="normal" font-weight="normal" text-decoration="none" x="877.197509765625" y="642.5">(from Services)</text></g></g><g transform="translate(-30,-310) scale(1,1)"><g><path fill="none" stroke="none"/><text fill="#000000" stroke="none" font-family="Arial" font-size="13px" font-style="normal" font-weight="normal" text-decoration="none" x="757" y="665.5">-_logger: ILogger</text></g></g><g transform="translate(-30,-310) scale(1,1)"><g><path fill="none" stroke="none"/><text fill="#000000" stroke="none" font-family="Arial" font-size="13px" font-style="normal" font-weight="normal" text-decoration="none" x="757" y="680.5">-_busControl: IBus</text></g></g><g transform="translate(-30,-310) scale(1,1)"><g><path fill="none" stroke="none"/><text fill="#000000" stroke="none" font-family="Arial" font-size="13px" font-style="normal" font-weight="normal" text-decoration="none" x="757" y="695.5">-_serviceProvider: IServiceProvider</text></g></g><g transform="translate(-30,-310) scale(1,1)"><g><path fill="none" stroke="none"/><text fill="#000000" stroke="none" font-family="Arial" font-size="13px" font-style="normal" font-weight="normal" text-decoration="none" x="757" y="718.5">«constructor»+Logger()</text></g></g><g transform="translate(-30,-310) scale(1,1)"><g><path fill="none" stroke="none"/><text fill="#000000" stroke="none" font-family="Arial" font-size="13px" font-style="normal" font-weight="normal" text-decoration="none" x="757" y="733.5">#ExecuteAsync(stoppingToken: CancellationToken): Task</text></g></g><g transform="translate(-30,-310) scale(1,1)"><g><path fill="none" stroke="none"/><text fill="#000000" stroke="none" font-family="Arial" font-size="13px" font-style="normal" font-weight="normal" text-decoration="none" x="757" y="748.5">-ReceiveItem(gameLogModel: LogGameModel): void</text></g></g><g transform="translate(-30,-310) scale(1,1)"><g><path fill="none" stroke="none"/><text fill="#000000" stroke="none" font-family="Arial" font-size="13px" font-style="normal" font-weight="normal" text-decoration="none" x="757" y="763.5">-PrintLog(gameLogModel: LogGameModel): string</text></g></g><g transform="translate(-30,-310) scale(1,1)"><path fill="#C0C0C0" stroke="none" d="M 222.068603515625 666.5 C 222.068603515625 660.1487248 227.217328315625 655 233.568603515625 655 C 239.919878715625 655 245.068603515625 660.1487248 245.068603515625 666.5 C 245.068603515625 672.8512752 239.919878715625 678 233.568603515625 678 C 227.217328315625 678 222.068603515625 672.8512752 222.068603515625 666.5 Z" opacity="0.2"/></g><g transform="translate(-30,-310) scale(1,1)"><path fill="#ffffff" stroke="none" d="M 215.068603515625 659.5 C 215.068603515625 653.1487248 220.217328315625 648 226.568603515625 648 C 232.919878715625 648 238.068603515625 653.1487248 238.068603515625 659.5 C 238.068603515625 665.8512752 232.919878715625 671 226.568603515625 671 C 220.217328315625 671 215.068603515625 665.8512752 215.068603515625 659.5 Z"/></g><g transform="translate(-30,-310) scale(1,1)"><path fill="none" stroke="#000000" d="M 215.068603515625 659.5 C 215.068603515625 653.1487248 220.217328315625 648 226.568603515625 648 C 232.919878715625 648 238.068603515625 653.1487248 238.068603515625 659.5 C 238.068603515625 665.8512752 232.919878715625 671 226.568603515625 671 C 220.217328315625 671 215.068603515625 665.8512752 215.068603515625 659.5 Z" stroke-miterlimit="10"/></g><g transform="translate(-30,-310) scale(1,1)"><g><path fill="none" stroke="none"/><text fill="#000000" stroke="none" font-family="Arial" font-size="13px" font-style="normal" font-weight="bold" text-decoration="none" x="213.562255859375" y="690.5">IBus</text></g></g><g transform="translate(-30,-310) scale(1,1)"><g><path fill="none" stroke="none"/><text fill="#000000" stroke="none" font-family="Arial" font-size="13px" font-style="normal" font-weight="normal" text-decoration="none" x="156.5" y="705.5">(from RabbitMQService)</text></g></g><g transform="translate(-30,-310) scale(1,1)"><rect fill="#C0C0C0" stroke="none" x="687" y="367" width="630.72119140625" height="130" opacity="0.2"/></g><g transform="translate(-30,-310) scale(1,1)"><rect fill="#ffffff" stroke="none" x="680" y="360" width="630.72119140625" height="130"/></g><g transform="translate(-30,-310) scale(1,1)"><path fill="none" stroke="#000000" d="M 680 360 L 1310.72119140625 360 L 1310.72119140625 490 L 680 490 L 680 360 Z Z" stroke-miterlimit="10"/></g><g transform="translate(-30,-310) scale(1,1)"><path fill="none" stroke="#000000" d="M 680 400 L 1310.72119140625 400" stroke-miterlimit="10"/></g><g transform="translate(-30,-310) scale(1,1)"><path fill="none" stroke="#000000" d="M 680 453 L 1310.72119140625 453" stroke-miterlimit="10"/></g><g transform="translate(-30,-310) scale(1,1)"><g><path fill="none" stroke="none"/><text fill="#000000" stroke="none" font-family="Arial" font-size="13px" font-style="normal" font-weight="bold" text-decoration="none" x="959.591552734375" y="379.5">RabbitHutch</text></g></g><g transform="translate(-30,-310) scale(1,1)"><g><path fill="none" stroke="none"/><text fill="#000000" stroke="none" font-family="Arial" font-size="13px" font-style="normal" font-weight="normal" text-decoration="none" x="925.2919921875" y="394.5">(from RabbitMQService)</text></g></g><g transform="translate(-30,-310) scale(1,1)"><g><path fill="none" stroke="none"/><text fill="#000000" stroke="none" font-family="Arial" font-size="13px" font-style="normal" font-weight="normal" text-decoration="none" x="685" y="417.5">-_factory: ConnectionFactory</text><path fill="none" stroke="#000000" d="M 685 417.5 L 851.9052734375 417.5" stroke-miterlimit="10"/></g></g><g transform="translate(-30,-310) scale(1,1)"><g><path fill="none" stroke="none"/><text fill="#000000" stroke="none" font-family="Arial" font-size="13px" font-style="normal" font-weight="normal" text-decoration="none" x="685" y="432.5">-_connection: IConnection</text><path fill="none" stroke="#000000" d="M 685 432.5 L 836.04248046875 432.5" stroke-miterlimit="10"/></g></g><g transform="translate(-30,-310) scale(1,1)"><g><path fill="none" stroke="none"/><text fill="#000000" stroke="none" font-family="Arial" font-size="13px" font-style="normal" font-weight="normal" text-decoration="none" x="685" y="447.5">-_channel: IModel</text><path fill="none" stroke="#000000" d="M 685 447.5 L 788.33984375 447.5" stroke-miterlimit="10"/></g></g><g transform="translate(-30,-310) scale(1,1)"><g><path fill="none" stroke="none"/><text fill="#000000" stroke="none" font-family="Arial" font-size="13px" font-style="normal" font-weight="normal" text-decoration="none" x="685" y="470.5">+CreateBus(): IBus</text><path fill="none" stroke="#000000" d="M 685 470.5 L 795.90625 470.5" stroke-miterlimit="10"/></g></g><g transform="translate(-30,-310) scale(1,1)"><g><path fill="none" stroke="none"/><text fill="#000000" stroke="none" font-family="Arial" font-size="13px" font-style="normal" font-weight="normal" text-decoration="none" x="685" y="485.5">+CreateBus(hostName: string, hostPort: ushort, virtualHost: string, username: string, password: string): IBus</text><path fill="none" stroke="#000000" d="M 685 485.5 L 1306.72119140625 485.5" stroke-miterlimit="10"/></g></g><g transform="translate(-30,-310) scale(1,1)"><rect fill="#C0C0C0" stroke="none" x="423" y="631" width="252.1533203125" height="115" opacity="0.2"/></g><g transform="translate(-30,-310) scale(1,1)"><rect fill="#ffffff" stroke="none" x="416" y="624" width="252.1533203125" height="115"/></g><g transform="translate(-30,-310) scale(1,1)"><path fill="none" stroke="#000000" d="M 416 624 L 668.1533203125 624 L 668.1533203125 739 L 416 739 L 416 624 Z Z" stroke-miterlimit="10"/></g><g transform="translate(-30,-310) scale(1,1)"><path fill="none" stroke="#000000" d="M 416 664 L 668.1533203125 664" stroke-miterlimit="10"/></g><g transform="translate(-30,-310) scale(1,1)"><path fill="none" stroke="#000000" d="M 416 687 L 668.1533203125 687" stroke-miterlimit="10"/></g><g transform="translate(-30,-310) scale(1,1)"><g><path fill="none" stroke="none"/><text fill="#000000" stroke="none" font-family="Arial" font-size="13px" font-style="normal" font-weight="bold" text-decoration="none" x="512.087158203125" y="643.5">RabbitBus</text></g></g><g transform="translate(-30,-310) scale(1,1)"><g><path fill="none" stroke="none"/><text fill="#000000" stroke="none" font-family="Arial" font-size="13px" font-style="normal" font-weight="normal" text-decoration="none" x="472.008056640625" y="658.5">(from RabbitMQService)</text></g></g><g transform="translate(-30,-310) scale(1,1)"><g><path fill="none" stroke="none"/><text fill="#000000" stroke="none" font-family="Arial" font-size="13px" font-style="normal" font-weight="normal" text-decoration="none" x="421" y="681.5">-_channel: IModel</text></g></g><g transform="translate(-30,-310) scale(1,1)"><g><path fill="none" stroke="none"/><text fill="#000000" stroke="none" font-family="Arial" font-size="13px" font-style="normal" font-weight="normal" text-decoration="none" x="421" y="704.5">«constructor»+RabbitBus()</text></g></g><g transform="translate(-30,-310) scale(1,1)"><g><path fill="none" stroke="none"/><text fill="#000000" stroke="none" font-family="Arial" font-size="13px" font-style="normal" font-weight="normal" text-decoration="none" x="421" y="719.5">+(queue: string, message: T): Task</text></g></g><g transform="translate(-30,-310) scale(1,1)"><g><path fill="none" stroke="none"/><text fill="#000000" stroke="none" font-family="Arial" font-size="13px" font-style="normal" font-weight="normal" text-decoration="none" x="421" y="734.5">+(queue: string, onMessage: Action): Task</text></g></g><g transform="translate(-30,-310) scale(1,1)"><rect fill="#C0C0C0" stroke="none" x="1215" y="639" width="193.62158203125" height="72" opacity="0.2"/></g><g transform="translate(-30,-310) scale(1,1)"><rect fill="#ffffff" stroke="none" x="1208" y="632" width="193.62158203125" height="72"/></g><g transform="translate(-30,-310) scale(1,1)"><path fill="none" stroke="#000000" d="M 1208 632 L 1401.62158203125 632 L 1401.62158203125 704 L 1208 704 L 1208 632 Z Z" stroke-miterlimit="10"/></g><g transform="translate(-30,-310) scale(1,1)"><path fill="none" stroke="#000000" d="M 1208 672 L 1401.62158203125 672" stroke-miterlimit="10"/></g><g transform="translate(-30,-310) scale(1,1)"><path fill="none" stroke="#000000" d="M 1208 695 L 1401.62158203125 695" stroke-miterlimit="10"/></g><g transform="translate(-30,-310) scale(1,1)"><g><path fill="none" stroke="none"/><text fill="#000000" stroke="none" font-family="Arial" font-size="13px" font-style="normal" font-weight="bold" text-decoration="none" x="1285.294921875" y="651.5">Queue</text></g></g><g transform="translate(-30,-310) scale(1,1)"><g><path fill="none" stroke="none"/><text fill="#000000" stroke="none" font-family="Arial" font-size="13px" font-style="normal" font-weight="normal" text-decoration="none" x="1234.7421875" y="666.5">(from RabbitMQService)</text></g></g><g transform="translate(-30,-310) scale(1,1)"><g><path fill="none" stroke="none"/><text fill="#000000" stroke="none" font-family="Arial" font-size="13px" font-style="normal" font-weight="normal" text-decoration="none" x="1213" y="689.5">+ProcessingQueueName: string</text><path fill="none" stroke="#000000" d="M 1213 689.5 L 1397.62158203125 689.5" stroke-miterlimit="10"/></g></g><g transform="translate(-30,-310) scale(1,1)"><rect fill="#C0C0C0" stroke="none" x="575" y="1303" width="107.14111328125" height="132" opacity="0.2"/></g><g transform="translate(-30,-310) scale(1,1)"><rect fill="#ffffff" stroke="none" x="568" y="1296" width="107.14111328125" height="132"/></g><g transform="translate(-30,-310) scale(1,1)"><path fill="none" stroke="#000000" d="M 568 1296 L 675.14111328125 1296 L 675.14111328125 1428 L 568 1428 L 568 1296 Z Z" stroke-miterlimit="10"/></g><g transform="translate(-30,-310) scale(1,1)"><path fill="none" stroke="#000000" d="M 568 1336 L 675.14111328125 1336" stroke-miterlimit="10"/></g><g transform="translate(-30,-310) scale(1,1)"><path fill="none" stroke="#000000" d="M 568 1419 L 675.14111328125 1419" stroke-miterlimit="10"/></g><g transform="translate(-30,-310) scale(1,1)"><g><path fill="none" stroke="none"/><text fill="#000000" stroke="none" font-family="Arial" font-size="13px" font-style="normal" font-weight="bold" text-decoration="none" x="589.4228515625" y="1315.5">FilterModel</text></g></g><g transform="translate(-30,-310) scale(1,1)"><g><path fill="none" stroke="none"/><text fill="#000000" stroke="none" font-family="Arial" font-size="13px" font-style="normal" font-weight="normal" text-decoration="none" x="581.48193359375" y="1330.5">(from Models)</text></g></g><g transform="translate(-30,-310) scale(1,1)"><g><path fill="none" stroke="none"/><text fill="#000000" stroke="none" font-family="Arial" font-size="13px" font-style="normal" font-weight="normal" text-decoration="none" x="573" y="1353.5">-_user: string</text></g></g><g transform="translate(-30,-310) scale(1,1)"><g><path fill="none" stroke="none"/><text fill="#000000" stroke="none" font-family="Arial" font-size="13px" font-style="normal" font-weight="normal" text-decoration="none" x="573" y="1368.5">-_game: string</text></g></g><g transform="translate(-30,-310) scale(1,1)"><g><path fill="none" stroke="none"/><text fill="#000000" stroke="none" font-family="Arial" font-size="13px" font-style="normal" font-weight="normal" text-decoration="none" x="573" y="1383.5">+User: string</text></g></g><g transform="translate(-30,-310) scale(1,1)"><g><path fill="none" stroke="none"/><text fill="#000000" stroke="none" font-family="Arial" font-size="13px" font-style="normal" font-weight="normal" text-decoration="none" x="573" y="1398.5">+Game: string</text></g></g><g transform="translate(-30,-310) scale(1,1)"><g><path fill="none" stroke="none"/><text fill="#000000" stroke="none" font-family="Arial" font-size="13px" font-style="normal" font-weight="normal" text-decoration="none" x="573" y="1413.5">+Date: DateTime</text></g></g><g transform="translate(-30,-310) scale(1,1)"><rect fill="#C0C0C0" stroke="none" x="551" y="983" width="270.244140625" height="205" opacity="0.2"/></g><g transform="translate(-30,-310) scale(1,1)"><rect fill="#ffffff" stroke="none" x="544" y="976" width="270.244140625" height="205"/></g><g transform="translate(-30,-310) scale(1,1)"><path fill="none" stroke="#000000" d="M 544 976 L 814.244140625 976 L 814.244140625 1181 L 544 1181 L 544 976 Z Z" stroke-miterlimit="10"/></g><g transform="translate(-30,-310) scale(1,1)"><path fill="none" stroke="#000000" d="M 544 1016 L 814.244140625 1016" stroke-miterlimit="10"/></g><g transform="translate(-30,-310) scale(1,1)"><path fill="none" stroke="#000000" d="M 544 1114 L 814.244140625 1114" stroke-miterlimit="10"/></g><g transform="translate(-30,-310) scale(1,1)"><g><path fill="none" stroke="none"/><text fill="#000000" stroke="none" font-family="Arial" font-size="13px" font-style="normal" font-weight="bold" text-decoration="none" x="649.488037109375" y="995.5">LogsLogic</text></g></g><g transform="translate(-30,-310) scale(1,1)"><g><path fill="none" stroke="none"/><text fill="#000000" stroke="none" font-family="Arial" font-size="13px" font-style="normal" font-weight="normal" text-decoration="none" x="645.89208984375" y="1010.5">(from Logs)</text></g></g><g transform="translate(-30,-310) scale(1,1)"><g><path fill="none" stroke="none"/><text fill="#000000" stroke="none" font-family="Arial" font-size="13px" font-style="normal" font-weight="normal" text-decoration="none" x="549" y="1033.5">-_padlock: object = new object()</text><path fill="none" stroke="#000000" d="M 549 1033.5 L 732.904296875 1033.5" stroke-miterlimit="10"/></g></g><g transform="translate(-30,-310) scale(1,1)"><g><path fill="none" stroke="none"/><text fill="#000000" stroke="none" font-family="Arial" font-size="13px" font-style="normal" font-weight="normal" text-decoration="none" x="549" y="1048.5">-_logs: List</text></g></g><g transform="translate(-30,-310) scale(1,1)"><g><path fill="none" stroke="none"/><text fill="#000000" stroke="none" font-family="Arial" font-size="13px" font-style="normal" font-weight="normal" text-decoration="none" x="549" y="1063.5">-_gameLogs: Games</text></g></g><g transform="translate(-30,-310) scale(1,1)"><g><path fill="none" stroke="none"/><text fill="#000000" stroke="none" font-family="Arial" font-size="13px" font-style="normal" font-weight="normal" text-decoration="none" x="549" y="1078.5">-_userLogs: Users</text></g></g><g transform="translate(-30,-310) scale(1,1)"><g><path fill="none" stroke="none"/><text fill="#000000" stroke="none" font-family="Arial" font-size="13px" font-style="normal" font-weight="normal" text-decoration="none" x="549" y="1093.5">-_dateLogs: Dates</text></g></g><g transform="translate(-30,-310) scale(1,1)"><g><path fill="none" stroke="none"/><text fill="#000000" stroke="none" font-family="Arial" font-size="13px" font-style="normal" font-weight="normal" text-decoration="none" x="549" y="1108.5">-_idLog: int = 1</text></g></g><g transform="translate(-30,-310) scale(1,1)"><g><path fill="none" stroke="none"/><text fill="#000000" stroke="none" font-family="Arial" font-size="13px" font-style="normal" font-weight="normal" text-decoration="none" x="549" y="1131.5">«constructor»-LogsLogic()</text></g></g><g transform="translate(-30,-310) scale(1,1)"><g><path fill="none" stroke="none"/><text fill="#000000" stroke="none" font-family="Arial" font-size="13px" font-style="normal" font-weight="normal" text-decoration="none" x="549" y="1146.5">+GetLogs(): List</text></g></g><g transform="translate(-30,-310) scale(1,1)"><g><path fill="none" stroke="none"/><text fill="#000000" stroke="none" font-family="Arial" font-size="13px" font-style="normal" font-weight="normal" text-decoration="none" x="549" y="1161.5">+GetLogs(filters: FilterModel): List</text></g></g><g transform="translate(-30,-310) scale(1,1)"><g><path fill="none" stroke="none"/><text fill="#000000" stroke="none" font-family="Arial" font-size="13px" font-style="normal" font-weight="normal" text-decoration="none" x="549" y="1176.5">+AddLog(gameToAdd: LogGameModel): void</text></g></g><g transform="translate(-30,-310) scale(1,1)"><rect fill="#C0C0C0" stroke="none" x="959" y="831" width="646.05078125" height="160" opacity="0.2"/></g><g transform="translate(-30,-310) scale(1,1)"><rect fill="#ffffff" stroke="none" x="952" y="824" width="646.05078125" height="160"/></g><g transform="translate(-30,-310) scale(1,1)"><path fill="none" stroke="#000000" d="M 952 824 L 1598.05078125 824 L 1598.05078125 984 L 952 984 L 952 824 Z Z" stroke-miterlimit="10"/></g><g transform="translate(-30,-310) scale(1,1)"><path fill="none" stroke="#000000" d="M 952 864 L 1598.05078125 864" stroke-miterlimit="10"/></g><g transform="translate(-30,-310) scale(1,1)"><path fill="none" stroke="#000000" d="M 952 902 L 1598.05078125 902" stroke-miterlimit="10"/></g><g transform="translate(-30,-310) scale(1,1)"><g><path fill="none" stroke="none"/><text fill="#000000" stroke="none" font-family="Arial" font-size="13px" font-style="normal" font-weight="bold" text-decoration="none" x="1258.0517578125" y="843.5">Users</text></g></g><g transform="translate(-30,-310) scale(1,1)"><g><path fill="none" stroke="none"/><text fill="#000000" stroke="none" font-family="Arial" font-size="13px" font-style="normal" font-weight="normal" text-decoration="none" x="1219.029541015625" y="858.5">(from LogsStorage)</text></g></g><g transform="translate(-30,-310) scale(1,1)"><g><path fill="none" stroke="none"/><text fill="#000000" stroke="none" font-family="Arial" font-size="13px" font-style="normal" font-weight="normal" text-decoration="none" x="957" y="881.5">-_padlock: object = new object()</text><path fill="none" stroke="#000000" d="M 957 881.5 L 1140.904296875 881.5" stroke-miterlimit="10"/></g></g><g transform="translate(-30,-310) scale(1,1)"><g><path fill="none" stroke="none"/><text fill="#000000" stroke="none" font-family="Arial" font-size="13px" font-style="normal" font-weight="normal" text-decoration="none" x="957" y="896.5">-_userGameLog: IDictionary</text></g></g><g transform="translate(-30,-310) scale(1,1)"><g><path fill="none" stroke="none"/><text fill="#000000" stroke="none" font-family="Arial" font-size="13px" font-style="normal" font-weight="normal" text-decoration="none" x="957" y="919.5">«constructor»-Users()</text></g></g><g transform="translate(-30,-310) scale(1,1)"><g><path fill="none" stroke="none"/><text fill="#000000" stroke="none" font-family="Arial" font-size="13px" font-style="normal" font-weight="normal" text-decoration="none" x="957" y="934.5">+AddUserGameLog(log: LogGameModel): void</text></g></g><g transform="translate(-30,-310) scale(1,1)"><g><path fill="none" stroke="none"/><text fill="#000000" stroke="none" font-family="Arial" font-size="13px" font-style="normal" font-weight="normal" text-decoration="none" x="957" y="949.5">-UpadateCompositeGameLog(compositeGameLog: IDictionary, game: string, log: LogGameModel): IDictionary</text></g></g><g transform="translate(-30,-310) scale(1,1)"><g><path fill="none" stroke="none"/><text fill="#000000" stroke="none" font-family="Arial" font-size="13px" font-style="normal" font-weight="normal" text-decoration="none" x="957" y="964.5">+GetUserLogs(filters: FilterModel): List</text></g></g><g transform="translate(-30,-310) scale(1,1)"><g><path fill="none" stroke="none"/><text fill="#000000" stroke="none" font-family="Arial" font-size="13px" font-style="normal" font-weight="normal" text-decoration="none" x="957" y="979.5">+GetUserGameLogs(filters: FilterModel): List</text></g></g><g transform="translate(-30,-310) scale(1,1)"><rect fill="#C0C0C0" stroke="none" x="959" y="1023" width="662.91015625" height="145" opacity="0.2"/></g><g transform="translate(-30,-310) scale(1,1)"><rect fill="#ffffff" stroke="none" x="952" y="1016" width="662.91015625" height="145"/></g><g transform="translate(-30,-310) scale(1,1)"><path fill="none" stroke="#000000" d="M 952 1016 L 1614.91015625 1016 L 1614.91015625 1161 L 952 1161 L 952 1016 Z Z" stroke-miterlimit="10"/></g><g transform="translate(-30,-310) scale(1,1)"><path fill="none" stroke="#000000" d="M 952 1056 L 1614.91015625 1056" stroke-miterlimit="10"/></g><g transform="translate(-30,-310) scale(1,1)"><path fill="none" stroke="#000000" d="M 952 1094 L 1614.91015625 1094" stroke-miterlimit="10"/></g><g transform="translate(-30,-310) scale(1,1)"><g><path fill="none" stroke="none"/><text fill="#000000" stroke="none" font-family="Arial" font-size="13px" font-style="normal" font-weight="bold" text-decoration="none" x="1262.504638671875" y="1035.5">Games</text></g></g><g transform="translate(-30,-310) scale(1,1)"><g><path fill="none" stroke="none"/><text fill="#000000" stroke="none" font-family="Arial" font-size="13px" font-style="normal" font-weight="normal" text-decoration="none" x="1227.459228515625" y="1050.5">(from LogsStorage)</text></g></g><g transform="translate(-30,-310) scale(1,1)"><g><path fill="none" stroke="none"/><text fill="#000000" stroke="none" font-family="Arial" font-size="13px" font-style="normal" font-weight="normal" text-decoration="none" x="957" y="1073.5">-_padlock: object = new object()</text><path fill="none" stroke="#000000" d="M 957 1073.5 L 1140.904296875 1073.5" stroke-miterlimit="10"/></g></g><g transform="translate(-30,-310) scale(1,1)"><g><path fill="none" stroke="none"/><text fill="#000000" stroke="none" font-family="Arial" font-size="13px" font-style="normal" font-weight="normal" text-decoration="none" x="957" y="1088.5">-_gameDateLog: IDictionary</text></g></g><g transform="translate(-30,-310) scale(1,1)"><g><path fill="none" stroke="none"/><text fill="#000000" stroke="none" font-family="Arial" font-size="13px" font-style="normal" font-weight="normal" text-decoration="none" x="957" y="1111.5">«constructor»-Games()</text></g></g><g transform="translate(-30,-310) scale(1,1)"><g><path fill="none" stroke="none"/><text fill="#000000" stroke="none" font-family="Arial" font-size="13px" font-style="normal" font-weight="normal" text-decoration="none" x="957" y="1126.5">+AddGameDateLog(log: LogGameModel): void</text></g></g><g transform="translate(-30,-310) scale(1,1)"><g><path fill="none" stroke="none"/><text fill="#000000" stroke="none" font-family="Arial" font-size="13px" font-style="normal" font-weight="normal" text-decoration="none" x="957" y="1141.5">-UpadateCompositeGameLog(compositeGameLog: IDictionary, date: DateTime, log: LogGameModel): IDictionary</text></g></g><g transform="translate(-30,-310) scale(1,1)"><g><path fill="none" stroke="none"/><text fill="#000000" stroke="none" font-family="Arial" font-size="13px" font-style="normal" font-weight="normal" text-decoration="none" x="957" y="1156.5">+GetGameLogs(filters: FilterModel): List</text></g></g><g transform="translate(-30,-310) scale(1,1)"><rect fill="#C0C0C0" stroke="none" x="959" y="1199" width="245.67236328125" height="130" opacity="0.2"/></g><g transform="translate(-30,-310) scale(1,1)"><rect fill="#ffffff" stroke="none" x="952" y="1192" width="245.67236328125" height="130"/></g><g transform="translate(-30,-310) scale(1,1)"><path fill="none" stroke="#000000" d="M 952 1192 L 1197.67236328125 1192 L 1197.67236328125 1322 L 952 1322 L 952 1192 Z Z" stroke-miterlimit="10"/></g><g transform="translate(-30,-310) scale(1,1)"><path fill="none" stroke="#000000" d="M 952 1232 L 1197.67236328125 1232" stroke-miterlimit="10"/></g><g transform="translate(-30,-310) scale(1,1)"><path fill="none" stroke="#000000" d="M 952 1270 L 1197.67236328125 1270" stroke-miterlimit="10"/></g><g transform="translate(-30,-310) scale(1,1)"><g><path fill="none" stroke="none"/><text fill="#000000" stroke="none" font-family="Arial" font-size="13px" font-style="normal" font-weight="bold" text-decoration="none" x="1057.856201171875" y="1211.5">Dates</text></g></g><g transform="translate(-30,-310) scale(1,1)"><g><path fill="none" stroke="none"/><text fill="#000000" stroke="none" font-family="Arial" font-size="13px" font-style="normal" font-weight="normal" text-decoration="none" x="1018.84033203125" y="1226.5">(from LogsStorage)</text></g></g><g transform="translate(-30,-310) scale(1,1)"><g><path fill="none" stroke="none"/><text fill="#000000" stroke="none" font-family="Arial" font-size="13px" font-style="normal" font-weight="normal" text-decoration="none" x="957" y="1249.5">-_padlock: object = new object()</text><path fill="none" stroke="#000000" d="M 957 1249.5 L 1140.904296875 1249.5" stroke-miterlimit="10"/></g></g><g transform="translate(-30,-310) scale(1,1)"><g><path fill="none" stroke="none"/><text fill="#000000" stroke="none" font-family="Arial" font-size="13px" font-style="normal" font-weight="normal" text-decoration="none" x="957" y="1264.5">-_dateLog: IDictionary</text></g></g><g transform="translate(-30,-310) scale(1,1)"><g><path fill="none" stroke="none"/><text fill="#000000" stroke="none" font-family="Arial" font-size="13px" font-style="normal" font-weight="normal" text-decoration="none" x="957" y="1287.5">«constructor»-Dates()</text></g></g><g transform="translate(-30,-310) scale(1,1)"><g><path fill="none" stroke="none"/><text fill="#000000" stroke="none" font-family="Arial" font-size="13px" font-style="normal" font-weight="normal" text-decoration="none" x="957" y="1302.5">+AddDateLog(log: LogGameModel): void</text></g></g><g transform="translate(-30,-310) scale(1,1)"><g><path fill="none" stroke="none"/><text fill="#000000" stroke="none" font-family="Arial" font-size="13px" font-style="normal" font-weight="normal" text-decoration="none" x="957" y="1317.5">+GetDateLogs(date: DateTime): List</text></g></g><g transform="translate(-30,-310) scale(1,1)"><rect fill="#C0C0C0" stroke="none" x="167" y="967" width="292.5751953125" height="100" opacity="0.2"/></g><g transform="translate(-30,-310) scale(1,1)"><rect fill="#ffffff" stroke="none" x="160" y="960" width="292.5751953125" height="100"/></g><g transform="translate(-30,-310) scale(1,1)"><path fill="none" stroke="#000000" d="M 160 960 L 452.5751953125 960 L 452.5751953125 1060 L 160 1060 L 160 960 Z Z" stroke-miterlimit="10"/></g><g transform="translate(-30,-310) scale(1,1)"><path fill="none" stroke="#000000" d="M 160 1000 L 452.5751953125 1000" stroke-miterlimit="10"/></g><g transform="translate(-30,-310) scale(1,1)"><path fill="none" stroke="#000000" d="M 160 1023 L 452.5751953125 1023" stroke-miterlimit="10"/></g><g transform="translate(-30,-310) scale(1,1)"><g><path fill="none" stroke="none"/><text fill="#000000" stroke="none" font-family="Arial" font-size="13px" font-style="normal" font-weight="bold" text-decoration="none" x="246.31494140625" y="979.5">GameLogsController</text></g></g><g transform="translate(-30,-310) scale(1,1)"><g><path fill="none" stroke="none"/><text fill="#000000" stroke="none" font-family="Arial" font-size="13px" font-style="normal" font-weight="normal" text-decoration="none" x="255.725341796875" y="994.5">(from Controllers)</text></g></g><g transform="translate(-30,-310) scale(1,1)"><g><path fill="none" stroke="none"/><text fill="#000000" stroke="none" font-family="Arial" font-size="13px" font-style="normal" font-weight="normal" text-decoration="none" x="165" y="1017.5">-_context: LogsLogic</text></g></g><g transform="translate(-30,-310) scale(1,1)"><g><path fill="none" stroke="none"/><text fill="#000000" stroke="none" font-family="Arial" font-size="13px" font-style="normal" font-weight="normal" text-decoration="none" x="165" y="1040.5">«constructor»+GameLogsController()</text></g></g><g transform="translate(-30,-310) scale(1,1)"><g><path fill="none" stroke="none"/><text fill="#000000" stroke="none" font-family="Arial" font-size="13px" font-style="normal" font-weight="normal" text-decoration="none" x="165" y="1055.5">+GetGameLogs(filters: FilterModel): ActionResult</text></g></g><g transform="translate(-30,-310) scale(1,1)"><path fill="none" stroke="#000000" d="M 453 1000 L 544 1000" stroke-miterlimit="10"/></g><g transform="translate(-30,-310) scale(1,1)"><path fill="none" stroke="#000000" d="M 533.8373251423759 1004.209517756016 L 544 1000 L 533.8373251423758 995.790482243984" stroke-miterlimit="10"/></g><g transform="translate(-30,-310) scale(1,1)"><path fill="none" stroke="#000000" d="M 306 1060 L 306 1362 L 568 1362" stroke-miterlimit="10" stroke-dasharray="3"/></g><g transform="translate(-30,-310) scale(1,1)"><path fill="none" stroke="#000000" d="M 557.8373251423759 1366.2095177560159 L 568 1362 L 557.8373251423758 1357.7904822439841" stroke-miterlimit="10"/></g><g transform="translate(-30,-310) scale(1,1)"><path fill="none" stroke="#000000" d="M 800 976 L 800 920 L 952 920" stroke-miterlimit="10"/></g><g transform="translate(-30,-310) scale(1,1)"><path fill="none" stroke="#000000" d="M 941.8373251423759 924.209517756016 L 952 920 L 941.8373251423758 915.790482243984" stroke-miterlimit="10"/></g><g transform="translate(-30,-310) scale(1,1)"><path fill="none" stroke="#000000" d="M 814 1083 L 952 1083" stroke-miterlimit="10"/></g><g transform="translate(-30,-310) scale(1,1)"><path fill="none" stroke="#000000" d="M 941.8373251423759 1087.2095177560159 L 952 1083 L 941.8373251423758 1078.7904822439841" stroke-miterlimit="10"/></g><g transform="translate(-30,-310) scale(1,1)"><path fill="none" stroke="#000000" d="M 800 1181 L 800 1240 L 952 1240" stroke-miterlimit="10"/></g><g transform="translate(-30,-310) scale(1,1)"><path fill="none" stroke="#000000" d="M 941.8373251423759 1244.2095177560159 L 952 1240 L 941.8373251423758 1235.7904822439841" stroke-miterlimit="10"/></g><g transform="translate(-30,-310) scale(1,1)"><path fill="none" stroke="#000000" d="M 752 739 L 668 739" stroke-miterlimit="10"/></g><g transform="translate(-30,-310) scale(1,1)"><path fill="none" stroke="#000000" d="M 678.1626748576241 734.790482243984 L 668 739 L 678.1626748576241 743.209517756016" stroke-miterlimit="10"/></g><g transform="translate(-30,-310) scale(1,1)"><path fill="none" stroke="#000000" d="M 976 608 L 976 490" stroke-miterlimit="10"/></g><g transform="translate(-30,-310) scale(1,1)"><path fill="none" stroke="#000000" d="M 980.209517756016 500.16267485762415 L 976 490 L 971.790482243984 500.16267485762415" stroke-miterlimit="10"/></g><g transform="translate(-30,-310) scale(1,1)"><path fill="none" stroke="#000000" d="M 1091 679 L 1208 679" stroke-miterlimit="10" stroke-dasharray="3"/></g><g transform="translate(-30,-310) scale(1,1)"><path fill="none" stroke="#000000" d="M 1197.837325142376 683.209517756016 L 1208 679 L 1197.837325142376 674.790482243984" stroke-miterlimit="10"/></g><g transform="translate(-30,-310) scale(1,1)"><g><path fill="none" stroke="none"/><text fill="#000000" stroke="none" font-family="Arial" font-size="13px" font-style="normal" font-weight="normal" text-decoration="none" x="45" y="722">Task ReceiveAsync&lt;T&gt;(string queue, Action&lt;T&gt; onMessage);</text></g></g><g transform="translate(-30,-310) scale(1,1)"><path fill="none" stroke="#000000" d="M 415 680 L 302 679" stroke-miterlimit="10"/></g><g transform="translate(-30,-310) scale(1,1)"><path fill="#FFFFFF" stroke="none" d="M 322.39905569729046 670.7611574442254 L 302 679 L 322.2500520536726 687.5985691730397"/></g><g transform="translate(-30,-310) scale(1,1)"><path fill="none" stroke="#000000" d="M 322.39905569729046 670.7611574442254 L 302 679 L 322.2500520536726 687.5985691730397 L 322.39905569729046 670.7611574442254" stroke-miterlimit="10"/></g><g transform="translate(-30,-310) scale(1,1)"><path fill="none" stroke="#000000" d="M 568 1181 L 568 1296" stroke-miterlimit="10" stroke-dasharray="3"/></g><g transform="translate(-30,-310) scale(1,1)"><path fill="none" stroke="#000000" d="M 563.790482243984 1285.837325142376 L 568 1296 L 572.209517756016 1285.837325142376" stroke-miterlimit="10"/></g><g transform="translate(-30,-310) scale(1,1)"><path fill="none" stroke="#000000" d="M 952 944 L 888 944 L 888 1323 L 675 1323" stroke-miterlimit="10" stroke-dasharray="3"/></g><g transform="translate(-30,-310) scale(1,1)"><path fill="none" stroke="#000000" d="M 685.1626748576241 1318.7904822439841 L 675 1323 L 685.1626748576241 1327.2095177560159" stroke-miterlimit="10"/></g><g transform="translate(-30,-310) scale(1,1)"><path fill="none" stroke="#000000" d="M 952 1112 L 896 1112 L 896 1339 L 675 1339" stroke-miterlimit="10" stroke-dasharray="3"/></g><g transform="translate(-30,-310) scale(1,1)"><path fill="none" stroke="#000000" d="M 685.1626748576241 1334.7904822439841 L 675 1339 L 685.1626748576241 1343.2095177560159" stroke-miterlimit="10"/></g><g transform="translate(-30,-310) scale(1,1)"><path fill="none" stroke="#000000" d="M 1074 1322 L 1074 1349 L 675 1349" stroke-miterlimit="10" stroke-dasharray="3"/></g><g transform="translate(-30,-310) scale(1,1)"><path fill="none" stroke="#000000" d="M 685.1626748576241 1344.7904822439841 L 675 1349 L 685.1626748576241 1353.2095177560159" stroke-miterlimit="10"/></g><g transform="translate(-30,-310) scale(1,1)"><path fill="none" stroke="#000000" d="M 752 752 L 696 752 L 696 976" stroke-miterlimit="10"/></g><g transform="translate(-30,-310) scale(1,1)"><path fill="none" stroke="#000000" d="M 691.790482243984 965.8373251423759 L 696 976 L 700.209517756016 965.8373251423759" stroke-miterlimit="10"/></g><g transform="translate(-30,-310) scale(1,1)"><path fill="none" stroke="#000000" d="M 276 496 L 276 435" stroke-miterlimit="10" stroke-dasharray="3"/></g><g transform="translate(-30,-310) scale(1,1)"><path fill="none" stroke="#000000" d="M 280.209517756016 445.16267485762415 L 276 435 L 271.790482243984 445.16267485762415" stroke-miterlimit="10"/></g></g></svg>