<svg version="1.1" xmlns="http://www.w3.org/2000/svg" xmlns:xlink="http://www.w3.org/1999/xlink" width="1717" height="1071"><defs/><g><g transform="translate(-22,-150) scale(1,1)"><rect fill="#C0C0C0" stroke="none" x="343" y="543" width="523.15380859375" height="87" opacity="0.2"/></g><g transform="translate(-22,-150) scale(1,1)"><rect fill="#ffffff" stroke="none" x="336" y="536" width="523.15380859375" height="87"/></g><g transform="translate(-22,-150) scale(1,1)"><path fill="none" stroke="#000000" d="M 336 536 L 859.15380859375 536 L 859.15380859375 623 L 336 623 L 336 536 Z Z" stroke-miterlimit="10"/></g><g transform="translate(-22,-150) scale(1,1)"><path fill="none" stroke="#000000" d="M 336 576 L 859.15380859375 576" stroke-miterlimit="10"/></g><g transform="translate(-22,-150) scale(1,1)"><path fill="none" stroke="#000000" d="M 336 586 L 859.15380859375 586" stroke-miterlimit="10"/></g><g transform="translate(-22,-150) scale(1,1)"><g><path fill="none" stroke="none"/><text fill="#000000" stroke="none" font-family="Arial" font-size="13px" font-style="normal" font-weight="bold" text-decoration="none" x="568.31103515625" y="555.5">AddGame</text></g></g><g transform="translate(-22,-150) scale(1,1)"><g><path fill="none" stroke="none"/><text fill="#000000" stroke="none" font-family="Arial" font-size="13px" font-style="normal" font-weight="normal" text-decoration="none" x="549.176025390625" y="570.5">(from Strategies)</text></g></g><g transform="translate(-22,-150) scale(1,1)"><g><path fill="none" stroke="none"/><text fill="#000000" stroke="none" font-family="Arial" font-size="13px" font-style="normal" font-weight="normal" text-decoration="none" x="341" y="603.5">+HandleRequest(header: Header, clientSocketHandler: ISocketHandler): LogGameModel</text></g></g><g transform="translate(-22,-150) scale(1,1)"><g><path fill="none" stroke="none"/><text fill="#000000" stroke="none" font-family="Arial" font-size="13px" font-style="normal" font-weight="normal" text-decoration="none" x="341" y="618.5">-UploadImage(clientSocketHandler: ISocketHandler, gameName: string): string</text></g></g><g transform="translate(-22,-150) scale(1,1)"><rect fill="#C0C0C0" stroke="none" x="343" y="647" width="523.15380859375" height="72" opacity="0.2"/></g><g transform="translate(-22,-150) scale(1,1)"><rect fill="#ffffff" stroke="none" x="336" y="640" width="523.15380859375" height="72"/></g><g transform="translate(-22,-150) scale(1,1)"><path fill="none" stroke="#000000" d="M 336 640 L 859.15380859375 640 L 859.15380859375 712 L 336 712 L 336 640 Z Z" stroke-miterlimit="10"/></g><g transform="translate(-22,-150) scale(1,1)"><path fill="none" stroke="#000000" d="M 336 680 L 859.15380859375 680" stroke-miterlimit="10"/></g><g transform="translate(-22,-150) scale(1,1)"><path fill="none" stroke="#000000" d="M 336 690 L 859.15380859375 690" stroke-miterlimit="10"/></g><g transform="translate(-22,-150) scale(1,1)"><g><path fill="none" stroke="none"/><text fill="#000000" stroke="none" font-family="Arial" font-size="13px" font-style="normal" font-weight="bold" text-decoration="none" x="568.676025390625" y="659.5">BuyGame</text></g></g><g transform="translate(-22,-150) scale(1,1)"><g><path fill="none" stroke="none"/><text fill="#000000" stroke="none" font-family="Arial" font-size="13px" font-style="normal" font-weight="normal" text-decoration="none" x="549.176025390625" y="674.5">(from Strategies)</text></g></g><g transform="translate(-22,-150) scale(1,1)"><g><path fill="none" stroke="none"/><text fill="#000000" stroke="none" font-family="Arial" font-size="13px" font-style="normal" font-weight="normal" text-decoration="none" x="341" y="707.5">+HandleRequest(header: Header, clientSocketHandler: ISocketHandler): LogGameModel</text></g></g><g transform="translate(-22,-150) scale(1,1)"><rect fill="#C0C0C0" stroke="none" x="663" y="343" width="523.15380859375" height="87" opacity="0.2"/></g><g transform="translate(-22,-150) scale(1,1)"><rect fill="#ffffff" stroke="none" x="656" y="336" width="523.15380859375" height="87"/></g><g transform="translate(-22,-150) scale(1,1)"><path fill="none" stroke="#000000" d="M 656 336 L 1179.15380859375 336 L 1179.15380859375 423 L 656 423 L 656 336 Z Z" stroke-miterlimit="10"/></g><g transform="translate(-22,-150) scale(1,1)"><path fill="none" stroke="#000000" d="M 656 376 L 1179.15380859375 376" stroke-miterlimit="10"/></g><g transform="translate(-22,-150) scale(1,1)"><path fill="none" stroke="#000000" d="M 656 386 L 1179.15380859375 386" stroke-miterlimit="10"/></g><g transform="translate(-22,-150) scale(1,1)"><g><path fill="none" stroke="none"/><text fill="#000000" stroke="none" font-family="Arial" font-size="13px" font-style="italic" font-weight="bold" text-decoration="none" x="863.386962890625" y="355.5">CommandStrategy</text></g></g><g transform="translate(-22,-150) scale(1,1)"><g><path fill="none" stroke="none"/><text fill="#000000" stroke="none" font-family="Arial" font-size="13px" font-style="normal" font-weight="normal" text-decoration="none" x="869.176025390625" y="370.5">(from Strategies)</text></g></g><g transform="translate(-22,-150) scale(1,1)"><g><path fill="none" stroke="none"/><text fill="#000000" stroke="none" font-family="Arial" font-size="13px" font-style="normal" font-weight="normal" text-decoration="none" x="661" y="403.5">«constructor»+CommandStrategy()</text></g></g><g transform="translate(-22,-150) scale(1,1)"><g><path fill="none" stroke="none"/><text fill="#000000" stroke="none" font-family="Arial" font-size="13px" font-style="italic" font-weight="normal" text-decoration="none" x="661" y="418.5">+HandleRequest(header: Header, clientSocketHandler: ISocketHandler): LogGameModel</text></g></g><g transform="translate(-22,-150) scale(1,1)"><path fill="none" stroke="#000000" d="M 859 536 L 864 536 L 864 423" stroke-miterlimit="10"/></g><g transform="translate(-22,-150) scale(1,1)"><path fill="#FFFFFF" stroke="none" d="M 872.419035512032 443.3253497152483 L 864 423 L 855.580964487968 443.3253497152483"/></g><g transform="translate(-22,-150) scale(1,1)"><path fill="none" stroke="#000000" d="M 872.419035512032 443.3253497152483 L 864 423 L 855.580964487968 443.3253497152483 L 872.419035512032 443.3253497152483" stroke-miterlimit="10"/></g><g transform="translate(-22,-150) scale(1,1)"><path fill="none" stroke="#000000" d="M 859 676 L 880 676 L 880 423" stroke-miterlimit="10"/></g><g transform="translate(-22,-150) scale(1,1)"><path fill="#FFFFFF" stroke="none" d="M 888.419035512032 443.3253497152483 L 880 423 L 871.580964487968 443.3253497152483"/></g><g transform="translate(-22,-150) scale(1,1)"><path fill="none" stroke="#000000" d="M 888.419035512032 443.3253497152483 L 880 423 L 871.580964487968 443.3253497152483 L 888.419035512032 443.3253497152483" stroke-miterlimit="10"/></g><g transform="translate(-22,-150) scale(1,1)"><rect fill="#C0C0C0" stroke="none" x="343" y="735" width="523.15380859375" height="72" opacity="0.2"/></g><g transform="translate(-22,-150) scale(1,1)"><rect fill="#ffffff" stroke="none" x="336" y="728" width="523.15380859375" height="72"/></g><g transform="translate(-22,-150) scale(1,1)"><path fill="none" stroke="#000000" d="M 336 728 L 859.15380859375 728 L 859.15380859375 800 L 336 800 L 336 728 Z Z" stroke-miterlimit="10"/></g><g transform="translate(-22,-150) scale(1,1)"><path fill="none" stroke="#000000" d="M 336 768 L 859.15380859375 768" stroke-miterlimit="10"/></g><g transform="translate(-22,-150) scale(1,1)"><path fill="none" stroke="#000000" d="M 336 778 L 859.15380859375 778" stroke-miterlimit="10"/></g><g transform="translate(-22,-150) scale(1,1)"><g><path fill="none" stroke="none"/><text fill="#000000" stroke="none" font-family="Arial" font-size="13px" font-style="normal" font-weight="bold" text-decoration="none" x="532.538818359375" y="747.5">DeleteGamePublished</text></g></g><g transform="translate(-22,-150) scale(1,1)"><g><path fill="none" stroke="none"/><text fill="#000000" stroke="none" font-family="Arial" font-size="13px" font-style="normal" font-weight="normal" text-decoration="none" x="549.176025390625" y="762.5">(from Strategies)</text></g></g><g transform="translate(-22,-150) scale(1,1)"><g><path fill="none" stroke="none"/><text fill="#000000" stroke="none" font-family="Arial" font-size="13px" font-style="normal" font-weight="normal" text-decoration="none" x="341" y="795.5">+HandleRequest(header: Header, clientSocketHandler: ISocketHandler): LogGameModel</text></g></g><g transform="translate(-22,-150) scale(1,1)"><path fill="none" stroke="#000000" d="M 859 764 L 895 764 L 895 423" stroke-miterlimit="10"/></g><g transform="translate(-22,-150) scale(1,1)"><path fill="#FFFFFF" stroke="none" d="M 903.419035512032 443.3253497152483 L 895 423 L 886.580964487968 443.3253497152483"/></g><g transform="translate(-22,-150) scale(1,1)"><path fill="none" stroke="#000000" d="M 903.419035512032 443.3253497152483 L 895 423 L 886.580964487968 443.3253497152483 L 903.419035512032 443.3253497152483" stroke-miterlimit="10"/></g><g transform="translate(-22,-150) scale(1,1)"><rect fill="#C0C0C0" stroke="none" x="343" y="823" width="523.15380859375" height="72" opacity="0.2"/></g><g transform="translate(-22,-150) scale(1,1)"><rect fill="#ffffff" stroke="none" x="336" y="816" width="523.15380859375" height="72"/></g><g transform="translate(-22,-150) scale(1,1)"><path fill="none" stroke="#000000" d="M 336 816 L 859.15380859375 816 L 859.15380859375 888 L 336 888 L 336 816 Z Z" stroke-miterlimit="10"/></g><g transform="translate(-22,-150) scale(1,1)"><path fill="none" stroke="#000000" d="M 336 856 L 859.15380859375 856" stroke-miterlimit="10"/></g><g transform="translate(-22,-150) scale(1,1)"><path fill="none" stroke="#000000" d="M 336 866 L 859.15380859375 866" stroke-miterlimit="10"/></g><g transform="translate(-22,-150) scale(1,1)"><g><path fill="none" stroke="none"/><text fill="#000000" stroke="none" font-family="Arial" font-size="13px" font-style="normal" font-weight="bold" text-decoration="none" x="549.531494140625" y="835.5">GetGameDetails</text></g></g><g transform="translate(-22,-150) scale(1,1)"><g><path fill="none" stroke="none"/><text fill="#000000" stroke="none" font-family="Arial" font-size="13px" font-style="normal" font-weight="normal" text-decoration="none" x="549.176025390625" y="850.5">(from Strategies)</text></g></g><g transform="translate(-22,-150) scale(1,1)"><g><path fill="none" stroke="none"/><text fill="#000000" stroke="none" font-family="Arial" font-size="13px" font-style="normal" font-weight="normal" text-decoration="none" x="341" y="883.5">+HandleRequest(header: Header, clientSocketHandler: ISocketHandler): LogGameModel</text></g></g><g transform="translate(-22,-150) scale(1,1)"><path fill="none" stroke="#000000" d="M 859 852 L 912 852 L 912 423" stroke-miterlimit="10"/></g><g transform="translate(-22,-150) scale(1,1)"><path fill="#FFFFFF" stroke="none" d="M 920.419035512032 443.3253497152483 L 912 423 L 903.580964487968 443.3253497152483"/></g><g transform="translate(-22,-150) scale(1,1)"><path fill="none" stroke="#000000" d="M 920.419035512032 443.3253497152483 L 912 423 L 903.580964487968 443.3253497152483 L 920.419035512032 443.3253497152483" stroke-miterlimit="10"/></g><g transform="translate(-22,-150) scale(1,1)"><rect fill="#C0C0C0" stroke="none" x="343" y="911" width="523.15380859375" height="72" opacity="0.2"/></g><g transform="translate(-22,-150) scale(1,1)"><rect fill="#ffffff" stroke="none" x="336" y="904" width="523.15380859375" height="72"/></g><g transform="translate(-22,-150) scale(1,1)"><path fill="none" stroke="#000000" d="M 336 904 L 859.15380859375 904 L 859.15380859375 976 L 336 976 L 336 904 Z Z" stroke-miterlimit="10"/></g><g transform="translate(-22,-150) scale(1,1)"><path fill="none" stroke="#000000" d="M 336 944 L 859.15380859375 944" stroke-miterlimit="10"/></g><g transform="translate(-22,-150) scale(1,1)"><path fill="none" stroke="#000000" d="M 336 954 L 859.15380859375 954" stroke-miterlimit="10"/></g><g transform="translate(-22,-150) scale(1,1)"><g><path fill="none" stroke="none"/><text fill="#000000" stroke="none" font-family="Arial" font-size="13px" font-style="normal" font-weight="bold" text-decoration="none" x="551.334228515625" y="923.5">GetGameImage</text></g></g><g transform="translate(-22,-150) scale(1,1)"><g><path fill="none" stroke="none"/><text fill="#000000" stroke="none" font-family="Arial" font-size="13px" font-style="normal" font-weight="normal" text-decoration="none" x="549.176025390625" y="938.5">(from Strategies)</text></g></g><g transform="translate(-22,-150) scale(1,1)"><g><path fill="none" stroke="none"/><text fill="#000000" stroke="none" font-family="Arial" font-size="13px" font-style="normal" font-weight="normal" text-decoration="none" x="341" y="971.5">+HandleRequest(header: Header, clientSocketHandler: ISocketHandler): LogGameModel</text></g></g><g transform="translate(-22,-150) scale(1,1)"><path fill="none" stroke="#000000" d="M 859 940 L 928 940 L 928 423" stroke-miterlimit="10"/></g><g transform="translate(-22,-150) scale(1,1)"><path fill="#FFFFFF" stroke="none" d="M 936.419035512032 443.3253497152483 L 928 423 L 919.580964487968 443.3253497152483"/></g><g transform="translate(-22,-150) scale(1,1)"><path fill="none" stroke="#000000" d="M 936.419035512032 443.3253497152483 L 928 423 L 919.580964487968 443.3253497152483 L 936.419035512032 443.3253497152483" stroke-miterlimit="10"/></g><g transform="translate(-22,-150) scale(1,1)"><rect fill="#C0C0C0" stroke="none" x="1167" y="543" width="523.15380859375" height="72" opacity="0.2"/></g><g transform="translate(-22,-150) scale(1,1)"><rect fill="#ffffff" stroke="none" x="1160" y="536" width="523.15380859375" height="72"/></g><g transform="translate(-22,-150) scale(1,1)"><path fill="none" stroke="#000000" d="M 1160 536 L 1683.15380859375 536 L 1683.15380859375 608 L 1160 608 L 1160 536 Z Z" stroke-miterlimit="10"/></g><g transform="translate(-22,-150) scale(1,1)"><path fill="none" stroke="#000000" d="M 1160 576 L 1683.15380859375 576" stroke-miterlimit="10"/></g><g transform="translate(-22,-150) scale(1,1)"><path fill="none" stroke="#000000" d="M 1160 586 L 1683.15380859375 586" stroke-miterlimit="10"/></g><g transform="translate(-22,-150) scale(1,1)"><g><path fill="none" stroke="none"/><text fill="#000000" stroke="none" font-family="Arial" font-size="13px" font-style="normal" font-weight="bold" text-decoration="none" x="1368.83740234375" y="555.5">ListFilteredGames</text></g></g><g transform="translate(-22,-150) scale(1,1)"><g><path fill="none" stroke="none"/><text fill="#000000" stroke="none" font-family="Arial" font-size="13px" font-style="normal" font-weight="normal" text-decoration="none" x="1373.176025390625" y="570.5">(from Strategies)</text></g></g><g transform="translate(-22,-150) scale(1,1)"><g><path fill="none" stroke="none"/><text fill="#000000" stroke="none" font-family="Arial" font-size="13px" font-style="normal" font-weight="normal" text-decoration="none" x="1165" y="603.5">+HandleRequest(header: Header, clientSocketHandler: ISocketHandler): LogGameModel</text></g></g><g transform="translate(-22,-150) scale(1,1)"><path fill="none" stroke="#000000" d="M 1160 572 L 1152 572 L 1152 423" stroke-miterlimit="10"/></g><g transform="translate(-22,-150) scale(1,1)"><path fill="#FFFFFF" stroke="none" d="M 1160.419035512032 443.3253497152483 L 1152 423 L 1143.580964487968 443.3253497152483"/></g><g transform="translate(-22,-150) scale(1,1)"><path fill="none" stroke="#000000" d="M 1160.419035512032 443.3253497152483 L 1152 423 L 1143.580964487968 443.3253497152483 L 1160.419035512032 443.3253497152483" stroke-miterlimit="10"/></g><g transform="translate(-22,-150) scale(1,1)"><rect fill="#C0C0C0" stroke="none" x="1167" y="631" width="523.15380859375" height="72" opacity="0.2"/></g><g transform="translate(-22,-150) scale(1,1)"><rect fill="#ffffff" stroke="none" x="1160" y="624" width="523.15380859375" height="72"/></g><g transform="translate(-22,-150) scale(1,1)"><path fill="none" stroke="#000000" d="M 1160 624 L 1683.15380859375 624 L 1683.15380859375 696 L 1160 696 L 1160 624 Z Z" stroke-miterlimit="10"/></g><g transform="translate(-22,-150) scale(1,1)"><path fill="none" stroke="#000000" d="M 1160 664 L 1683.15380859375 664" stroke-miterlimit="10"/></g><g transform="translate(-22,-150) scale(1,1)"><path fill="none" stroke="#000000" d="M 1160 674 L 1683.15380859375 674" stroke-miterlimit="10"/></g><g transform="translate(-22,-150) scale(1,1)"><g><path fill="none" stroke="none"/><text fill="#000000" stroke="none" font-family="Arial" font-size="13px" font-style="normal" font-weight="bold" text-decoration="none" x="1390.511474609375" y="643.5">ListGames</text></g></g><g transform="translate(-22,-150) scale(1,1)"><g><path fill="none" stroke="none"/><text fill="#000000" stroke="none" font-family="Arial" font-size="13px" font-style="normal" font-weight="normal" text-decoration="none" x="1373.176025390625" y="658.5">(from Strategies)</text></g></g><g transform="translate(-22,-150) scale(1,1)"><g><path fill="none" stroke="none"/><text fill="#000000" stroke="none" font-family="Arial" font-size="13px" font-style="normal" font-weight="normal" text-decoration="none" x="1165" y="691.5">+HandleRequest(header: Header, clientSocketHandler: ISocketHandler): LogGameModel</text></g></g><g transform="translate(-22,-150) scale(1,1)"><path fill="none" stroke="#000000" d="M 1160 660 L 1136 660 L 1136 423" stroke-miterlimit="10"/></g><g transform="translate(-22,-150) scale(1,1)"><path fill="#FFFFFF" stroke="none" d="M 1144.419035512032 443.3253497152483 L 1136 423 L 1127.580964487968 443.3253497152483"/></g><g transform="translate(-22,-150) scale(1,1)"><path fill="none" stroke="#000000" d="M 1144.419035512032 443.3253497152483 L 1136 423 L 1127.580964487968 443.3253497152483 L 1144.419035512032 443.3253497152483" stroke-miterlimit="10"/></g><g transform="translate(-22,-150) scale(1,1)"><rect fill="#C0C0C0" stroke="none" x="1167" y="719" width="523.15380859375" height="72" opacity="0.2"/></g><g transform="translate(-22,-150) scale(1,1)"><rect fill="#ffffff" stroke="none" x="1160" y="712" width="523.15380859375" height="72"/></g><g transform="translate(-22,-150) scale(1,1)"><path fill="none" stroke="#000000" d="M 1160 712 L 1683.15380859375 712 L 1683.15380859375 784 L 1160 784 L 1160 712 Z Z" stroke-miterlimit="10"/></g><g transform="translate(-22,-150) scale(1,1)"><path fill="none" stroke="#000000" d="M 1160 752 L 1683.15380859375 752" stroke-miterlimit="10"/></g><g transform="translate(-22,-150) scale(1,1)"><path fill="none" stroke="#000000" d="M 1160 762 L 1683.15380859375 762" stroke-miterlimit="10"/></g><g transform="translate(-22,-150) scale(1,1)"><g><path fill="none" stroke="none"/><text fill="#000000" stroke="none" font-family="Arial" font-size="13px" font-style="normal" font-weight="bold" text-decoration="none" x="1369.91650390625" y="731.5">ListOwnedGames</text></g></g><g transform="translate(-22,-150) scale(1,1)"><g><path fill="none" stroke="none"/><text fill="#000000" stroke="none" font-family="Arial" font-size="13px" font-style="normal" font-weight="normal" text-decoration="none" x="1373.176025390625" y="746.5">(from Strategies)</text></g></g><g transform="translate(-22,-150) scale(1,1)"><g><path fill="none" stroke="none"/><text fill="#000000" stroke="none" font-family="Arial" font-size="13px" font-style="normal" font-weight="normal" text-decoration="none" x="1165" y="779.5">+HandleRequest(header: Header, clientSocketHandler: ISocketHandler): LogGameModel</text></g></g><g transform="translate(-22,-150) scale(1,1)"><path fill="none" stroke="#000000" d="M 1160 748 L 1120 748 L 1120 423" stroke-miterlimit="10"/></g><g transform="translate(-22,-150) scale(1,1)"><path fill="#FFFFFF" stroke="none" d="M 1128.419035512032 443.3253497152483 L 1120 423 L 1111.580964487968 443.3253497152483"/></g><g transform="translate(-22,-150) scale(1,1)"><path fill="none" stroke="#000000" d="M 1128.419035512032 443.3253497152483 L 1120 423 L 1111.580964487968 443.3253497152483 L 1128.419035512032 443.3253497152483" stroke-miterlimit="10"/></g><g transform="translate(-22,-150) scale(1,1)"><rect fill="#C0C0C0" stroke="none" x="1167" y="815" width="523.15380859375" height="72" opacity="0.2"/></g><g transform="translate(-22,-150) scale(1,1)"><rect fill="#ffffff" stroke="none" x="1160" y="808" width="523.15380859375" height="72"/></g><g transform="translate(-22,-150) scale(1,1)"><path fill="none" stroke="#000000" d="M 1160 808 L 1683.15380859375 808 L 1683.15380859375 880 L 1160 880 L 1160 808 Z Z" stroke-miterlimit="10"/></g><g transform="translate(-22,-150) scale(1,1)"><path fill="none" stroke="#000000" d="M 1160 848 L 1683.15380859375 848" stroke-miterlimit="10"/></g><g transform="translate(-22,-150) scale(1,1)"><path fill="none" stroke="#000000" d="M 1160 858 L 1683.15380859375 858" stroke-miterlimit="10"/></g><g transform="translate(-22,-150) scale(1,1)"><g><path fill="none" stroke="none"/><text fill="#000000" stroke="none" font-family="Arial" font-size="13px" font-style="normal" font-weight="bold" text-decoration="none" x="1405.6728515625" y="827.5">Login</text></g></g><g transform="translate(-22,-150) scale(1,1)"><g><path fill="none" stroke="none"/><text fill="#000000" stroke="none" font-family="Arial" font-size="13px" font-style="normal" font-weight="normal" text-decoration="none" x="1373.176025390625" y="842.5">(from Strategies)</text></g></g><g transform="translate(-22,-150) scale(1,1)"><g><path fill="none" stroke="none"/><text fill="#000000" stroke="none" font-family="Arial" font-size="13px" font-style="normal" font-weight="normal" text-decoration="none" x="1165" y="875.5">+HandleRequest(header: Header, clientSocketHandler: ISocketHandler): LogGameModel</text></g></g><g transform="translate(-22,-150) scale(1,1)"><path fill="none" stroke="#000000" d="M 1160 844 L 1104 844 L 1104 423" stroke-miterlimit="10"/></g><g transform="translate(-22,-150) scale(1,1)"><path fill="#FFFFFF" stroke="none" d="M 1112.419035512032 443.3253497152483 L 1104 423 L 1095.580964487968 443.3253497152483"/></g><g transform="translate(-22,-150) scale(1,1)"><path fill="none" stroke="#000000" d="M 1112.419035512032 443.3253497152483 L 1104 423 L 1095.580964487968 443.3253497152483 L 1112.419035512032 443.3253497152483" stroke-miterlimit="10"/></g><g transform="translate(-22,-150) scale(1,1)"><rect fill="#C0C0C0" stroke="none" x="1167" y="911" width="523.15380859375" height="72" opacity="0.2"/></g><g transform="translate(-22,-150) scale(1,1)"><rect fill="#ffffff" stroke="none" x="1160" y="904" width="523.15380859375" height="72"/></g><g transform="translate(-22,-150) scale(1,1)"><path fill="none" stroke="#000000" d="M 1160 904 L 1683.15380859375 904 L 1683.15380859375 976 L 1160 976 L 1160 904 Z Z" stroke-miterlimit="10"/></g><g transform="translate(-22,-150) scale(1,1)"><path fill="none" stroke="#000000" d="M 1160 944 L 1683.15380859375 944" stroke-miterlimit="10"/></g><g transform="translate(-22,-150) scale(1,1)"><path fill="none" stroke="#000000" d="M 1160 954 L 1683.15380859375 954" stroke-miterlimit="10"/></g><g transform="translate(-22,-150) scale(1,1)"><g><path fill="none" stroke="none"/><text fill="#000000" stroke="none" font-family="Arial" font-size="13px" font-style="normal" font-weight="bold" text-decoration="none" x="1401.696044921875" y="923.5">Logout</text></g></g><g transform="translate(-22,-150) scale(1,1)"><g><path fill="none" stroke="none"/><text fill="#000000" stroke="none" font-family="Arial" font-size="13px" font-style="normal" font-weight="normal" text-decoration="none" x="1373.176025390625" y="938.5">(from Strategies)</text></g></g><g transform="translate(-22,-150) scale(1,1)"><g><path fill="none" stroke="none"/><text fill="#000000" stroke="none" font-family="Arial" font-size="13px" font-style="normal" font-weight="normal" text-decoration="none" x="1165" y="971.5">+HandleRequest(header: Header, clientSocketHandler: ISocketHandler): LogGameModel</text></g></g><g transform="translate(-22,-150) scale(1,1)"><path fill="none" stroke="#000000" d="M 1160 940 L 1088 940 L 1088 423" stroke-miterlimit="10"/></g><g transform="translate(-22,-150) scale(1,1)"><path fill="#FFFFFF" stroke="none" d="M 1096.419035512032 443.3253497152483 L 1088 423 L 1079.580964487968 443.3253497152483"/></g><g transform="translate(-22,-150) scale(1,1)"><path fill="none" stroke="#000000" d="M 1096.419035512032 443.3253497152483 L 1088 423 L 1079.580964487968 443.3253497152483 L 1096.419035512032 443.3253497152483" stroke-miterlimit="10"/></g><g transform="translate(-22,-150) scale(1,1)"><rect fill="#C0C0C0" stroke="none" x="1167" y="999" width="523.15380859375" height="117" opacity="0.2"/></g><g transform="translate(-22,-150) scale(1,1)"><rect fill="#ffffff" stroke="none" x="1160" y="992" width="523.15380859375" height="117"/></g><g transform="translate(-22,-150) scale(1,1)"><path fill="none" stroke="#000000" d="M 1160 992 L 1683.15380859375 992 L 1683.15380859375 1109 L 1160 1109 L 1160 992 Z Z" stroke-miterlimit="10"/></g><g transform="translate(-22,-150) scale(1,1)"><path fill="none" stroke="#000000" d="M 1160 1032 L 1683.15380859375 1032" stroke-miterlimit="10"/></g><g transform="translate(-22,-150) scale(1,1)"><path fill="none" stroke="#000000" d="M 1160 1042 L 1683.15380859375 1042" stroke-miterlimit="10"/></g><g transform="translate(-22,-150) scale(1,1)"><g><path fill="none" stroke="none"/><text fill="#000000" stroke="none" font-family="Arial" font-size="13px" font-style="normal" font-weight="bold" text-decoration="none" x="1356.183349609375" y="1011.5">ModifyGamePublished</text></g></g><g transform="translate(-22,-150) scale(1,1)"><g><path fill="none" stroke="none"/><text fill="#000000" stroke="none" font-family="Arial" font-size="13px" font-style="normal" font-weight="normal" text-decoration="none" x="1373.176025390625" y="1026.5">(from Strategies)</text></g></g><g transform="translate(-22,-150) scale(1,1)"><g><path fill="none" stroke="none"/><text fill="#000000" stroke="none" font-family="Arial" font-size="13px" font-style="normal" font-weight="normal" text-decoration="none" x="1165" y="1059.5">+HandleRequest(header: Header, clientSocketHandler: ISocketHandler): LogGameModel</text></g></g><g transform="translate(-22,-150) scale(1,1)"><g><path fill="none" stroke="none"/><text fill="#000000" stroke="none" font-family="Arial" font-size="13px" font-style="normal" font-weight="normal" text-decoration="none" x="1165" y="1074.5">-ModifyGame(newGame: Game, user: User, oldGameName: string): string</text></g></g><g transform="translate(-22,-150) scale(1,1)"><g><path fill="none" stroke="none"/><text fill="#000000" stroke="none" font-family="Arial" font-size="13px" font-style="normal" font-weight="normal" text-decoration="none" x="1165" y="1089.5">-UpdateImage(clientSocketHandler: ISocketHandler, gameName: string): string</text></g></g><g transform="translate(-22,-150) scale(1,1)"><g><path fill="none" stroke="none"/><text fill="#000000" stroke="none" font-family="Arial" font-size="13px" font-style="normal" font-weight="normal" text-decoration="none" x="1165" y="1104.5">-DeletePreviousImage(gameToModify: Game, newGame: Game): void</text></g></g><g transform="translate(-22,-150) scale(1,1)"><path fill="none" stroke="#000000" d="M 1160 1050 L 1072 1050 L 1072 423" stroke-miterlimit="10"/></g><g transform="translate(-22,-150) scale(1,1)"><path fill="#FFFFFF" stroke="none" d="M 1080.419035512032 443.3253497152483 L 1072 423 L 1063.580964487968 443.3253497152483"/></g><g transform="translate(-22,-150) scale(1,1)"><path fill="none" stroke="#000000" d="M 1080.419035512032 443.3253497152483 L 1072 423 L 1063.580964487968 443.3253497152483 L 1080.419035512032 443.3253497152483" stroke-miterlimit="10"/></g><g transform="translate(-22,-150) scale(1,1)"><rect fill="#C0C0C0" stroke="none" x="727" y="167" width="340.2841796875" height="85" opacity="0.2"/></g><g transform="translate(-22,-150) scale(1,1)"><rect fill="#ffffff" stroke="none" x="720" y="160" width="340.2841796875" height="85"/></g><g transform="translate(-22,-150) scale(1,1)"><path fill="none" stroke="#000000" d="M 720 160 L 1060.2841796875 160 L 1060.2841796875 245 L 720 245 L 720 160 Z Z" stroke-miterlimit="10"/></g><g transform="translate(-22,-150) scale(1,1)"><path fill="none" stroke="#000000" d="M 720 200 L 1060.2841796875 200" stroke-miterlimit="10"/></g><g transform="translate(-22,-150) scale(1,1)"><path fill="none" stroke="#000000" d="M 720 223 L 1060.2841796875 223" stroke-miterlimit="10"/></g><g transform="translate(-22,-150) scale(1,1)"><g><path fill="none" stroke="none"/><text fill="#000000" stroke="none" font-family="Arial" font-size="13px" font-style="normal" font-weight="bold" text-decoration="none" x="838.488037109375" y="179.5">CommandFactory</text></g></g><g transform="translate(-22,-150) scale(1,1)"><g><path fill="none" stroke="none"/><text fill="#000000" stroke="none" font-family="Arial" font-size="13px" font-style="normal" font-weight="normal" text-decoration="none" x="849.336181640625" y="194.5">(from Factory)</text></g></g><g transform="translate(-22,-150) scale(1,1)"><g><path fill="none" stroke="none"/><text fill="#000000" stroke="none" font-family="Arial" font-size="13px" font-style="normal" font-weight="normal" text-decoration="none" x="725" y="217.5">-_commandMap: Dictionary&lt;int, CommandStrategy&gt;</text><path fill="none" stroke="#000000" d="M 725 217.5 L 1028.46240234375 217.5" stroke-miterlimit="10"/></g></g><g transform="translate(-22,-150) scale(1,1)"><g><path fill="none" stroke="none"/><text fill="#000000" stroke="none" font-family="Arial" font-size="13px" font-style="normal" font-weight="normal" text-decoration="none" x="725" y="240.5">+GetStrategy(commandConstant: int): CommandStrategy</text><path fill="none" stroke="#000000" d="M 725 240.5 L 1056.2841796875 240.5" stroke-miterlimit="10"/></g></g><g transform="translate(-22,-150) scale(1,1)"><path fill="none" stroke="#000000" d="M 888 245 L 888 336" stroke-miterlimit="10" stroke-dasharray="3"/></g><g transform="translate(-22,-150) scale(1,1)"><path fill="none" stroke="#000000" d="M 883.790482243984 325.83732514237585 L 888 336 L 892.209517756016 325.83732514237585" stroke-miterlimit="10"/></g><g transform="translate(-22,-150) scale(1,1)"><path fill="none" stroke="#000000" d="M 720 216 L 320 216 L 320 576 L 336 576" stroke-miterlimit="10" stroke-dasharray="3"/></g><g transform="translate(-22,-150) scale(1,1)"><path fill="none" stroke="#000000" d="M 325.83732514237585 580.209517756016 L 336 576 L 325.83732514237585 571.790482243984" stroke-miterlimit="10"/></g><g transform="translate(-22,-150) scale(1,1)"><path fill="none" stroke="#000000" d="M 720 208 L 312 208 L 312 700 L 336 700" stroke-miterlimit="10" stroke-dasharray="3"/></g><g transform="translate(-22,-150) scale(1,1)"><path fill="none" stroke="#000000" d="M 325.83732514237585 704.209517756016 L 336 700 L 325.83732514237585 695.790482243984" stroke-miterlimit="10"/></g><g transform="translate(-22,-150) scale(1,1)"><path fill="none" stroke="#000000" d="M 720 200 L 304 200 L 304 788 L 336 788" stroke-miterlimit="10" stroke-dasharray="3"/></g><g transform="translate(-22,-150) scale(1,1)"><path fill="none" stroke="#000000" d="M 325.83732514237585 792.209517756016 L 336 788 L 325.83732514237585 783.790482243984" stroke-miterlimit="10"/></g><g transform="translate(-22,-150) scale(1,1)"><path fill="none" stroke="#000000" d="M 720 192 L 296 192 L 296 840 L 336 840" stroke-miterlimit="10" stroke-dasharray="3"/></g><g transform="translate(-22,-150) scale(1,1)"><path fill="none" stroke="#000000" d="M 325.83732514237585 844.209517756016 L 336 840 L 325.83732514237585 835.790482243984" stroke-miterlimit="10"/></g><g transform="translate(-22,-150) scale(1,1)"><path fill="none" stroke="#000000" d="M 720 184 L 288 184 L 288 936 L 336 936" stroke-miterlimit="10" stroke-dasharray="3"/></g><g transform="translate(-22,-150) scale(1,1)"><path fill="none" stroke="#000000" d="M 325.83732514237585 940.209517756016 L 336 936 L 325.83732514237585 931.790482243984" stroke-miterlimit="10"/></g><g transform="translate(-22,-150) scale(1,1)"><path fill="none" stroke="#000000" d="M 1060 232 L 1680 232 L 1680 536" stroke-miterlimit="10" stroke-dasharray="3"/></g><g transform="translate(-22,-150) scale(1,1)"><path fill="none" stroke="#000000" d="M 1675.7904822439841 525.8373251423759 L 1680 536 L 1684.2095177560159 525.8373251423759" stroke-miterlimit="10"/></g><g transform="translate(-22,-150) scale(1,1)"><path fill="none" stroke="#000000" d="M 1060 224 L 1696 224 L 1696 664 L 1683 664" stroke-miterlimit="10" stroke-dasharray="3"/></g><g transform="translate(-22,-150) scale(1,1)"><path fill="none" stroke="#000000" d="M 1693.162674857624 659.790482243984 L 1683 664 L 1693.162674857624 668.209517756016" stroke-miterlimit="10"/></g><g transform="translate(-22,-150) scale(1,1)"><path fill="none" stroke="#000000" d="M 1060 216 L 1704 216 L 1704 728 L 1683 728" stroke-miterlimit="10" stroke-dasharray="3"/></g><g transform="translate(-22,-150) scale(1,1)"><path fill="none" stroke="#000000" d="M 1693.162674857624 723.790482243984 L 1683 728 L 1693.162674857624 732.209517756016" stroke-miterlimit="10"/></g><g transform="translate(-22,-150) scale(1,1)"><path fill="none" stroke="#000000" d="M 1060 208 L 1712 208 L 1712 824 L 1683 824" stroke-miterlimit="10" stroke-dasharray="3"/></g><g transform="translate(-22,-150) scale(1,1)"><path fill="none" stroke="#000000" d="M 1693.162674857624 819.790482243984 L 1683 824 L 1693.162674857624 828.209517756016" stroke-miterlimit="10"/></g><g transform="translate(-22,-150) scale(1,1)"><path fill="none" stroke="#000000" d="M 1060 200 L 1720 200 L 1720 920 L 1683 920" stroke-miterlimit="10" stroke-dasharray="3"/></g><g transform="translate(-22,-150) scale(1,1)"><path fill="none" stroke="#000000" d="M 1693.162674857624 915.790482243984 L 1683 920 L 1693.162674857624 924.209517756016" stroke-miterlimit="10"/></g><g transform="translate(-22,-150) scale(1,1)"><path fill="none" stroke="#000000" d="M 1060 192 L 1728 192 L 1728 1000 L 1683 1000" stroke-miterlimit="10" stroke-dasharray="3"/></g><g transform="translate(-22,-150) scale(1,1)"><path fill="none" stroke="#000000" d="M 1693.162674857624 995.790482243984 L 1683 1000 L 1693.162674857624 1004.209517756016" stroke-miterlimit="10"/></g><g transform="translate(-22,-150) scale(1,1)"><rect fill="#C0C0C0" stroke="none" x="55" y="535" width="195.38623046875" height="59" opacity="0.2"/></g><g transform="translate(-22,-150) scale(1,1)"><rect fill="#ffffff" stroke="none" x="48" y="528" width="195.38623046875" height="59"/></g><g transform="translate(-22,-150) scale(1,1)"><path fill="none" stroke="#000000" d="M 48 528 L 243.38623046875 528 L 243.38623046875 587 L 48 587 L 48 528 Z Z" stroke-miterlimit="10"/></g><g transform="translate(-22,-150) scale(1,1)"><path fill="none" stroke="#000000" d="M 48 568 L 243.38623046875 568" stroke-miterlimit="10"/></g><g transform="translate(-22,-150) scale(1,1)"><path fill="none" stroke="#000000" d="M 48 578 L 243.38623046875 578" stroke-miterlimit="10"/></g><g transform="translate(-22,-150) scale(1,1)"><g><path fill="none" stroke="none"/><text fill="#000000" stroke="none" font-family="Arial" font-size="13px" font-style="normal" font-weight="bold" text-decoration="none" x="58.61279296875" y="547.5">GameAlreadyAddedException</text></g></g><g transform="translate(-22,-150) scale(1,1)"><g><path fill="none" stroke="none"/><text fill="#000000" stroke="none" font-family="Arial" font-size="13px" font-style="normal" font-weight="normal" text-decoration="none" x="72.3681640625" y="562.5">(from CustomExceptions)</text></g></g><g transform="translate(-22,-150) scale(1,1)"><path fill="none" stroke="#000000" d="M 336 564 L 243 564" stroke-miterlimit="10" stroke-dasharray="3"/></g><g transform="translate(-22,-150) scale(1,1)"><path fill="none" stroke="#000000" d="M 253.16267485762415 559.790482243984 L 243 564 L 253.16267485762415 568.209517756016" stroke-miterlimit="10"/></g><g transform="translate(-22,-150) scale(1,1)"><rect fill="#C0C0C0" stroke="none" x="39" y="639" width="200.42626953125" height="59" opacity="0.2"/></g><g transform="translate(-22,-150) scale(1,1)"><rect fill="#ffffff" stroke="none" x="32" y="632" width="200.42626953125" height="59"/></g><g transform="translate(-22,-150) scale(1,1)"><path fill="none" stroke="#000000" d="M 32 632 L 232.42626953125 632 L 232.42626953125 691 L 32 691 L 32 632 Z Z" stroke-miterlimit="10"/></g><g transform="translate(-22,-150) scale(1,1)"><path fill="none" stroke="#000000" d="M 32 672 L 232.42626953125 672" stroke-miterlimit="10"/></g><g transform="translate(-22,-150) scale(1,1)"><path fill="none" stroke="#000000" d="M 32 682 L 232.42626953125 682" stroke-miterlimit="10"/></g><g transform="translate(-22,-150) scale(1,1)"><g><path fill="none" stroke="none"/><text fill="#000000" stroke="none" font-family="Arial" font-size="13px" font-style="normal" font-weight="bold" text-decoration="none" x="43.326904296875" y="651.5">GameAlreadyBoughtException</text></g></g><g transform="translate(-22,-150) scale(1,1)"><g><path fill="none" stroke="none"/><text fill="#000000" stroke="none" font-family="Arial" font-size="13px" font-style="normal" font-weight="normal" text-decoration="none" x="58.88818359375" y="666.5">(from CustomExceptions)</text></g></g><g transform="translate(-22,-150) scale(1,1)"><path fill="none" stroke="#000000" d="M 336 664 L 232 664" stroke-miterlimit="10" stroke-dasharray="3"/></g><g transform="translate(-22,-150) scale(1,1)"><path fill="none" stroke="#000000" d="M 242.16267485762415 659.790482243984 L 232 664 L 242.16267485762415 668.209517756016" stroke-miterlimit="10"/></g><g transform="translate(-22,-150) scale(1,1)"><rect fill="#C0C0C0" stroke="none" x="719" y="1151" width="155.64990234375" height="59" opacity="0.2"/></g><g transform="translate(-22,-150) scale(1,1)"><rect fill="#ffffff" stroke="none" x="712" y="1144" width="155.64990234375" height="59"/></g><g transform="translate(-22,-150) scale(1,1)"><path fill="none" stroke="#000000" d="M 712 1144 L 867.64990234375 1144 L 867.64990234375 1203 L 712 1203 L 712 1144 Z Z" stroke-miterlimit="10"/></g><g transform="translate(-22,-150) scale(1,1)"><path fill="none" stroke="#000000" d="M 712 1184 L 867.64990234375 1184" stroke-miterlimit="10"/></g><g transform="translate(-22,-150) scale(1,1)"><path fill="none" stroke="#000000" d="M 712 1194 L 867.64990234375 1194" stroke-miterlimit="10"/></g><g transform="translate(-22,-150) scale(1,1)"><g><path fill="none" stroke="none"/><text fill="#000000" stroke="none" font-family="Arial" font-size="13px" font-style="normal" font-weight="bold" text-decoration="none" x="724.7900390625" y="1163.5">InvalidGameException</text></g></g><g transform="translate(-22,-150) scale(1,1)"><g><path fill="none" stroke="none"/><text fill="#000000" stroke="none" font-family="Arial" font-size="13px" font-style="normal" font-weight="normal" text-decoration="none" x="716.5" y="1178.5">(from CustomExceptions)</text></g></g><g transform="translate(-22,-150) scale(1,1)"><rect fill="#C0C0C0" stroke="none" x="343" y="991" width="523.15380859375" height="72" opacity="0.2"/></g><g transform="translate(-22,-150) scale(1,1)"><rect fill="#ffffff" stroke="none" x="336" y="984" width="523.15380859375" height="72"/></g><g transform="translate(-22,-150) scale(1,1)"><path fill="none" stroke="#000000" d="M 336 984 L 859.15380859375 984 L 859.15380859375 1056 L 336 1056 L 336 984 Z Z" stroke-miterlimit="10"/></g><g transform="translate(-22,-150) scale(1,1)"><path fill="none" stroke="#000000" d="M 336 1024 L 859.15380859375 1024" stroke-miterlimit="10"/></g><g transform="translate(-22,-150) scale(1,1)"><path fill="none" stroke="#000000" d="M 336 1034 L 859.15380859375 1034" stroke-miterlimit="10"/></g><g transform="translate(-22,-150) scale(1,1)"><g><path fill="none" stroke="none"/><text fill="#000000" stroke="none" font-family="Arial" font-size="13px" font-style="normal" font-weight="bold" text-decoration="none" x="558.564208984375" y="1003.5">ReviewGame</text></g></g><g transform="translate(-22,-150) scale(1,1)"><g><path fill="none" stroke="none"/><text fill="#000000" stroke="none" font-family="Arial" font-size="13px" font-style="normal" font-weight="normal" text-decoration="none" x="549.176025390625" y="1018.5">(from Strategies)</text></g></g><g transform="translate(-22,-150) scale(1,1)"><g><path fill="none" stroke="none"/><text fill="#000000" stroke="none" font-family="Arial" font-size="13px" font-style="normal" font-weight="normal" text-decoration="none" x="341" y="1051.5">+HandleRequest(header: Header, clientSocketHandler: ISocketHandler): LogGameModel</text></g></g><g transform="translate(-22,-150) scale(1,1)"><path fill="none" stroke="#000000" d="M 859 1036 L 944 1036 L 944 423" stroke-miterlimit="10"/></g><g transform="translate(-22,-150) scale(1,1)"><path fill="#FFFFFF" stroke="none" d="M 952.419035512032 443.3253497152483 L 944 423 L 935.580964487968 443.3253497152483"/></g><g transform="translate(-22,-150) scale(1,1)"><path fill="none" stroke="#000000" d="M 952.419035512032 443.3253497152483 L 944 423 L 935.580964487968 443.3253497152483 L 952.419035512032 443.3253497152483" stroke-miterlimit="10"/></g><g transform="translate(-22,-150) scale(1,1)"><path fill="none" stroke="#000000" d="M 781 1056 L 781 1144" stroke-miterlimit="10" stroke-dasharray="3"/></g><g transform="translate(-22,-150) scale(1,1)"><path fill="none" stroke="#000000" d="M 776.790482243984 1133.837325142376 L 781 1144 L 785.209517756016 1133.837325142376" stroke-miterlimit="10"/></g><g transform="translate(-22,-150) scale(1,1)"><path fill="none" stroke="#000000" d="M 1160 696 L 1160 840 L 984 840 L 984 1184 L 868 1184" stroke-miterlimit="10" stroke-dasharray="3"/></g><g transform="translate(-22,-150) scale(1,1)"><path fill="none" stroke="#000000" d="M 878.1626748576241 1179.7904822439841 L 868 1184 L 878.1626748576241 1188.2095177560159" stroke-miterlimit="10"/></g><g transform="translate(-22,-150) scale(1,1)"><path fill="none" stroke="#000000" d="M 859 888 L 912 888 L 912 1160 L 868 1160" stroke-miterlimit="10" stroke-dasharray="3"/></g><g transform="translate(-22,-150) scale(1,1)"><path fill="none" stroke="#000000" d="M 878.1626748576241 1155.7904822439841 L 868 1160 L 878.1626748576241 1164.2095177560159" stroke-miterlimit="10"/></g><g transform="translate(-22,-150) scale(1,1)"><path fill="none" stroke="#000000" d="M 1160 608 L 1000 608 L 1000 1200 L 868 1200" stroke-miterlimit="10" stroke-dasharray="3"/></g><g transform="translate(-22,-150) scale(1,1)"><path fill="none" stroke="#000000" d="M 878.1626748576241 1195.7904822439841 L 868 1200 L 878.1626748576241 1204.2095177560159" stroke-miterlimit="10"/></g><g transform="translate(-22,-150) scale(1,1)"><path fill="none" stroke="#000000" d="M 859 800 L 968 800 L 968 1168 L 868 1168" stroke-miterlimit="10" stroke-dasharray="3"/></g><g transform="translate(-22,-150) scale(1,1)"><path fill="none" stroke="#000000" d="M 878.1626748576241 1163.7904822439841 L 868 1168 L 878.1626748576241 1172.2095177560159" stroke-miterlimit="10"/></g><g transform="translate(-22,-150) scale(1,1)"><path fill="none" stroke="#000000" d="M 859 960 L 896 960 L 896 1144 L 868 1144" stroke-miterlimit="10" stroke-dasharray="3"/></g><g transform="translate(-22,-150) scale(1,1)"><path fill="none" stroke="#000000" d="M 878.1626748576241 1139.7904822439841 L 868 1144 L 878.1626748576241 1148.2095177560159" stroke-miterlimit="10"/></g><g transform="translate(-22,-150) scale(1,1)"><path fill="none" stroke="#000000" d="M 859 712 L 976 712 L 976 1176 L 868 1176" stroke-miterlimit="10" stroke-dasharray="3"/></g><g transform="translate(-22,-150) scale(1,1)"><path fill="none" stroke="#000000" d="M 878.1626748576241 1171.7904822439841 L 868 1176 L 878.1626748576241 1180.2095177560159" stroke-miterlimit="10"/></g><g transform="translate(-22,-150) scale(1,1)"><rect fill="#C0C0C0" stroke="none" x="55" y="999" width="197.54443359375" height="59" opacity="0.2"/></g><g transform="translate(-22,-150) scale(1,1)"><rect fill="#ffffff" stroke="none" x="48" y="992" width="197.54443359375" height="59"/></g><g transform="translate(-22,-150) scale(1,1)"><path fill="none" stroke="#000000" d="M 48 992 L 245.54443359375 992 L 245.54443359375 1051 L 48 1051 L 48 992 Z Z" stroke-miterlimit="10"/></g><g transform="translate(-22,-150) scale(1,1)"><path fill="none" stroke="#000000" d="M 48 1032 L 245.54443359375 1032" stroke-miterlimit="10"/></g><g transform="translate(-22,-150) scale(1,1)"><path fill="none" stroke="#000000" d="M 48 1042 L 245.54443359375 1042" stroke-miterlimit="10"/></g><g transform="translate(-22,-150) scale(1,1)"><g><path fill="none" stroke="none"/><text fill="#000000" stroke="none" font-family="Arial" font-size="13px" font-style="normal" font-weight="bold" text-decoration="none" x="59.33642578125" y="1011.5">InvalidReviewRatingException</text></g></g><g transform="translate(-22,-150) scale(1,1)"><g><path fill="none" stroke="none"/><text fill="#000000" stroke="none" font-family="Arial" font-size="13px" font-style="normal" font-weight="normal" text-decoration="none" x="73.447265625" y="1026.5">(from CustomExceptions)</text></g></g><g transform="translate(-22,-150) scale(1,1)"><path fill="none" stroke="#000000" d="M 336 1024 L 246 1024" stroke-miterlimit="10" stroke-dasharray="3"/></g><g transform="translate(-22,-150) scale(1,1)"><path fill="none" stroke="#000000" d="M 256.16267485762415 1019.790482243984 L 246 1024 L 256.16267485762415 1028.2095177560159" stroke-miterlimit="10"/></g><g transform="translate(-22,-150) scale(1,1)"><rect fill="#C0C0C0" stroke="none" x="1095" y="1159" width="175.1689453125" height="59" opacity="0.2"/></g><g transform="translate(-22,-150) scale(1,1)"><rect fill="#ffffff" stroke="none" x="1088" y="1152" width="175.1689453125" height="59"/></g><g transform="translate(-22,-150) scale(1,1)"><path fill="none" stroke="#000000" d="M 1088 1152 L 1263.1689453125 1152 L 1263.1689453125 1211 L 1088 1211 L 1088 1152 Z Z" stroke-miterlimit="10"/></g><g transform="translate(-22,-150) scale(1,1)"><path fill="none" stroke="#000000" d="M 1088 1192 L 1263.1689453125 1192" stroke-miterlimit="10"/></g><g transform="translate(-22,-150) scale(1,1)"><path fill="none" stroke="#000000" d="M 1088 1202 L 1263.1689453125 1202" stroke-miterlimit="10"/></g><g transform="translate(-22,-150) scale(1,1)"><g><path fill="none" stroke="none"/><text fill="#000000" stroke="none" font-family="Arial" font-size="13px" font-style="normal" font-weight="bold" text-decoration="none" x="1098.266845703125" y="1171.5">InvalidUsernameException</text></g></g><g transform="translate(-22,-150) scale(1,1)"><g><path fill="none" stroke="none"/><text fill="#000000" stroke="none" font-family="Arial" font-size="13px" font-style="normal" font-weight="normal" text-decoration="none" x="1102.259521484375" y="1186.5">(from CustomExceptions)</text></g></g><g transform="translate(-22,-150) scale(1,1)"><path fill="none" stroke="#000000" d="M 859 579 L 1048 579 L 1048 1152 L 1088 1152" stroke-miterlimit="10" stroke-dasharray="3"/></g><g transform="translate(-22,-150) scale(1,1)"><path fill="none" stroke="#000000" d="M 1077.837325142376 1156.2095177560159 L 1088 1152 L 1077.837325142376 1147.7904822439841" stroke-miterlimit="10"/></g><g transform="translate(-22,-150) scale(1,1)"><path fill="none" stroke="#000000" d="M 859 704 L 1040 704 L 1040 1160 L 1088 1160" stroke-miterlimit="10" stroke-dasharray="3"/></g><g transform="translate(-22,-150) scale(1,1)"><path fill="none" stroke="#000000" d="M 1077.837325142376 1164.2095177560159 L 1088 1160 L 1077.837325142376 1155.7904822439841" stroke-miterlimit="10"/></g><g transform="translate(-22,-150) scale(1,1)"><path fill="none" stroke="#000000" d="M 859 784 L 1032 784 L 1032 1168 L 1088 1168" stroke-miterlimit="10" stroke-dasharray="3"/></g><g transform="translate(-22,-150) scale(1,1)"><path fill="none" stroke="#000000" d="M 1077.837325142376 1172.2095177560159 L 1088 1168 L 1077.837325142376 1163.7904822439841" stroke-miterlimit="10"/></g><g transform="translate(-22,-150) scale(1,1)"><path fill="none" stroke="#000000" d="M 859 1020 L 1016 1020 L 1016 1176 L 1088 1176" stroke-miterlimit="10" stroke-dasharray="3"/></g><g transform="translate(-22,-150) scale(1,1)"><path fill="none" stroke="#000000" d="M 1077.837325142376 1180.2095177560159 L 1088 1176 L 1077.837325142376 1171.7904822439841" stroke-miterlimit="10"/></g><g transform="translate(-22,-150) scale(1,1)"><path fill="none" stroke="#000000" d="M 1160 1096 L 1120 1096 L 1120 1152" stroke-miterlimit="10" stroke-dasharray="3"/></g><g transform="translate(-22,-150) scale(1,1)"><path fill="none" stroke="#000000" d="M 1115.7904822439841 1141.837325142376 L 1120 1152 L 1124.2095177560159 1141.837325142376" stroke-miterlimit="10"/></g></g></svg>