<svg version="1.1" xmlns="http://www.w3.org/2000/svg" xmlns:xlink="http://www.w3.org/1999/xlink" width="2622" height="1596"><defs/><g><g transform="translate(-2,10) scale(1,1)"><path fill="none" stroke="#000000" d="M 56 0 L 2424 0 L 2424 1576 L 56 1576 L 56 0" stroke-miterlimit="10"/></g><g transform="translate(-2,10) scale(1,1)"><path fill="#ffffff" stroke="none" d="M 56 0 L 56 22 L 176.76806640625 22 L 187.76806640625 11 L 187.76806640625 0 L 56 0"/></g><g transform="translate(-2,10) scale(1,1)"><path fill="none" stroke="#000000" d="M 56 0 L 56 22 L 176.76806640625 22 L 187.76806640625 11 L 187.76806640625 0 L 56 0 L 56 0" stroke-miterlimit="10"/></g><g transform="translate(-2,10) scale(1,1)"><g><path fill="none" stroke="none"/><text fill="#000000" stroke="none" font-family="Arial" font-size="13px" font-style="normal" font-weight="normal" text-decoration="none" x="80.72998046875" y="17.5">ClientBuyGame</text></g></g><g transform="translate(-2,10) scale(1,1)"><g><path fill="none" stroke="none"/><text fill="#000000" stroke="none" font-family="Arial" font-size="13px" font-style="normal" font-weight="bold" text-decoration="none" x="61" y="17.5">sd</text></g></g><g transform="translate(-2,10) scale(1,1)"><g><path fill="none" stroke="none"/><text fill="#000000" stroke="none" font-family="Arial" font-size="13px" font-style="normal" font-weight="normal" text-decoration="none" x="947.5" y="594.5">[ValidateNotEmptyFields]</text></g></g><g transform="translate(-2,10) scale(1,1)"><rect fill="#C0C0C0" stroke="none" x="223" y="47" width="234.25537109375" height="39" opacity="0.2"/></g><g transform="translate(-2,10) scale(1,1)"><rect fill="#ffffff" stroke="none" x="216" y="40" width="234.25537109375" height="39"/></g><g transform="translate(-2,10) scale(1,1)"><path fill="none" stroke="#000000" d="M 216 40 L 450.25537109375 40 L 450.25537109375 79 L 216 79 L 216 40 Z Z" stroke-miterlimit="10"/></g><g transform="translate(-2,10) scale(1,1)"><g><path fill="none" stroke="none"/><text fill="#000000" stroke="none" font-family="Arial" font-size="13px" font-style="normal" font-weight="bold" text-decoration="none" x="277.4873046875" y="59.5">ClientMenuHandler</text></g></g><g transform="translate(-2,10) scale(1,1)"><path fill="none" stroke="#000000" d="M 334.5 80 L 334.5 1576" stroke-miterlimit="10" stroke-dasharray="3"/></g><g transform="translate(-2,10) scale(1,1)"><rect fill="#C0C0C0" stroke="none" x="919" y="211" width="198.1435546875" height="39" opacity="0.2"/></g><g transform="translate(-2,10) scale(1,1)"><rect fill="#ffffff" stroke="none" x="912" y="204" width="198.1435546875" height="39"/></g><g transform="translate(-2,10) scale(1,1)"><path fill="none" stroke="#000000" d="M 912 204 L 1110.1435546875 204 L 1110.1435546875 243 L 912 243 L 912 204 Z Z" stroke-miterlimit="10"/></g><g transform="translate(-2,10) scale(1,1)"><g><path fill="none" stroke="none"/><text fill="#000000" stroke="none" font-family="Arial" font-size="13px" font-style="normal" font-weight="bold" text-decoration="none" x="982.1708984375" y="223.5">BuyGame</text></g></g><g transform="translate(-2,10) scale(1,1)"><path fill="none" stroke="#000000" d="M 1012.5 244 L 1012.5 1576" stroke-miterlimit="10" stroke-dasharray="3"/></g><g transform="translate(-2,10) scale(1,1)"><path fill="#000000" stroke="none" d="M 32 135.5 C 32 131.6340064 35.1340064 128.5 39 128.5 C 42.8659936 128.5 46 131.6340064 46 135.5 C 46 139.3659936 42.8659936 142.5 39 142.5 C 35.1340064 142.5 32 139.3659936 32 135.5 Z"/></g><g transform="translate(-2,10) scale(1,1)"><rect fill="#C0C0C0" stroke="none" x="607" y="47" width="216" height="39" opacity="0.2"/></g><g transform="translate(-2,10) scale(1,1)"><rect fill="#ffffff" stroke="none" x="600" y="40" width="216" height="39"/></g><g transform="translate(-2,10) scale(1,1)"><path fill="none" stroke="#000000" d="M 600 40 L 816 40 L 816 79 L 600 79 L 600 40 Z Z" stroke-miterlimit="10"/></g><g transform="translate(-2,10) scale(1,1)"><g><path fill="none" stroke="none"/><text fill="#000000" stroke="none" font-family="Arial" font-size="13px" font-style="normal" font-weight="bold" text-decoration="none" x="670.069580078125" y="59.5">MenuFactory</text></g></g><g transform="translate(-2,10) scale(1,1)"><path fill="none" stroke="#000000" d="M 709.5 80 L 709.5 1576" stroke-miterlimit="10" stroke-dasharray="3"/></g><g transform="translate(-2,10) scale(1,1)"><rect fill="#C0C0C0" stroke="none" x="1271" y="363" width="85.47265625" height="39" opacity="0.2"/></g><g transform="translate(-2,10) scale(1,1)"><rect fill="#ffffff" stroke="none" x="1264" y="356" width="85.47265625" height="39"/></g><g transform="translate(-2,10) scale(1,1)"><path fill="none" stroke="#000000" d="M 1264 356 L 1349.47265625 356 L 1349.47265625 395 L 1264 395 L 1264 356 Z Z" stroke-miterlimit="10"/></g><g transform="translate(-2,10) scale(1,1)"><g><path fill="none" stroke="none"/><text fill="#000000" stroke="none" font-family="Arial" font-size="13px" font-style="normal" font-weight="bold" text-decoration="none" x="1275.6708984375" y="375.5">ListGames</text></g></g><g transform="translate(-2,10) scale(1,1)"><path fill="none" stroke="#000000" d="M 1307.5 396 L 1307.5 1576" stroke-miterlimit="10" stroke-dasharray="3"/></g><g transform="translate(-2,10) scale(1,1)"><rect fill="#C0C0C0" stroke="none" x="1455" y="231" width="210.42626953125" height="39" opacity="0.2"/></g><g transform="translate(-2,10) scale(1,1)"><rect fill="#ffffff" stroke="none" x="1448" y="224" width="210.42626953125" height="39"/></g><g transform="translate(-2,10) scale(1,1)"><path fill="none" stroke="#000000" d="M 1448 224 L 1658.42626953125 224 L 1658.42626953125 263 L 1448 263 L 1448 224 Z Z" stroke-miterlimit="10"/></g><g transform="translate(-2,10) scale(1,1)"><g><path fill="none" stroke="none"/><text fill="#000000" stroke="none" font-family="Arial" font-size="13px" font-style="normal" font-weight="normal" text-decoration="none" x="1522.86181640625" y="241.5">«abstract»</text></g></g><g transform="translate(-2,10) scale(1,1)"><g><path fill="none" stroke="none"/><text fill="#000000" stroke="none" font-family="Arial" font-size="13px" font-style="normal" font-weight="bold" text-decoration="none" x="1512.746826171875" y="256.5">MenuStrategy</text></g></g><g transform="translate(-2,10) scale(1,1)"><path fill="none" stroke="#000000" d="M 1554.5 264 L 1554.5 1576" stroke-miterlimit="10" stroke-dasharray="3"/></g><g transform="translate(-2,10) scale(1,1)"><rect fill="#C0C0C0" stroke="none" x="1775" y="267" width="107.84814453125" height="39" opacity="0.2"/></g><g transform="translate(-2,10) scale(1,1)"><rect fill="#ffffff" stroke="none" x="1768" y="260" width="107.84814453125" height="39"/></g><g transform="translate(-2,10) scale(1,1)"><path fill="none" stroke="#000000" d="M 1768 260 L 1875.84814453125 260 L 1875.84814453125 299 L 1768 299 L 1768 260 Z Z" stroke-miterlimit="10"/></g><g transform="translate(-2,10) scale(1,1)"><g><path fill="none" stroke="none"/><text fill="#000000" stroke="none" font-family="Arial" font-size="13px" font-style="normal" font-weight="bold" text-decoration="none" x="1780.492919921875" y="279.5">MenuValidator</text></g></g><g transform="translate(-2,10) scale(1,1)"><path fill="none" stroke="#000000" d="M 1822.5 300 L 1822.5 1576" stroke-miterlimit="10" stroke-dasharray="3"/></g><g transform="translate(-2,10) scale(1,1)"><rect fill="#C0C0C0" stroke="none" x="1863" y="47" width="110.03173828125" height="39" opacity="0.2"/></g><g transform="translate(-2,10) scale(1,1)"><rect fill="#ffffff" stroke="none" x="1856" y="40" width="110.03173828125" height="39"/></g><g transform="translate(-2,10) scale(1,1)"><path fill="none" stroke="#000000" d="M 1856 40 L 1966.03173828125 40 L 1966.03173828125 79 L 1856 79 L 1856 40 Z Z" stroke-miterlimit="10"/></g><g transform="translate(-2,10) scale(1,1)"><g><path fill="none" stroke="none"/><text fill="#000000" stroke="none" font-family="Arial" font-size="13px" font-style="normal" font-weight="bold" text-decoration="none" x="1868.3818359375" y="59.5">SocketHandler</text></g></g><g transform="translate(-2,10) scale(1,1)"><path fill="none" stroke="#000000" d="M 1912.5 80 L 1912.5 1576" stroke-miterlimit="10" stroke-dasharray="3"/></g><g transform="translate(-2,10) scale(1,1)"><path fill="#000000" stroke="none" d="M 128 1191.5 C 128 1187.6340064 131.1340064 1184.5 135 1184.5 C 138.8659936 1184.5 142 1187.6340064 142 1191.5 C 142 1195.3659936 138.8659936 1198.5 135 1198.5 C 131.1340064 1198.5 128 1195.3659936 128 1191.5 Z"/></g><g transform="translate(-2,10) scale(1,1)"><path fill="#000000" stroke="none" d="M 128 1087.5 C 128 1083.6340064 131.1340064 1080.5 135 1080.5 C 138.8659936 1080.5 142 1083.6340064 142 1087.5 C 142 1091.3659936 138.8659936 1094.5 135 1094.5 C 131.1340064 1094.5 128 1091.3659936 128 1087.5 Z"/></g><g transform="translate(-2,10) scale(1,1)"><path fill="#000000" stroke="none" d="M 16 1455.5 C 16 1451.6340064 19.1340064 1448.5 23 1448.5 C 26.8659936 1448.5 30 1451.6340064 30 1455.5 C 30 1459.3659936 26.8659936 1462.5 23 1462.5 C 19.1340064 1462.5 16 1459.3659936 16 1455.5 Z"/></g><g transform="translate(-2,10) scale(1,1)"><path fill="#000000" stroke="none" d="M 2600 855.5 C 2600 851.6340064 2603.1340064 848.5 2607 848.5 C 2610.8659936 848.5 2614 851.6340064 2614 855.5 C 2614 859.3659936 2610.8659936 862.5 2607 862.5 C 2603.1340064 862.5 2600 859.3659936 2600 855.5 Z"/></g><g transform="translate(-2,10) scale(1,1)"><path fill="#000000" stroke="none" d="M 2600 916.5 C 2600 912.6340064 2603.1340064 909.5 2607 909.5 C 2610.8659936 909.5 2614 912.6340064 2614 916.5 C 2614 920.3659936 2610.8659936 923.5 2607 923.5 C 2603.1340064 923.5 2600 920.3659936 2600 916.5 Z"/></g><g transform="translate(-2,10) scale(1,1)"><path fill="#000000" stroke="none" d="M 2600 935.5 C 2600 931.6340064 2603.1340064 928.5 2607 928.5 C 2610.8659936 928.5 2614 931.6340064 2614 935.5 C 2614 939.3659936 2610.8659936 942.5 2607 942.5 C 2603.1340064 942.5 2600 939.3659936 2600 935.5 Z"/></g><g transform="translate(-2,10) scale(1,1)"><g><path fill="none" stroke="none"/><text fill="#000000" stroke="none" font-family="Arial" font-size="13px" font-style="normal" font-weight="normal" text-decoration="none" x="75.5" y="250.5">[parsedOption &gt;= ListGames &amp;&amp;  &lt;= DeletePublishedGame]</text></g></g><g transform="translate(-2,10) scale(1,1)"><rect fill="#C0C0C0" stroke="none" x="2175" y="691" width="71.736328125" height="39" opacity="0.2"/></g><g transform="translate(-2,10) scale(1,1)"><rect fill="#ffffff" stroke="none" x="2168" y="684" width="71.736328125" height="39"/></g><g transform="translate(-2,10) scale(1,1)"><path fill="none" stroke="#000000" d="M 2168 684 L 2239.736328125 684 L 2239.736328125 723 L 2168 723 L 2168 684 Z Z" stroke-miterlimit="10"/></g><g transform="translate(-2,10) scale(1,1)"><g><path fill="none" stroke="none"/><text fill="#000000" stroke="none" font-family="Arial" font-size="13px" font-style="normal" font-weight="bold" text-decoration="none" x="2182.549560546875" y="703.5">Header</text></g></g><g transform="translate(-2,10) scale(1,1)"><path fill="none" stroke="#000000" d="M 2204.5 724 L 2204.5 1576" stroke-miterlimit="10" stroke-dasharray="3"/></g><g transform="translate(-2,10) scale(1,1)"><path fill="none" stroke="#000000" d="M 46 136 L 327 136" stroke-miterlimit="10"/></g><g transform="translate(-2,10) scale(1,1)"><path fill="#000000" stroke="none" d="M 316.83732514237585 140.209517756016 L 327 136 L 316.83732514237585 131.790482243984"/></g><g transform="translate(-2,10) scale(1,1)"><path fill="none" stroke="#000000" d="M 316.83732514237585 140.209517756016 L 327 136 L 316.83732514237585 131.790482243984 L 316.83732514237585 140.209517756016" stroke-miterlimit="10"/></g><g transform="translate(-2,10) scale(1,1)"><g><path fill="none" stroke="none"/><text fill="#000000" stroke="none" font-family="Arial" font-size="13px" font-style="normal" font-weight="normal" text-decoration="none" x="11.5" y="156.5">1 : LoadLoggedUserMenu(clientSocket)</text></g></g><g transform="translate(-2,10) scale(1,1)"><rect fill="#ffffff" stroke="none" x="327" y="136" width="13" height="1400"/></g><g transform="translate(-2,10) scale(1,1)"><path fill="none" stroke="#000000" d="M 327 136 L 340 136 L 340 1536 L 327 1536 L 327 136 Z Z" stroke-miterlimit="10"/></g><g transform="translate(-2,10) scale(1,1)"><path fill="none" stroke="#000000" d="M 340 136 L 370 136 L 370 156 L 347 156" stroke-miterlimit="10"/></g><g transform="translate(-2,10) scale(1,1)"><path fill="#000000" stroke="none" d="M 357.16267485762415 151.790482243984 L 347 156 L 357.16267485762415 160.209517756016"/></g><g transform="translate(-2,10) scale(1,1)"><path fill="none" stroke="#000000" d="M 357.16267485762415 151.790482243984 L 347 156 L 357.16267485762415 160.209517756016 L 357.16267485762415 151.790482243984" stroke-miterlimit="10"/></g><g transform="translate(-2,10) scale(1,1)"><g><path fill="none" stroke="none"/><text fill="#000000" stroke="none" font-family="Arial" font-size="13px" font-style="normal" font-weight="normal" text-decoration="none" x="264.5" y="132.5">2 : HandleLoggedUserMenuResponse(clientSocket)</text></g></g><g transform="translate(-2,10) scale(1,1)"><rect fill="#ffffff" stroke="none" x="334" y="156" width="13" height="1055"/></g><g transform="translate(-2,10) scale(1,1)"><path fill="none" stroke="#000000" d="M 334 156 L 347 156 L 347 1211 L 334 1211 L 334 156 Z Z" stroke-miterlimit="10"/></g><g transform="translate(-2,10) scale(1,1)"><path fill="none" stroke="#000000" d="M 347 168 L 377 168 L 377 188 L 354 188" stroke-miterlimit="10"/></g><g transform="translate(-2,10) scale(1,1)"><path fill="#000000" stroke="none" d="M 364.16267485762415 183.790482243984 L 354 188 L 364.16267485762415 192.209517756016"/></g><g transform="translate(-2,10) scale(1,1)"><path fill="none" stroke="#000000" d="M 364.16267485762415 183.790482243984 L 354 188 L 364.16267485762415 192.209517756016 L 364.16267485762415 183.790482243984" stroke-miterlimit="10"/></g><g transform="translate(-2,10) scale(1,1)"><g><path fill="none" stroke="none"/><text fill="#000000" stroke="none" font-family="Arial" font-size="13px" font-style="normal" font-weight="normal" text-decoration="none" x="375.5" y="164.5">3 : ParseLoggedUserMenuOption(selectedOptions)</text></g></g><g transform="translate(-2,10) scale(1,1)"><rect fill="#ffffff" stroke="none" x="341" y="188" width="13" height="28"/></g><g transform="translate(-2,10) scale(1,1)"><path fill="none" stroke="#000000" d="M 341 188 L 354 188 L 354 216 L 341 216 L 341 188 Z Z" stroke-miterlimit="10"/></g><g transform="translate(-2,10) scale(1,1)"><path fill="none" stroke="#000000" d="M 347 224 L 702 224" stroke-miterlimit="10"/></g><g transform="translate(-2,10) scale(1,1)"><path fill="#000000" stroke="none" d="M 691.8373251423759 228.209517756016 L 702 224 L 691.8373251423758 219.790482243984"/></g><g transform="translate(-2,10) scale(1,1)"><path fill="none" stroke="#000000" d="M 691.8373251423759 228.209517756016 L 702 224 L 691.8373251423758 219.790482243984 L 691.8373251423759 228.209517756016" stroke-miterlimit="10"/></g><g transform="translate(-2,10) scale(1,1)"><g><path fill="none" stroke="none"/><text fill="#000000" stroke="none" font-family="Arial" font-size="13px" font-style="normal" font-weight="normal" text-decoration="none" x="436.5" y="220.5">4 : GetStrategy(parsedOption)</text></g></g><g transform="translate(-2,10) scale(1,1)"><rect fill="#ffffff" stroke="none" x="702" y="224" width="13" height="72"/></g><g transform="translate(-2,10) scale(1,1)"><path fill="none" stroke="#000000" d="M 702 224 L 715 224 L 715 296 L 702 296 L 702 224 Z Z" stroke-miterlimit="10"/></g><g transform="translate(-2,10) scale(1,1)"><path fill="none" stroke="#000000" d="M 715 224 L 912 224" stroke-miterlimit="10" stroke-dasharray="3"/></g><g transform="translate(-2,10) scale(1,1)"><path fill="none" stroke="#000000" d="M 901.8373251423759 228.209517756016 L 912 224 L 901.8373251423758 219.790482243984" stroke-miterlimit="10"/></g><g transform="translate(-2,10) scale(1,1)"><g><path fill="none" stroke="none"/><text fill="#000000" stroke="none" font-family="Arial" font-size="13px" font-style="normal" font-weight="normal" text-decoration="none" x="718.5" y="218.5">5 : new BuyGame(parseOptions)</text></g></g><g transform="translate(-2,10) scale(1,1)"><g><path fill="none" stroke="none"/><text fill="#000000" stroke="none" font-family="Arial" font-size="13px" font-style="normal" font-weight="normal" text-decoration="none" x="787.5" y="205.5">«create»</text></g></g><g transform="translate(-2,10) scale(1,1)"><path fill="none" stroke="#000000" d="M 1012 244 L 1448 244" stroke-miterlimit="10" stroke-dasharray="3"/></g><g transform="translate(-2,10) scale(1,1)"><path fill="none" stroke="#000000" d="M 1437.837325142376 248.209517756016 L 1448 244 L 1437.837325142376 239.790482243984" stroke-miterlimit="10"/></g><g transform="translate(-2,10) scale(1,1)"><g><path fill="none" stroke="none"/><text fill="#000000" stroke="none" font-family="Arial" font-size="13px" font-style="normal" font-weight="normal" text-decoration="none" x="1184.114990234375" y="232.5">6 : new MenuStrategy</text></g></g><g transform="translate(-2,10) scale(1,1)"><g><path fill="none" stroke="none"/><text fill="#000000" stroke="none" font-family="Arial" font-size="13px" font-style="normal" font-weight="normal" text-decoration="none" x="1222.5" y="216.5">«create»</text></g></g><g transform="translate(-2,10) scale(1,1)"><path fill="none" stroke="#000000" d="M 1554 280 L 1768 280" stroke-miterlimit="10" stroke-dasharray="3"/></g><g transform="translate(-2,10) scale(1,1)"><path fill="none" stroke="#000000" d="M 1757.837325142376 284.209517756016 L 1768 280 L 1757.837325142376 275.790482243984" stroke-miterlimit="10"/></g><g transform="translate(-2,10) scale(1,1)"><g><path fill="none" stroke="none"/><text fill="#000000" stroke="none" font-family="Arial" font-size="13px" font-style="normal" font-weight="normal" text-decoration="none" x="1627.114990234375" y="276.5">7 : new MenuValidator</text></g></g><g transform="translate(-2,10) scale(1,1)"><g><path fill="none" stroke="none"/><text fill="#000000" stroke="none" font-family="Arial" font-size="13px" font-style="normal" font-weight="normal" text-decoration="none" x="1678.5" y="261.5">«create»</text></g></g><g transform="translate(-2,10) scale(1,1)"><path fill="none" stroke="#000000" d="M 702 288 L 347 288" stroke-miterlimit="10" stroke-dasharray="3"/></g><g transform="translate(-2,10) scale(1,1)"><path fill="none" stroke="#000000" d="M 357.16267485762415 283.790482243984 L 347 288 L 357.16267485762415 292.209517756016" stroke-miterlimit="10"/></g><g transform="translate(-2,10) scale(1,1)"><g><path fill="none" stroke="none"/><text fill="#000000" stroke="none" font-family="Arial" font-size="13px" font-style="normal" font-weight="normal" text-decoration="none" x="514.46533203125" y="304.5">8 : </text></g></g><g transform="translate(-2,10) scale(1,1)"><path fill="none" stroke="#000000" d="M 347 320 L 1005 320" stroke-miterlimit="10"/></g><g transform="translate(-2,10) scale(1,1)"><path fill="#000000" stroke="none" d="M 994.8373251423759 324.209517756016 L 1005 320 L 994.8373251423758 315.790482243984"/></g><g transform="translate(-2,10) scale(1,1)"><path fill="none" stroke="#000000" d="M 994.8373251423759 324.209517756016 L 1005 320 L 994.8373251423758 315.790482243984 L 994.8373251423759 324.209517756016" stroke-miterlimit="10"/></g><g transform="translate(-2,10) scale(1,1)"><g><path fill="none" stroke="none"/><text fill="#000000" stroke="none" font-family="Arial" font-size="13px" font-style="normal" font-weight="normal" text-decoration="none" x="562.114990234375" y="316.5">9 : HandleSelectedOption(clientSocket)</text></g></g><g transform="translate(-2,10) scale(1,1)"><rect fill="#ffffff" stroke="none" x="1005" y="320" width="13" height="790"/></g><g transform="translate(-2,10) scale(1,1)"><path fill="none" stroke="#000000" d="M 1005 320 L 1018 320 L 1018 1110 L 1005 1110 L 1005 320 Z Z" stroke-miterlimit="10"/></g><g transform="translate(-2,10) scale(1,1)"><path fill="none" stroke="#000000" d="M 1018 328 L 1048 328 L 1048 348 L 1025 348" stroke-miterlimit="10"/></g><g transform="translate(-2,10) scale(1,1)"><path fill="#000000" stroke="none" d="M 1035.162674857624 343.790482243984 L 1025 348 L 1035.162674857624 352.209517756016"/></g><g transform="translate(-2,10) scale(1,1)"><path fill="none" stroke="#000000" d="M 1035.162674857624 343.790482243984 L 1025 348 L 1035.162674857624 352.209517756016 L 1035.162674857624 343.790482243984" stroke-miterlimit="10"/></g><g transform="translate(-2,10) scale(1,1)"><g><path fill="none" stroke="none"/><text fill="#000000" stroke="none" font-family="Arial" font-size="13px" font-style="normal" font-weight="normal" text-decoration="none" x="1050.5" y="348.5">10 : ListGamesAvailable(clientSocket)</text></g></g><g transform="translate(-2,10) scale(1,1)"><rect fill="#ffffff" stroke="none" x="1012" y="348" width="13" height="743"/></g><g transform="translate(-2,10) scale(1,1)"><path fill="none" stroke="#000000" d="M 1012 348 L 1025 348 L 1025 1091 L 1012 1091 L 1012 348 Z Z" stroke-miterlimit="10"/></g><g transform="translate(-2,10) scale(1,1)"><path fill="none" stroke="#000000" d="M 1025 376 L 1264 376" stroke-miterlimit="10" stroke-dasharray="3"/></g><g transform="translate(-2,10) scale(1,1)"><path fill="none" stroke="#000000" d="M 1253.837325142376 380.209517756016 L 1264 376 L 1253.837325142376 371.790482243984" stroke-miterlimit="10"/></g><g transform="translate(-2,10) scale(1,1)"><g><path fill="none" stroke="none"/><text fill="#000000" stroke="none" font-family="Arial" font-size="13px" font-style="normal" font-weight="normal" text-decoration="none" x="1087.272216796875" y="372.5">11 : new ListGames</text></g></g><g transform="translate(-2,10) scale(1,1)"><g><path fill="none" stroke="none"/><text fill="#000000" stroke="none" font-family="Arial" font-size="13px" font-style="normal" font-weight="normal" text-decoration="none" x="1118.5" y="357.5">«create»</text></g></g><g transform="translate(-2,10) scale(1,1)"><path fill="none" stroke="#000000" d="M 1025 472 L 1300 472" stroke-miterlimit="10"/></g><g transform="translate(-2,10) scale(1,1)"><path fill="#000000" stroke="none" d="M 1289.837325142376 476.209517756016 L 1300 472 L 1289.837325142376 467.790482243984"/></g><g transform="translate(-2,10) scale(1,1)"><path fill="none" stroke="#000000" d="M 1289.837325142376 476.209517756016 L 1300 472 L 1289.837325142376 467.790482243984 L 1289.837325142376 476.209517756016" stroke-miterlimit="10"/></g><g transform="translate(-2,10) scale(1,1)"><g><path fill="none" stroke="none"/><text fill="#000000" stroke="none" font-family="Arial" font-size="13px" font-style="normal" font-weight="normal" text-decoration="none" x="1021.5" y="468.5">12 : listGames.ListGamesAvailable(clientSocket)</text></g></g><g transform="translate(-2,10) scale(1,1)"><rect fill="#ffffff" stroke="none" x="1300" y="472" width="13" height="62"/></g><g transform="translate(-2,10) scale(1,1)"><path fill="none" stroke="#000000" d="M 1300 472 L 1313 472 L 1313 534 L 1300 534 L 1300 472 Z Z" stroke-miterlimit="10"/></g><g transform="translate(-2,10) scale(1,1)"><path fill="none" stroke="#000000" d="M 1313 480 L 1343 480 L 1343 500 L 1320 500" stroke-miterlimit="10"/></g><g transform="translate(-2,10) scale(1,1)"><path fill="#000000" stroke="none" d="M 1330.162674857624 495.790482243984 L 1320 500 L 1330.162674857624 504.209517756016"/></g><g transform="translate(-2,10) scale(1,1)"><path fill="none" stroke="#000000" d="M 1330.162674857624 495.790482243984 L 1320 500 L 1330.162674857624 504.209517756016 L 1330.162674857624 495.790482243984" stroke-miterlimit="10"/></g><g transform="translate(-2,10) scale(1,1)"><g><path fill="none" stroke="none"/><text fill="#000000" stroke="none" font-family="Arial" font-size="13px" font-style="normal" font-weight="normal" text-decoration="none" x="1318.5" y="476.5">13 : ListGamesAvailable(clientSocket)</text></g></g><g transform="translate(-2,10) scale(1,1)"><rect fill="#ffffff" stroke="none" x="1307" y="500" width="13" height="31"/></g><g transform="translate(-2,10) scale(1,1)"><path fill="none" stroke="#000000" d="M 1307 500 L 1320 500 L 1320 531 L 1307 531 L 1307 500 Z Z" stroke-miterlimit="10"/></g><g transform="translate(-2,10) scale(1,1)"><path fill="none" stroke="#000000" d="M 1307 520 L 1025 520" stroke-miterlimit="10" stroke-dasharray="3"/></g><g transform="translate(-2,10) scale(1,1)"><path fill="none" stroke="#000000" d="M 1035.162674857624 515.790482243984 L 1025 520 L 1035.162674857624 524.209517756016" stroke-miterlimit="10"/></g><g transform="translate(-2,10) scale(1,1)"><g><path fill="none" stroke="none"/><text fill="#000000" stroke="none" font-family="Arial" font-size="13px" font-style="normal" font-weight="normal" text-decoration="none" x="1095.5" y="536.5">14 : GameListResponse</text></g></g><g transform="translate(-2,10) scale(1,1)"><path fill="none" stroke="#000000" d="M 1025 584 L 1815 584" stroke-miterlimit="10"/></g><g transform="translate(-2,10) scale(1,1)"><path fill="#000000" stroke="none" d="M 1804.837325142376 588.209517756016 L 1815 584 L 1804.837325142376 579.790482243984"/></g><g transform="translate(-2,10) scale(1,1)"><path fill="none" stroke="#000000" d="M 1804.837325142376 588.209517756016 L 1815 584 L 1804.837325142376 579.790482243984 L 1804.837325142376 588.209517756016" stroke-miterlimit="10"/></g><g transform="translate(-2,10) scale(1,1)"><g><path fill="none" stroke="none"/><text fill="#000000" stroke="none" font-family="Arial" font-size="13px" font-style="normal" font-weight="normal" text-decoration="none" x="1155.5" y="579.5">15 : _menuValidator.ValidateNotEmptyFields(gameName)</text></g></g><g transform="translate(-2,10) scale(1,1)"><rect fill="#ffffff" stroke="none" x="1815" y="584" width="13" height="28"/></g><g transform="translate(-2,10) scale(1,1)"><path fill="none" stroke="#000000" d="M 1815 584 L 1828 584 L 1828 612 L 1815 612 L 1815 584 Z Z" stroke-miterlimit="10"/></g><g transform="translate(-2,10) scale(1,1)"><path fill="none" stroke="#000000" d="M 1822 616 L 1025 616" stroke-miterlimit="10" stroke-dasharray="3"/></g><g transform="translate(-2,10) scale(1,1)"><path fill="none" stroke="#000000" d="M 1035.162674857624 611.790482243984 L 1025 616 L 1035.162674857624 620.209517756016" stroke-miterlimit="10"/></g><g transform="translate(-2,10) scale(1,1)"><g><path fill="none" stroke="none"/><text fill="#000000" stroke="none" font-family="Arial" font-size="13px" font-style="normal" font-weight="normal" text-decoration="none" x="1409.5" y="632.5">16 : </text></g></g><g transform="translate(-2,10) scale(1,1)"><path fill="none" stroke="#000000" d="M 1025 672 L 1905 672" stroke-miterlimit="10"/></g><g transform="translate(-2,10) scale(1,1)"><path fill="#000000" stroke="none" d="M 1894.837325142376 676.209517756016 L 1905 672 L 1894.837325142376 667.790482243984"/></g><g transform="translate(-2,10) scale(1,1)"><path fill="none" stroke="#000000" d="M 1894.837325142376 676.209517756016 L 1905 672 L 1894.837325142376 667.790482243984 L 1894.837325142376 676.209517756016" stroke-miterlimit="10"/></g><g transform="translate(-2,10) scale(1,1)"><g><path fill="none" stroke="none"/><text fill="#000000" stroke="none" font-family="Arial" font-size="13px" font-style="normal" font-weight="normal" text-decoration="none" x="1239.554931640625" y="668.5">17 : clientSocket.SendMessageAndRecieveResponse(BuyGame, gameName)</text></g></g><g transform="translate(-2,10) scale(1,1)"><rect fill="#ffffff" stroke="none" x="1905" y="672" width="13" height="377"/></g><g transform="translate(-2,10) scale(1,1)"><path fill="none" stroke="#000000" d="M 1905 672 L 1918 672 L 1918 1049 L 1905 1049 L 1905 672 Z Z" stroke-miterlimit="10"/></g><g transform="translate(-2,10) scale(1,1)"><path fill="none" stroke="#000000" d="M 1918 680 L 1948 680 L 1948 700 L 1925 700" stroke-miterlimit="10"/></g><g transform="translate(-2,10) scale(1,1)"><path fill="#000000" stroke="none" d="M 1935.162674857624 695.790482243984 L 1925 700 L 1935.162674857624 704.209517756016"/></g><g transform="translate(-2,10) scale(1,1)"><path fill="none" stroke="#000000" d="M 1935.162674857624 695.790482243984 L 1925 700 L 1935.162674857624 704.209517756016 L 1935.162674857624 695.790482243984" stroke-miterlimit="10"/></g><g transform="translate(-2,10) scale(1,1)"><g><path fill="none" stroke="none"/><text fill="#000000" stroke="none" font-family="Arial" font-size="13px" font-style="normal" font-weight="normal" text-decoration="none" x="1863.03564453125" y="660.5">18 : SendMessage(Request, BuyGame, gameName)</text></g></g><g transform="translate(-2,10) scale(1,1)"><rect fill="#ffffff" stroke="none" x="1912" y="700" width="13" height="346"/></g><g transform="translate(-2,10) scale(1,1)"><path fill="none" stroke="#000000" d="M 1912 700 L 1925 700 L 1925 1046 L 1912 1046 L 1912 700 Z Z" stroke-miterlimit="10"/></g><g transform="translate(-2,10) scale(1,1)"><path fill="none" stroke="#000000" d="M 1925 704 L 2168 704" stroke-miterlimit="10" stroke-dasharray="3"/></g><g transform="translate(-2,10) scale(1,1)"><path fill="none" stroke="#000000" d="M 2157.837325142376 708.209517756016 L 2168 704 L 2157.837325142376 699.790482243984" stroke-miterlimit="10"/></g><g transform="translate(-2,10) scale(1,1)"><g><path fill="none" stroke="none"/><text fill="#000000" stroke="none" font-family="Arial" font-size="13px" font-style="normal" font-weight="normal" text-decoration="none" x="1934.5" y="684.5">19 : new Header(Request, BuyGame, gameName.length)</text></g></g><g transform="translate(-2,10) scale(1,1)"><g><path fill="none" stroke="none"/><text fill="#000000" stroke="none" font-family="Arial" font-size="13px" font-style="normal" font-weight="normal" text-decoration="none" x="2030.5" y="676.5">«create»</text></g></g><g transform="translate(-2,10) scale(1,1)"><path fill="none" stroke="#000000" d="M 2204 724 L 1925 724" stroke-miterlimit="10" stroke-dasharray="3"/></g><g transform="translate(-2,10) scale(1,1)"><path fill="none" stroke="#000000" d="M 1935.162674857624 719.790482243984 L 1925 724 L 1935.162674857624 728.209517756016" stroke-miterlimit="10"/></g><g transform="translate(-2,10) scale(1,1)"><g><path fill="none" stroke="none"/><text fill="#000000" stroke="none" font-family="Arial" font-size="13px" font-style="normal" font-weight="normal" text-decoration="none" x="2065.76171875" y="739.5">20 : new Header</text></g></g><g transform="translate(-2,10) scale(1,1)"><path fill="none" stroke="#000000" d="M 1925 744 L 1955 744 L 1955 764 L 1932 764" stroke-miterlimit="10"/></g><g transform="translate(-2,10) scale(1,1)"><path fill="#000000" stroke="none" d="M 1942.162674857624 759.790482243984 L 1932 764 L 1942.162674857624 768.209517756016"/></g><g transform="translate(-2,10) scale(1,1)"><path fill="none" stroke="#000000" d="M 1942.162674857624 759.790482243984 L 1932 764 L 1942.162674857624 768.209517756016 L 1942.162674857624 759.790482243984" stroke-miterlimit="10"/></g><g transform="translate(-2,10) scale(1,1)"><g><path fill="none" stroke="none"/><text fill="#000000" stroke="none" font-family="Arial" font-size="13px" font-style="normal" font-weight="normal" text-decoration="none" x="1942.5" y="764.5">21 : SendHeader(header)</text></g></g><g transform="translate(-2,10) scale(1,1)"><rect fill="#ffffff" stroke="none" x="1919" y="764" width="13" height="116"/></g><g transform="translate(-2,10) scale(1,1)"><path fill="none" stroke="#000000" d="M 1919 764 L 1932 764 L 1932 880 L 1919 880 L 1919 764 Z Z" stroke-miterlimit="10"/></g><g transform="translate(-2,10) scale(1,1)"><path fill="none" stroke="#000000" d="M 1932 788 L 2197 788" stroke-miterlimit="10"/></g><g transform="translate(-2,10) scale(1,1)"><path fill="#000000" stroke="none" d="M 2186.837325142376 792.209517756016 L 2197 788 L 2186.837325142376 783.790482243984"/></g><g transform="translate(-2,10) scale(1,1)"><path fill="none" stroke="#000000" d="M 2186.837325142376 792.209517756016 L 2197 788 L 2186.837325142376 783.790482243984 L 2186.837325142376 792.209517756016" stroke-miterlimit="10"/></g><g transform="translate(-2,10) scale(1,1)"><g><path fill="none" stroke="none"/><text fill="#000000" stroke="none" font-family="Arial" font-size="13px" font-style="normal" font-weight="normal" text-decoration="none" x="2016.5" y="784.5">22 : GetRequest</text></g></g><g transform="translate(-2,10) scale(1,1)"><rect fill="#ffffff" stroke="none" x="2197" y="788" width="13" height="28"/></g><g transform="translate(-2,10) scale(1,1)"><path fill="none" stroke="#000000" d="M 2197 788 L 2210 788 L 2210 816 L 2197 816 L 2197 788 Z Z" stroke-miterlimit="10"/></g><g transform="translate(-2,10) scale(1,1)"><path fill="none" stroke="#000000" d="M 2197 807 L 1932 807" stroke-miterlimit="10" stroke-dasharray="3"/></g><g transform="translate(-2,10) scale(1,1)"><path fill="none" stroke="#000000" d="M 1942.162674857624 802.790482243984 L 1932 807 L 1942.162674857624 811.209517756016" stroke-miterlimit="10"/></g><g transform="translate(-2,10) scale(1,1)"><g><path fill="none" stroke="none"/><text fill="#000000" stroke="none" font-family="Arial" font-size="13px" font-style="normal" font-weight="normal" text-decoration="none" x="2095.5" y="804.5">23 : message</text></g></g><g transform="translate(-2,10) scale(1,1)"><path fill="none" stroke="#000000" d="M 1932 824 L 1962 824 L 1962 844 L 1939 844" stroke-miterlimit="10"/></g><g transform="translate(-2,10) scale(1,1)"><path fill="#000000" stroke="none" d="M 1949.162674857624 839.790482243984 L 1939 844 L 1949.162674857624 848.209517756016"/></g><g transform="translate(-2,10) scale(1,1)"><path fill="none" stroke="#000000" d="M 1949.162674857624 839.790482243984 L 1939 844 L 1949.162674857624 848.209517756016 L 1949.162674857624 839.790482243984" stroke-miterlimit="10"/></g><g transform="translate(-2,10) scale(1,1)"><g><path fill="none" stroke="none"/><text fill="#000000" stroke="none" font-family="Arial" font-size="13px" font-style="normal" font-weight="normal" text-decoration="none" x="1959.5" y="836.5">24 : SendData(gameName)</text></g></g><g transform="translate(-2,10) scale(1,1)"><rect fill="#ffffff" stroke="none" x="1926" y="844" width="13" height="28"/></g><g transform="translate(-2,10) scale(1,1)"><path fill="none" stroke="#000000" d="M 1926 844 L 1939 844 L 1939 872 L 1926 872 L 1926 844 Z Z" stroke-miterlimit="10"/></g><g transform="translate(-2,10) scale(1,1)"><path fill="none" stroke="#000000" d="M 1939 856 L 2600 856" stroke-miterlimit="10"/></g><g transform="translate(-2,10) scale(1,1)"><path fill="#000000" stroke="none" d="M 2589.837325142376 860.209517756016 L 2600 856 L 2589.837325142376 851.790482243984"/></g><g transform="translate(-2,10) scale(1,1)"><path fill="none" stroke="#000000" d="M 2589.837325142376 860.209517756016 L 2600 856 L 2589.837325142376 851.790482243984 L 2589.837325142376 860.209517756016" stroke-miterlimit="10"/></g><g transform="translate(-2,10) scale(1,1)"><g><path fill="none" stroke="none"/><text fill="#000000" stroke="none" font-family="Arial" font-size="13px" font-style="normal" font-weight="normal" text-decoration="none" x="2290.5" y="852.5">25 : Message to server via socket</text></g></g><g transform="translate(-2,10) scale(1,1)"><path fill="none" stroke="#000000" d="M 1925 880 L 1955 880 L 1955 900 L 1932 900" stroke-miterlimit="10"/></g><g transform="translate(-2,10) scale(1,1)"><path fill="#000000" stroke="none" d="M 1942.162674857624 895.790482243984 L 1932 900 L 1942.162674857624 904.209517756016"/></g><g transform="translate(-2,10) scale(1,1)"><path fill="none" stroke="#000000" d="M 1942.162674857624 895.790482243984 L 1932 900 L 1942.162674857624 904.209517756016 L 1942.162674857624 895.790482243984" stroke-miterlimit="10"/></g><g transform="translate(-2,10) scale(1,1)"><g><path fill="none" stroke="none"/><text fill="#000000" stroke="none" font-family="Arial" font-size="13px" font-style="normal" font-weight="normal" text-decoration="none" x="1942.5" y="884.5">26 : RecieveResponse</text></g></g><g transform="translate(-2,10) scale(1,1)"><rect fill="#ffffff" stroke="none" x="1919" y="900" width="13" height="71"/></g><g transform="translate(-2,10) scale(1,1)"><path fill="none" stroke="#000000" d="M 1919 900 L 1932 900 L 1932 971 L 1919 971 L 1919 900 Z Z" stroke-miterlimit="10"/></g><g transform="translate(-2,10) scale(1,1)"><path fill="none" stroke="#000000" d="M 2600 917 L 1939 917" stroke-miterlimit="10"/></g><g transform="translate(-2,10) scale(1,1)"><path fill="#000000" stroke="none" d="M 1949.162674857624 912.790482243984 L 1939 917 L 1949.162674857624 921.209517756016"/></g><g transform="translate(-2,10) scale(1,1)"><path fill="none" stroke="#000000" d="M 1949.162674857624 912.790482243984 L 1939 917 L 1949.162674857624 921.209517756016 L 1949.162674857624 912.790482243984" stroke-miterlimit="10"/></g><g transform="translate(-2,10) scale(1,1)"><g><path fill="none" stroke="none"/><text fill="#000000" stroke="none" font-family="Arial" font-size="13px" font-style="normal" font-weight="normal" text-decoration="none" x="2273.75" y="916.5">27 : RecieveHeader from server</text></g></g><g transform="translate(-2,10) scale(1,1)"><rect fill="#ffffff" stroke="none" x="1926" y="917" width="13" height="51"/></g><g transform="translate(-2,10) scale(1,1)"><path fill="none" stroke="#000000" d="M 1926 917 L 1939 917 L 1939 968 L 1926 968 L 1926 917 Z Z" stroke-miterlimit="10"/></g><g transform="translate(-2,10) scale(1,1)"><path fill="none" stroke="#000000" d="M 2600 936 L 1946 936" stroke-miterlimit="10"/></g><g transform="translate(-2,10) scale(1,1)"><path fill="#000000" stroke="none" d="M 1956.162674857624 931.790482243984 L 1946 936 L 1956.162674857624 940.209517756016"/></g><g transform="translate(-2,10) scale(1,1)"><path fill="none" stroke="#000000" d="M 1956.162674857624 931.790482243984 L 1946 936 L 1956.162674857624 940.209517756016 L 1956.162674857624 931.790482243984" stroke-miterlimit="10"/></g><g transform="translate(-2,10) scale(1,1)"><g><path fill="none" stroke="none"/><text fill="#000000" stroke="none" font-family="Arial" font-size="13px" font-style="normal" font-weight="normal" text-decoration="none" x="2268.5" y="951.5">28 : RecieveString from server</text></g></g><g transform="translate(-2,10) scale(1,1)"><rect fill="#ffffff" stroke="none" x="1933" y="936" width="13" height="28"/></g><g transform="translate(-2,10) scale(1,1)"><path fill="none" stroke="#000000" d="M 1933 936 L 1946 936 L 1946 964 L 1933 964 L 1933 936 Z Z" stroke-miterlimit="10"/></g><g transform="translate(-2,10) scale(1,1)"><path fill="none" stroke="#000000" d="M 1933 952 L 1025 952" stroke-miterlimit="10" stroke-dasharray="3"/></g><g transform="translate(-2,10) scale(1,1)"><path fill="none" stroke="#000000" d="M 1035.162674857624 947.790482243984 L 1025 952 L 1035.162674857624 956.209517756016" stroke-miterlimit="10"/></g><g transform="translate(-2,10) scale(1,1)"><g><path fill="none" stroke="none"/><text fill="#000000" stroke="none" font-family="Arial" font-size="13px" font-style="normal" font-weight="normal" text-decoration="none" x="1438.5" y="968.5">29 : response</text></g></g><g transform="translate(-2,10) scale(1,1)"><path fill="none" stroke="#000000" d="M 1012 976 L 347 976" stroke-miterlimit="10" stroke-dasharray="3"/></g><g transform="translate(-2,10) scale(1,1)"><path fill="none" stroke="#000000" d="M 357.16267485762415 971.790482243984 L 347 976 L 357.16267485762415 980.209517756016" stroke-miterlimit="10"/></g><g transform="translate(-2,10) scale(1,1)"><g><path fill="none" stroke="none"/><text fill="#000000" stroke="none" font-family="Arial" font-size="13px" font-style="normal" font-weight="normal" text-decoration="none" x="638.5" y="992.5">30 : response</text></g></g><g transform="translate(-2,10) scale(1,1)"><path fill="none" stroke="#000000" d="M 334 1088 L 142 1088" stroke-miterlimit="10"/></g><g transform="translate(-2,10) scale(1,1)"><path fill="#000000" stroke="none" d="M 152.16267485762415 1083.7904822439841 L 142 1088 L 152.16267485762415 1092.2095177560159"/></g><g transform="translate(-2,10) scale(1,1)"><path fill="none" stroke="#000000" d="M 152.16267485762415 1083.7904822439841 L 142 1088 L 152.16267485762415 1092.2095177560159 L 152.16267485762415 1083.7904822439841" stroke-miterlimit="10"/></g><g transform="translate(-2,10) scale(1,1)"><g><path fill="none" stroke="none"/><text fill="#000000" stroke="none" font-family="Arial" font-size="13px" font-style="normal" font-weight="normal" text-decoration="none" x="140.5" y="1104.5">31 : LoadMainMenu(clientSocket)</text></g></g><g transform="translate(-2,10) scale(1,1)"><path fill="none" stroke="#000000" d="M 334 1192 L 142 1192" stroke-miterlimit="10"/></g><g transform="translate(-2,10) scale(1,1)"><path fill="#000000" stroke="none" d="M 152.16267485762415 1187.7904822439841 L 142 1192 L 152.16267485762415 1196.2095177560159"/></g><g transform="translate(-2,10) scale(1,1)"><path fill="none" stroke="#000000" d="M 152.16267485762415 1187.7904822439841 L 142 1192 L 152.16267485762415 1196.2095177560159 L 152.16267485762415 1187.7904822439841" stroke-miterlimit="10"/></g><g transform="translate(-2,10) scale(1,1)"><g><path fill="none" stroke="none"/><text fill="#000000" stroke="none" font-family="Arial" font-size="13px" font-style="normal" font-weight="normal" text-decoration="none" x="118.5" y="1208.5">32 : LoadLoggedUserMenu(clientSocket)</text></g></g><g transform="translate(-2,10) scale(1,1)"><path fill="none" stroke="#000000" d="M 327 1456 L 30 1456" stroke-miterlimit="10"/></g><g transform="translate(-2,10) scale(1,1)"><path fill="#000000" stroke="none" d="M 40.162674857624154 1451.7904822439841 L 30 1456 L 40.162674857624154 1460.2095177560159"/></g><g transform="translate(-2,10) scale(1,1)"><path fill="none" stroke="#000000" d="M 40.162674857624154 1451.7904822439841 L 30 1456 L 40.162674857624154 1460.2095177560159 L 40.162674857624154 1451.7904822439841" stroke-miterlimit="10"/></g><g transform="translate(-2,10) scale(1,1)"><g><path fill="none" stroke="none"/><text fill="#000000" stroke="none" font-family="Arial" font-size="13px" font-style="normal" font-weight="normal" text-decoration="none" x="58.5" y="1472.5">33 : LoadLoggedUserMenu(clientSocket)</text></g></g><g transform="translate(-2,10) scale(1,1)"><path fill="none" stroke="#000000" d="M 928 544 L 2264 544 L 2264 960 L 928 960 L 928 544" stroke-miterlimit="10"/></g><g transform="translate(-2,10) scale(1,1)"><path fill="#ffffff" stroke="none" d="M 928 544 L 928 566 L 1039.38623046875 566 L 1050.38623046875 555 L 1050.38623046875 544 L 928 544"/></g><g transform="translate(-2,10) scale(1,1)"><path fill="none" stroke="#000000" d="M 928 544 L 928 566 L 1039.38623046875 566 L 1050.38623046875 555 L 1050.38623046875 544 L 928 544 L 928 544" stroke-miterlimit="10"/></g><g transform="translate(-2,10) scale(1,1)"><g><path fill="none" stroke="none"/><text fill="#000000" stroke="none" font-family="Arial" font-size="13px" font-style="normal" font-weight="normal" text-decoration="none" x="952.72998046875" y="561.5">menuvalidator</text></g></g><g transform="translate(-2,10) scale(1,1)"><g><path fill="none" stroke="none"/><text fill="#000000" stroke="none" font-family="Arial" font-size="13px" font-style="normal" font-weight="bold" text-decoration="none" x="933" y="561.5">alt</text></g></g><g transform="translate(-2,10) scale(1,1)"><g><path fill="none" stroke="none"/><text fill="#000000" stroke="none" font-family="Arial" font-size="13px" font-style="normal" font-weight="normal" text-decoration="none" x="947.5" y="594.5">[ValidateNotEmptyFields]</text></g></g><g transform="translate(-2,10) scale(1,1)"><path fill="none" stroke="#000000" d="M 104 984 L 585.2890625 984 L 585.2890625 1312 L 104 1312 L 104 984" stroke-miterlimit="10"/></g><g transform="translate(-2,10) scale(1,1)"><path fill="#ffffff" stroke="none" d="M 104 984 L 104 1006 L 187.208984375 1006 L 198.208984375 995 L 198.208984375 984 L 104 984"/></g><g transform="translate(-2,10) scale(1,1)"><path fill="none" stroke="#000000" d="M 104 984 L 104 1006 L 187.208984375 1006 L 198.208984375 995 L 198.208984375 984 L 104 984 L 104 984" stroke-miterlimit="10"/></g><g transform="translate(-2,10) scale(1,1)"><g><path fill="none" stroke="none"/><text fill="#000000" stroke="none" font-family="Arial" font-size="13px" font-style="normal" font-weight="normal" text-decoration="none" x="128.72998046875" y="1001.5">response</text></g></g><g transform="translate(-2,10) scale(1,1)"><g><path fill="none" stroke="none"/><text fill="#000000" stroke="none" font-family="Arial" font-size="13px" font-style="normal" font-weight="bold" text-decoration="none" x="109" y="1001.5">alt</text></g></g><g transform="translate(-2,10) scale(1,1)"><g><path fill="none" stroke="none"/><text fill="#000000" stroke="none" font-family="Arial" font-size="13px" font-style="normal" font-weight="normal" text-decoration="none" x="123.5" y="1034.5">[response  == LogoutSuccess || InvalidUsernameError || AuthenticationError]</text></g></g><g transform="translate(-2,10) scale(1,1)"><path fill="none" stroke="#000000" d="M 104 1121 L 585.2890625 1121" stroke-miterlimit="10" stroke-dasharray="10,3"/></g><g transform="translate(-2,10) scale(1,1)"><g><path fill="none" stroke="none"/><text fill="#000000" stroke="none" font-family="Arial" font-size="13px" font-style="normal" font-weight="normal" text-decoration="none" x="123.5" y="1148.5">[else]</text></g></g><g transform="translate(-2,10) scale(1,1)"><path fill="none" stroke="#000000" d="M 56 200 L 2280 200 L 2280 1504 L 56 1504 L 56 200" stroke-miterlimit="10"/></g><g transform="translate(-2,10) scale(1,1)"><path fill="#ffffff" stroke="none" d="M 56 200 L 56 222 L 163.78076171875 222 L 174.78076171875 211 L 174.78076171875 200 L 56 200"/></g><g transform="translate(-2,10) scale(1,1)"><path fill="none" stroke="#000000" d="M 56 200 L 56 222 L 163.78076171875 222 L 174.78076171875 211 L 174.78076171875 200 L 56 200 L 56 200" stroke-miterlimit="10"/></g><g transform="translate(-2,10) scale(1,1)"><g><path fill="none" stroke="none"/><text fill="#000000" stroke="none" font-family="Arial" font-size="13px" font-style="normal" font-weight="normal" text-decoration="none" x="80.72998046875" y="217.5">parsedOption</text></g></g><g transform="translate(-2,10) scale(1,1)"><g><path fill="none" stroke="none"/><text fill="#000000" stroke="none" font-family="Arial" font-size="13px" font-style="normal" font-weight="bold" text-decoration="none" x="61" y="217.5">alt</text></g></g><g transform="translate(-2,10) scale(1,1)"><g><path fill="none" stroke="none"/><text fill="#000000" stroke="none" font-family="Arial" font-size="13px" font-style="normal" font-weight="normal" text-decoration="none" x="75.5" y="250.5">[parsedOption &gt;= ListGames &amp;&amp;  &lt;= DeletePublishedGame]</text></g></g><g transform="translate(-2,10) scale(1,1)"><path fill="none" stroke="#000000" d="M 56 1337 L 2280 1337" stroke-miterlimit="10" stroke-dasharray="10,3"/></g><g transform="translate(-2,10) scale(1,1)"><g><path fill="none" stroke="none"/><text fill="#000000" stroke="none" font-family="Arial" font-size="13px" font-style="normal" font-weight="normal" text-decoration="none" x="75.5" y="1364.5">[else]</text></g></g></g></svg>