<svg version="1.1" xmlns="http://www.w3.org/2000/svg" xmlns:xlink="http://www.w3.org/1999/xlink" width="856.647705078125" height="523"><defs/><g><g transform="translate(-201.882568359375,-18) scale(1,1)"><rect fill="#C0C0C0" stroke="none" x="553.6912841796875" y="35" width="26.131640625000045" height="15" opacity="0.2"/></g><g transform="translate(-201.882568359375,-18) scale(1,1)"><rect fill="#C0C0C0" stroke="none" x="553.6912841796875" y="49" width="65.3291015625" height="25" opacity="0.2"/></g><g transform="translate(-201.882568359375,-18) scale(1,1)"><rect fill="#ffffff" stroke="none" x="546.6912841796875" y="43" width="65.3291015625" height="24"/></g><g transform="translate(-201.882568359375,-18) scale(1,1)"><path fill="none" stroke="#000000" d="M 546.6912841796875 43 L 612.0203857421875 43 L 612.0203857421875 67 L 546.6912841796875 67 L 546.6912841796875 43 Z Z" stroke-miterlimit="10"/></g><g transform="translate(-201.882568359375,-18) scale(1,1)"><rect fill="#ffffff" stroke="none" x="546.6912841796875" y="28" width="26.131640625000045" height="15"/></g><g transform="translate(-201.882568359375,-18) scale(1,1)"><path fill="none" stroke="#000000" d="M 546.6912841796875 28 L 572.8229248046875 28 L 572.8229248046875 43 L 546.6912841796875 43 L 546.6912841796875 28 Z Z" stroke-miterlimit="10"/></g><g transform="translate(-201.882568359375,-18) scale(1,1)"><rect fill="#ffffff" stroke="none" x="546.6912841796875" y="42" width="65.3291015625" height="25"/></g><g transform="translate(-201.882568359375,-18) scale(1,1)"><path fill="none" stroke="#000000" d="M 546.6912841796875 42 L 612.0203857421875 42 L 612.0203857421875 67 L 546.6912841796875 67 L 546.6912841796875 42 Z Z" stroke-miterlimit="10"/></g><g transform="translate(-201.882568359375,-18) scale(1,1)"><g><path fill="none" stroke="none"/><text fill="#000000" stroke="none" font-family="Arial" font-size="13px" font-style="normal" font-weight="bold" text-decoration="none" x="552.9876708984375" y="62.5">Common</text></g></g><g transform="translate(-201.882568359375,-18) scale(1,1)"><rect fill="#C0C0C0" stroke="none" x="479" y="105" width="23.826171875" height="15" opacity="0.2"/></g><g transform="translate(-201.882568359375,-18) scale(1,1)"><rect fill="#C0C0C0" stroke="none" x="479" y="119" width="59.5654296875" height="25" opacity="0.2"/></g><g transform="translate(-201.882568359375,-18) scale(1,1)"><rect fill="#ffffff" stroke="none" x="472" y="113" width="59.5654296875" height="24"/></g><g transform="translate(-201.882568359375,-18) scale(1,1)"><path fill="none" stroke="#000000" d="M 472 113 L 531.5654296875 113 L 531.5654296875 137 L 472 137 L 472 113 Z Z" stroke-miterlimit="10"/></g><g transform="translate(-201.882568359375,-18) scale(1,1)"><rect fill="#ffffff" stroke="none" x="472" y="98" width="23.826171875" height="15"/></g><g transform="translate(-201.882568359375,-18) scale(1,1)"><path fill="none" stroke="#000000" d="M 472 98 L 495.826171875 98 L 495.826171875 113 L 472 113 L 472 98 Z Z" stroke-miterlimit="10"/></g><g transform="translate(-201.882568359375,-18) scale(1,1)"><rect fill="#ffffff" stroke="none" x="472" y="112" width="59.5654296875" height="25"/></g><g transform="translate(-201.882568359375,-18) scale(1,1)"><path fill="none" stroke="#000000" d="M 472 112 L 531.5654296875 112 L 531.5654296875 137 L 472 137 L 472 112 Z Z" stroke-miterlimit="10"/></g><g transform="translate(-201.882568359375,-18) scale(1,1)"><g><path fill="none" stroke="none"/><text fill="#000000" stroke="none" font-family="Arial" font-size="13px" font-style="normal" font-weight="bold" text-decoration="none" x="478.6708984375" y="132.5">FileUtils</text></g></g><g transform="translate(-201.882568359375,-18) scale(1,1)"><rect fill="#C0C0C0" stroke="none" x="475" y="175" width="28.16796875" height="15" opacity="0.2"/></g><g transform="translate(-201.882568359375,-18) scale(1,1)"><rect fill="#C0C0C0" stroke="none" x="475" y="189" width="70.419921875" height="25" opacity="0.2"/></g><g transform="translate(-201.882568359375,-18) scale(1,1)"><rect fill="#ffffff" stroke="none" x="468" y="183" width="70.419921875" height="24"/></g><g transform="translate(-201.882568359375,-18) scale(1,1)"><path fill="none" stroke="#000000" d="M 468 183 L 538.419921875 183 L 538.419921875 207 L 468 207 L 468 183 Z Z" stroke-miterlimit="10"/></g><g transform="translate(-201.882568359375,-18) scale(1,1)"><rect fill="#ffffff" stroke="none" x="468" y="168" width="28.16796875" height="15"/></g><g transform="translate(-201.882568359375,-18) scale(1,1)"><path fill="none" stroke="#000000" d="M 468 168 L 496.16796875 168 L 496.16796875 183 L 468 183 L 468 168 Z Z" stroke-miterlimit="10"/></g><g transform="translate(-201.882568359375,-18) scale(1,1)"><rect fill="#ffffff" stroke="none" x="468" y="182" width="70.419921875" height="25"/></g><g transform="translate(-201.882568359375,-18) scale(1,1)"><path fill="none" stroke="#000000" d="M 468 182 L 538.419921875 182 L 538.419921875 207 L 468 207 L 468 182 Z Z" stroke-miterlimit="10"/></g><g transform="translate(-201.882568359375,-18) scale(1,1)"><g><path fill="none" stroke="none"/><text fill="#000000" stroke="none" font-family="Arial" font-size="13px" font-style="normal" font-weight="bold" text-decoration="none" x="474.667724609375" y="202.5">Interfaces</text></g></g><g transform="translate(-201.882568359375,-18) scale(1,1)"><rect fill="#C0C0C0" stroke="none" x="567" y="105" width="35.383984374999955" height="15" opacity="0.2"/></g><g transform="translate(-201.882568359375,-18) scale(1,1)"><rect fill="#C0C0C0" stroke="none" x="567" y="119" width="88.4599609375" height="25" opacity="0.2"/></g><g transform="translate(-201.882568359375,-18) scale(1,1)"><rect fill="#ffffff" stroke="none" x="560" y="113" width="88.4599609375" height="24"/></g><g transform="translate(-201.882568359375,-18) scale(1,1)"><path fill="none" stroke="#000000" d="M 560 113 L 648.4599609375 113 L 648.4599609375 137 L 560 137 L 560 113 Z Z" stroke-miterlimit="10"/></g><g transform="translate(-201.882568359375,-18) scale(1,1)"><rect fill="#ffffff" stroke="none" x="560" y="98" width="35.383984374999955" height="15"/></g><g transform="translate(-201.882568359375,-18) scale(1,1)"><path fill="none" stroke="#000000" d="M 560 98 L 595.383984375 98 L 595.383984375 113 L 560 113 L 560 98 Z Z" stroke-miterlimit="10"/></g><g transform="translate(-201.882568359375,-18) scale(1,1)"><rect fill="#ffffff" stroke="none" x="560" y="112" width="88.4599609375" height="25"/></g><g transform="translate(-201.882568359375,-18) scale(1,1)"><path fill="none" stroke="#000000" d="M 560 112 L 648.4599609375 112 L 648.4599609375 137 L 560 137 L 560 112 Z Z" stroke-miterlimit="10"/></g><g transform="translate(-201.882568359375,-18) scale(1,1)"><g><path fill="none" stroke="none"/><text fill="#000000" stroke="none" font-family="Arial" font-size="13px" font-style="normal" font-weight="bold" text-decoration="none" x="567.753173828125" y="132.5">NetworkUtils</text></g></g><g transform="translate(-201.882568359375,-18) scale(1,1)"><rect fill="#C0C0C0" stroke="none" x="681" y="105" width="24.689453125" height="15" opacity="0.2"/></g><g transform="translate(-201.882568359375,-18) scale(1,1)"><rect fill="#C0C0C0" stroke="none" x="681" y="119" width="61.7236328125" height="25" opacity="0.2"/></g><g transform="translate(-201.882568359375,-18) scale(1,1)"><rect fill="#ffffff" stroke="none" x="674" y="113" width="61.7236328125" height="24"/></g><g transform="translate(-201.882568359375,-18) scale(1,1)"><path fill="none" stroke="#000000" d="M 674 113 L 735.7236328125 113 L 735.7236328125 137 L 674 137 L 674 113 Z Z" stroke-miterlimit="10"/></g><g transform="translate(-201.882568359375,-18) scale(1,1)"><rect fill="#ffffff" stroke="none" x="674" y="98" width="24.689453125" height="15"/></g><g transform="translate(-201.882568359375,-18) scale(1,1)"><path fill="none" stroke="#000000" d="M 674 98 L 698.689453125 98 L 698.689453125 113 L 674 113 L 674 98 Z Z" stroke-miterlimit="10"/></g><g transform="translate(-201.882568359375,-18) scale(1,1)"><rect fill="#ffffff" stroke="none" x="674" y="112" width="61.7236328125" height="25"/></g><g transform="translate(-201.882568359375,-18) scale(1,1)"><path fill="none" stroke="#000000" d="M 674 112 L 735.7236328125 112 L 735.7236328125 137 L 674 137 L 674 112 Z Z" stroke-miterlimit="10"/></g><g transform="translate(-201.882568359375,-18) scale(1,1)"><g><path fill="none" stroke="none"/><text fill="#000000" stroke="none" font-family="Arial" font-size="13px" font-style="normal" font-weight="bold" text-decoration="none" x="681.016845703125" y="132.5">Protocol</text></g></g><g transform="translate(-201.882568359375,-18) scale(1,1)"><rect fill="#C0C0C0" stroke="none" x="358.26513671875" y="219" width="38.55781250000001" height="15" opacity="0.2"/></g><g transform="translate(-201.882568359375,-18) scale(1,1)"><rect fill="#C0C0C0" stroke="none" x="358.26513671875" y="233" width="96.39453125" height="25" opacity="0.2"/></g><g transform="translate(-201.882568359375,-18) scale(1,1)"><rect fill="#ffffff" stroke="none" x="351.26513671875" y="227" width="96.39453125" height="24"/></g><g transform="translate(-201.882568359375,-18) scale(1,1)"><path fill="none" stroke="#000000" d="M 351.26513671875 227 L 447.65966796875 227 L 447.65966796875 251 L 351.26513671875 251 L 351.26513671875 227 Z Z" stroke-miterlimit="10"/></g><g transform="translate(-201.882568359375,-18) scale(1,1)"><rect fill="#ffffff" stroke="none" x="351.26513671875" y="212" width="38.55781250000001" height="15"/></g><g transform="translate(-201.882568359375,-18) scale(1,1)"><path fill="none" stroke="#000000" d="M 351.26513671875 212 L 389.82294921875 212 L 389.82294921875 227 L 351.26513671875 227 L 351.26513671875 212 Z Z" stroke-miterlimit="10"/></g><g transform="translate(-201.882568359375,-18) scale(1,1)"><rect fill="#ffffff" stroke="none" x="351.26513671875" y="226" width="96.39453125" height="25"/></g><g transform="translate(-201.882568359375,-18) scale(1,1)"><path fill="none" stroke="#000000" d="M 351.26513671875 226 L 447.65966796875 226 L 447.65966796875 251 L 351.26513671875 251 L 351.26513671875 226 Z Z" stroke-miterlimit="10"/></g><g transform="translate(-201.882568359375,-18) scale(1,1)"><g><path fill="none" stroke="none"/><text fill="#000000" stroke="none" font-family="Arial" font-size="13px" font-style="normal" font-weight="bold" text-decoration="none" x="358.99609375" y="246.5">ConsoleClient</text></g></g><g transform="translate(-201.882568359375,-18) scale(1,1)"><rect fill="#C0C0C0" stroke="none" x="377.76513671875" y="289" width="19.600000000000023" height="15" opacity="0.2"/></g><g transform="translate(-201.882568359375,-18) scale(1,1)"><rect fill="#C0C0C0" stroke="none" x="377.76513671875" y="303" width="49" height="25" opacity="0.2"/></g><g transform="translate(-201.882568359375,-18) scale(1,1)"><rect fill="#ffffff" stroke="none" x="370.76513671875" y="297" width="49" height="24"/></g><g transform="translate(-201.882568359375,-18) scale(1,1)"><path fill="none" stroke="#000000" d="M 370.76513671875 297 L 419.76513671875 297 L 419.76513671875 321 L 370.76513671875 321 L 370.76513671875 297 Z Z" stroke-miterlimit="10"/></g><g transform="translate(-201.882568359375,-18) scale(1,1)"><rect fill="#ffffff" stroke="none" x="370.76513671875" y="282" width="19.600000000000023" height="15"/></g><g transform="translate(-201.882568359375,-18) scale(1,1)"><path fill="none" stroke="#000000" d="M 370.76513671875 282 L 390.36513671875 282 L 390.36513671875 297 L 370.76513671875 297 L 370.76513671875 282 Z Z" stroke-miterlimit="10"/></g><g transform="translate(-201.882568359375,-18) scale(1,1)"><rect fill="#ffffff" stroke="none" x="370.76513671875" y="296" width="49" height="25"/></g><g transform="translate(-201.882568359375,-18) scale(1,1)"><path fill="none" stroke="#000000" d="M 370.76513671875 296 L 419.76513671875 296 L 419.76513671875 321 L 370.76513671875 321 L 370.76513671875 296 Z Z" stroke-miterlimit="10"/></g><g transform="translate(-201.882568359375,-18) scale(1,1)"><g><path fill="none" stroke="none"/><text fill="#000000" stroke="none" font-family="Arial" font-size="13px" font-style="normal" font-weight="bold" text-decoration="none" x="379.005615234375" y="316.5">Menu</text></g></g><g transform="translate(-201.882568359375,-18) scale(1,1)"><rect fill="#C0C0C0" stroke="none" x="218.882568359375" y="359" width="36.536718750000006" height="15" opacity="0.2"/></g><g transform="translate(-201.882568359375,-18) scale(1,1)"><rect fill="#C0C0C0" stroke="none" x="218.882568359375" y="373" width="91.341796875" height="25" opacity="0.2"/></g><g transform="translate(-201.882568359375,-18) scale(1,1)"><rect fill="#ffffff" stroke="none" x="211.882568359375" y="367" width="91.341796875" height="24"/></g><g transform="translate(-201.882568359375,-18) scale(1,1)"><path fill="none" stroke="#000000" d="M 211.882568359375 367 L 303.224365234375 367 L 303.224365234375 391 L 211.882568359375 391 L 211.882568359375 367 Z Z" stroke-miterlimit="10"/></g><g transform="translate(-201.882568359375,-18) scale(1,1)"><rect fill="#ffffff" stroke="none" x="211.882568359375" y="352" width="36.536718750000006" height="15"/></g><g transform="translate(-201.882568359375,-18) scale(1,1)"><path fill="none" stroke="#000000" d="M 211.882568359375 352 L 248.419287109375 352 L 248.419287109375 367 L 211.882568359375 367 L 211.882568359375 352 Z Z" stroke-miterlimit="10"/></g><g transform="translate(-201.882568359375,-18) scale(1,1)"><rect fill="#ffffff" stroke="none" x="211.882568359375" y="366" width="91.341796875" height="25"/></g><g transform="translate(-201.882568359375,-18) scale(1,1)"><path fill="none" stroke="#000000" d="M 211.882568359375 366 L 303.224365234375 366 L 303.224365234375 391 L 211.882568359375 391 L 211.882568359375 366 Z Z" stroke-miterlimit="10"/></g><g transform="translate(-201.882568359375,-18) scale(1,1)"><g><path fill="none" stroke="none"/><text fill="#000000" stroke="none" font-family="Arial" font-size="13px" font-style="normal" font-weight="bold" text-decoration="none" x="218.53125" y="386.5">MenuHandler</text></g></g><g transform="translate(-201.882568359375,-18) scale(1,1)"><rect fill="#C0C0C0" stroke="none" x="377.76513671875" y="359" width="19.600000000000023" height="15" opacity="0.2"/></g><g transform="translate(-201.882568359375,-18) scale(1,1)"><rect fill="#C0C0C0" stroke="none" x="377.76513671875" y="373" width="49" height="25" opacity="0.2"/></g><g transform="translate(-201.882568359375,-18) scale(1,1)"><rect fill="#ffffff" stroke="none" x="370.76513671875" y="367" width="49" height="24"/></g><g transform="translate(-201.882568359375,-18) scale(1,1)"><path fill="none" stroke="#000000" d="M 370.76513671875 367 L 419.76513671875 367 L 419.76513671875 391 L 370.76513671875 391 L 370.76513671875 367 Z Z" stroke-miterlimit="10"/></g><g transform="translate(-201.882568359375,-18) scale(1,1)"><rect fill="#ffffff" stroke="none" x="370.76513671875" y="352" width="19.600000000000023" height="15"/></g><g transform="translate(-201.882568359375,-18) scale(1,1)"><path fill="none" stroke="#000000" d="M 370.76513671875 352 L 390.36513671875 352 L 390.36513671875 367 L 370.76513671875 367 L 370.76513671875 352 Z Z" stroke-miterlimit="10"/></g><g transform="translate(-201.882568359375,-18) scale(1,1)"><rect fill="#ffffff" stroke="none" x="370.76513671875" y="366" width="49" height="25"/></g><g transform="translate(-201.882568359375,-18) scale(1,1)"><path fill="none" stroke="#000000" d="M 370.76513671875 366 L 419.76513671875 366 L 419.76513671875 391 L 370.76513671875 391 L 370.76513671875 366 Z Z" stroke-miterlimit="10"/></g><g transform="translate(-201.882568359375,-18) scale(1,1)"><g><path fill="none" stroke="none"/><text fill="#000000" stroke="none" font-family="Arial" font-size="13px" font-style="normal" font-weight="bold" text-decoration="none" x="379.72607421875" y="386.5">Logic</text></g></g><g transform="translate(-201.882568359375,-18) scale(1,1)"><rect fill="#C0C0C0" stroke="none" x="365.76513671875" y="429" width="31.915624999999977" height="15" opacity="0.2"/></g><g transform="translate(-201.882568359375,-18) scale(1,1)"><rect fill="#C0C0C0" stroke="none" x="365.76513671875" y="443" width="79.7890625" height="25" opacity="0.2"/></g><g transform="translate(-201.882568359375,-18) scale(1,1)"><rect fill="#ffffff" stroke="none" x="358.76513671875" y="437" width="79.7890625" height="24"/></g><g transform="translate(-201.882568359375,-18) scale(1,1)"><path fill="none" stroke="#000000" d="M 358.76513671875 437 L 438.55419921875 437 L 438.55419921875 461 L 358.76513671875 461 L 358.76513671875 437 Z Z" stroke-miterlimit="10"/></g><g transform="translate(-201.882568359375,-18) scale(1,1)"><rect fill="#ffffff" stroke="none" x="358.76513671875" y="422" width="31.915624999999977" height="15"/></g><g transform="translate(-201.882568359375,-18) scale(1,1)"><path fill="none" stroke="#000000" d="M 358.76513671875 422 L 390.68076171875 422 L 390.68076171875 437 L 358.76513671875 437 L 358.76513671875 422 Z Z" stroke-miterlimit="10"/></g><g transform="translate(-201.882568359375,-18) scale(1,1)"><rect fill="#ffffff" stroke="none" x="358.76513671875" y="436" width="79.7890625" height="25"/></g><g transform="translate(-201.882568359375,-18) scale(1,1)"><path fill="none" stroke="#000000" d="M 358.76513671875 436 L 438.55419921875 436 L 438.55419921875 461 L 358.76513671875 461 L 358.76513671875 436 Z Z" stroke-miterlimit="10"/></g><g transform="translate(-201.882568359375,-18) scale(1,1)"><g><path fill="none" stroke="none"/><text fill="#000000" stroke="none" font-family="Arial" font-size="13px" font-style="normal" font-weight="bold" text-decoration="none" x="365.426513671875" y="456.5">Commands</text></g></g><g transform="translate(-201.882568359375,-18) scale(1,1)"><rect fill="#C0C0C0" stroke="none" x="330.01513671875" y="499" width="22.38398437500001" height="15" opacity="0.2"/></g><g transform="translate(-201.882568359375,-18) scale(1,1)"><rect fill="#C0C0C0" stroke="none" x="330.01513671875" y="513" width="55.9599609375" height="25" opacity="0.2"/></g><g transform="translate(-201.882568359375,-18) scale(1,1)"><rect fill="#ffffff" stroke="none" x="323.01513671875" y="507" width="55.9599609375" height="24"/></g><g transform="translate(-201.882568359375,-18) scale(1,1)"><path fill="none" stroke="#000000" d="M 323.01513671875 507 L 378.97509765625 507 L 378.97509765625 531 L 323.01513671875 531 L 323.01513671875 507 Z Z" stroke-miterlimit="10"/></g><g transform="translate(-201.882568359375,-18) scale(1,1)"><rect fill="#ffffff" stroke="none" x="323.01513671875" y="492" width="22.38398437500001" height="15"/></g><g transform="translate(-201.882568359375,-18) scale(1,1)"><path fill="none" stroke="#000000" d="M 323.01513671875 492 L 345.39912109375 492 L 345.39912109375 507 L 323.01513671875 507 L 323.01513671875 492 Z Z" stroke-miterlimit="10"/></g><g transform="translate(-201.882568359375,-18) scale(1,1)"><rect fill="#ffffff" stroke="none" x="323.01513671875" y="506" width="55.9599609375" height="25"/></g><g transform="translate(-201.882568359375,-18) scale(1,1)"><path fill="none" stroke="#000000" d="M 323.01513671875 506 L 378.97509765625 506 L 378.97509765625 531 L 323.01513671875 531 L 323.01513671875 506 Z Z" stroke-miterlimit="10"/></g><g transform="translate(-201.882568359375,-18) scale(1,1)"><g><path fill="none" stroke="none"/><text fill="#000000" stroke="none" font-family="Arial" font-size="13px" font-style="normal" font-weight="bold" text-decoration="none" x="329.32421875" y="526.5">Factory</text></g></g><g transform="translate(-201.882568359375,-18) scale(1,1)"><rect fill="#C0C0C0" stroke="none" x="415.01513671875" y="499" width="28.74433593750001" height="15" opacity="0.2"/></g><g transform="translate(-201.882568359375,-18) scale(1,1)"><rect fill="#C0C0C0" stroke="none" x="415.01513671875" y="513" width="71.86083984375" height="25" opacity="0.2"/></g><g transform="translate(-201.882568359375,-18) scale(1,1)"><rect fill="#ffffff" stroke="none" x="408.01513671875" y="507" width="71.86083984375" height="24"/></g><g transform="translate(-201.882568359375,-18) scale(1,1)"><path fill="none" stroke="#000000" d="M 408.01513671875 507 L 479.8759765625 507 L 479.8759765625 531 L 408.01513671875 531 L 408.01513671875 507 Z Z" stroke-miterlimit="10"/></g><g transform="translate(-201.882568359375,-18) scale(1,1)"><rect fill="#ffffff" stroke="none" x="408.01513671875" y="492" width="28.74433593750001" height="15"/></g><g transform="translate(-201.882568359375,-18) scale(1,1)"><path fill="none" stroke="#000000" d="M 408.01513671875 492 L 436.75947265625 492 L 436.75947265625 507 L 408.01513671875 507 L 408.01513671875 492 Z Z" stroke-miterlimit="10"/></g><g transform="translate(-201.882568359375,-18) scale(1,1)"><rect fill="#ffffff" stroke="none" x="408.01513671875" y="506" width="71.86083984375" height="25"/></g><g transform="translate(-201.882568359375,-18) scale(1,1)"><path fill="none" stroke="#000000" d="M 408.01513671875 506 L 479.8759765625 506 L 479.8759765625 531 L 408.01513671875 531 L 408.01513671875 506 Z Z" stroke-miterlimit="10"/></g><g transform="translate(-201.882568359375,-18) scale(1,1)"><g><path fill="none" stroke="none"/><text fill="#000000" stroke="none" font-family="Arial" font-size="13px" font-style="normal" font-weight="bold" text-decoration="none" x="414.6796875" y="526.5">Strategies</text></g></g><g transform="translate(-201.882568359375,-18) scale(1,1)"><rect fill="#C0C0C0" stroke="none" x="499.382568359375" y="359" width="35.09707031250002" height="15" opacity="0.2"/></g><g transform="translate(-201.882568359375,-18) scale(1,1)"><rect fill="#C0C0C0" stroke="none" x="499.382568359375" y="373" width="87.74267578125" height="25" opacity="0.2"/></g><g transform="translate(-201.882568359375,-18) scale(1,1)"><rect fill="#ffffff" stroke="none" x="492.382568359375" y="367" width="87.74267578125" height="24"/></g><g transform="translate(-201.882568359375,-18) scale(1,1)"><path fill="none" stroke="#000000" d="M 492.382568359375 367 L 580.125244140625 367 L 580.125244140625 391 L 492.382568359375 391 L 492.382568359375 367 Z Z" stroke-miterlimit="10"/></g><g transform="translate(-201.882568359375,-18) scale(1,1)"><rect fill="#ffffff" stroke="none" x="492.382568359375" y="352" width="35.09707031250002" height="15"/></g><g transform="translate(-201.882568359375,-18) scale(1,1)"><path fill="none" stroke="#000000" d="M 492.382568359375 352 L 527.479638671875 352 L 527.479638671875 367 L 492.382568359375 367 L 492.382568359375 352 Z Z" stroke-miterlimit="10"/></g><g transform="translate(-201.882568359375,-18) scale(1,1)"><rect fill="#ffffff" stroke="none" x="492.382568359375" y="366" width="87.74267578125" height="25"/></g><g transform="translate(-201.882568359375,-18) scale(1,1)"><path fill="none" stroke="#000000" d="M 492.382568359375 366 L 580.125244140625 366 L 580.125244140625 391 L 492.382568359375 391 L 492.382568359375 366 Z Z" stroke-miterlimit="10"/></g><g transform="translate(-201.882568359375,-18) scale(1,1)"><g><path fill="none" stroke="none"/><text fill="#000000" stroke="none" font-family="Arial" font-size="13px" font-style="normal" font-weight="bold" text-decoration="none" x="499.758056640625" y="386.5">Presentation</text></g></g><g transform="translate(-201.882568359375,-18) scale(1,1)"><rect fill="#C0C0C0" stroke="none" x="794.26513671875" y="251" width="40.3046875" height="15" opacity="0.2"/></g><g transform="translate(-201.882568359375,-18) scale(1,1)"><rect fill="#C0C0C0" stroke="none" x="794.26513671875" y="265" width="100.76171875" height="25" opacity="0.2"/></g><g transform="translate(-201.882568359375,-18) scale(1,1)"><rect fill="#ffffff" stroke="none" x="787.26513671875" y="259" width="100.76171875" height="24"/></g><g transform="translate(-201.882568359375,-18) scale(1,1)"><path fill="none" stroke="#000000" d="M 787.26513671875 259 L 888.02685546875 259 L 888.02685546875 283 L 787.26513671875 283 L 787.26513671875 259 Z Z" stroke-miterlimit="10"/></g><g transform="translate(-201.882568359375,-18) scale(1,1)"><rect fill="#ffffff" stroke="none" x="787.26513671875" y="244" width="40.3046875" height="15"/></g><g transform="translate(-201.882568359375,-18) scale(1,1)"><path fill="none" stroke="#000000" d="M 787.26513671875 244 L 827.56982421875 244 L 827.56982421875 259 L 787.26513671875 259 L 787.26513671875 244 Z Z" stroke-miterlimit="10"/></g><g transform="translate(-201.882568359375,-18) scale(1,1)"><rect fill="#ffffff" stroke="none" x="787.26513671875" y="258" width="100.76171875" height="25"/></g><g transform="translate(-201.882568359375,-18) scale(1,1)"><path fill="none" stroke="#000000" d="M 787.26513671875 258 L 888.02685546875 258 L 888.02685546875 283 L 787.26513671875 283 L 787.26513671875 258 Z Z" stroke-miterlimit="10"/></g><g transform="translate(-201.882568359375,-18) scale(1,1)"><g><path fill="none" stroke="none"/><text fill="#000000" stroke="none" font-family="Arial" font-size="13px" font-style="normal" font-weight="bold" text-decoration="none" x="794.6533203125" y="278.5">ConsoleServer</text></g></g><g transform="translate(-201.882568359375,-18) scale(1,1)"><rect fill="#C0C0C0" stroke="none" x="609.76513671875" y="321" width="40.58652343749998" height="15" opacity="0.2"/></g><g transform="translate(-201.882568359375,-18) scale(1,1)"><rect fill="#C0C0C0" stroke="none" x="609.76513671875" y="335" width="101.46630859375" height="25" opacity="0.2"/></g><g transform="translate(-201.882568359375,-18) scale(1,1)"><rect fill="#ffffff" stroke="none" x="602.76513671875" y="329" width="101.46630859375" height="24"/></g><g transform="translate(-201.882568359375,-18) scale(1,1)"><path fill="none" stroke="#000000" d="M 602.76513671875 329 L 704.2314453125 329 L 704.2314453125 353 L 602.76513671875 353 L 602.76513671875 329 Z Z" stroke-miterlimit="10"/></g><g transform="translate(-201.882568359375,-18) scale(1,1)"><rect fill="#ffffff" stroke="none" x="602.76513671875" y="314" width="40.58652343749998" height="15"/></g><g transform="translate(-201.882568359375,-18) scale(1,1)"><path fill="none" stroke="#000000" d="M 602.76513671875 314 L 643.35166015625 314 L 643.35166015625 329 L 602.76513671875 329 L 602.76513671875 314 Z Z" stroke-miterlimit="10"/></g><g transform="translate(-201.882568359375,-18) scale(1,1)"><rect fill="#ffffff" stroke="none" x="602.76513671875" y="328" width="101.46630859375" height="25"/></g><g transform="translate(-201.882568359375,-18) scale(1,1)"><path fill="none" stroke="#000000" d="M 602.76513671875 328 L 704.2314453125 328 L 704.2314453125 353 L 602.76513671875 353 L 602.76513671875 328 Z Z" stroke-miterlimit="10"/></g><g transform="translate(-201.882568359375,-18) scale(1,1)"><g><path fill="none" stroke="none"/><text fill="#000000" stroke="none" font-family="Arial" font-size="13px" font-style="normal" font-weight="bold" text-decoration="none" x="611.584716796875" y="348.5">BusinessLogic</text></g></g><g transform="translate(-201.882568359375,-18) scale(1,1)"><rect fill="#C0C0C0" stroke="none" x="730.76513671875" y="321" width="22.668359375000023" height="15" opacity="0.2"/></g><g transform="translate(-201.882568359375,-18) scale(1,1)"><rect fill="#C0C0C0" stroke="none" x="730.76513671875" y="335" width="56.6708984375" height="25" opacity="0.2"/></g><g transform="translate(-201.882568359375,-18) scale(1,1)"><rect fill="#ffffff" stroke="none" x="723.76513671875" y="329" width="56.6708984375" height="24"/></g><g transform="translate(-201.882568359375,-18) scale(1,1)"><path fill="none" stroke="#000000" d="M 723.76513671875 329 L 780.43603515625 329 L 780.43603515625 353 L 723.76513671875 353 L 723.76513671875 329 Z Z" stroke-miterlimit="10"/></g><g transform="translate(-201.882568359375,-18) scale(1,1)"><rect fill="#ffffff" stroke="none" x="723.76513671875" y="314" width="22.668359375000023" height="15"/></g><g transform="translate(-201.882568359375,-18) scale(1,1)"><path fill="none" stroke="#000000" d="M 723.76513671875 314 L 746.43349609375 314 L 746.43349609375 329 L 723.76513671875 329 L 723.76513671875 314 Z Z" stroke-miterlimit="10"/></g><g transform="translate(-201.882568359375,-18) scale(1,1)"><rect fill="#ffffff" stroke="none" x="723.76513671875" y="328" width="56.6708984375" height="25"/></g><g transform="translate(-201.882568359375,-18) scale(1,1)"><path fill="none" stroke="#000000" d="M 723.76513671875 328 L 780.43603515625 328 L 780.43603515625 353 L 723.76513671875 353 L 723.76513671875 328 Z Z" stroke-miterlimit="10"/></g><g transform="translate(-201.882568359375,-18) scale(1,1)"><g><path fill="none" stroke="none"/><text fill="#000000" stroke="none" font-family="Arial" font-size="13px" font-style="normal" font-weight="bold" text-decoration="none" x="729.702880859375" y="348.5">Domain</text></g></g><g transform="translate(-201.882568359375,-18) scale(1,1)"><rect fill="#C0C0C0" stroke="none" x="815.76513671875" y="321" width="19.600000000000023" height="15" opacity="0.2"/></g><g transform="translate(-201.882568359375,-18) scale(1,1)"><rect fill="#C0C0C0" stroke="none" x="815.76513671875" y="335" width="49" height="25" opacity="0.2"/></g><g transform="translate(-201.882568359375,-18) scale(1,1)"><rect fill="#ffffff" stroke="none" x="808.76513671875" y="329" width="49" height="24"/></g><g transform="translate(-201.882568359375,-18) scale(1,1)"><path fill="none" stroke="#000000" d="M 808.76513671875 329 L 857.76513671875 329 L 857.76513671875 353 L 808.76513671875 353 L 808.76513671875 329 Z Z" stroke-miterlimit="10"/></g><g transform="translate(-201.882568359375,-18) scale(1,1)"><rect fill="#ffffff" stroke="none" x="808.76513671875" y="314" width="19.600000000000023" height="15"/></g><g transform="translate(-201.882568359375,-18) scale(1,1)"><path fill="none" stroke="#000000" d="M 808.76513671875 314 L 828.36513671875 314 L 828.36513671875 329 L 808.76513671875 329 L 808.76513671875 314 Z Z" stroke-miterlimit="10"/></g><g transform="translate(-201.882568359375,-18) scale(1,1)"><rect fill="#ffffff" stroke="none" x="808.76513671875" y="328" width="49" height="25"/></g><g transform="translate(-201.882568359375,-18) scale(1,1)"><path fill="none" stroke="#000000" d="M 808.76513671875 328 L 857.76513671875 328 L 857.76513671875 353 L 808.76513671875 353 L 808.76513671875 328 Z Z" stroke-miterlimit="10"/></g><g transform="translate(-201.882568359375,-18) scale(1,1)"><g><path fill="none" stroke="none"/><text fill="#000000" stroke="none" font-family="Arial" font-size="13px" font-style="normal" font-weight="bold" text-decoration="none" x="817.72607421875" y="348.5">Logic</text></g></g><g transform="translate(-201.882568359375,-18) scale(1,1)"><rect fill="#C0C0C0" stroke="none" x="803.76513671875" y="391" width="31.915624999999977" height="15" opacity="0.2"/></g><g transform="translate(-201.882568359375,-18) scale(1,1)"><rect fill="#C0C0C0" stroke="none" x="803.76513671875" y="405" width="79.7890625" height="25" opacity="0.2"/></g><g transform="translate(-201.882568359375,-18) scale(1,1)"><rect fill="#ffffff" stroke="none" x="796.76513671875" y="399" width="79.7890625" height="24"/></g><g transform="translate(-201.882568359375,-18) scale(1,1)"><path fill="none" stroke="#000000" d="M 796.76513671875 399 L 876.55419921875 399 L 876.55419921875 423 L 796.76513671875 423 L 796.76513671875 399 Z Z" stroke-miterlimit="10"/></g><g transform="translate(-201.882568359375,-18) scale(1,1)"><rect fill="#ffffff" stroke="none" x="796.76513671875" y="384" width="31.915624999999977" height="15"/></g><g transform="translate(-201.882568359375,-18) scale(1,1)"><path fill="none" stroke="#000000" d="M 796.76513671875 384 L 828.68076171875 384 L 828.68076171875 399 L 796.76513671875 399 L 796.76513671875 384 Z Z" stroke-miterlimit="10"/></g><g transform="translate(-201.882568359375,-18) scale(1,1)"><rect fill="#ffffff" stroke="none" x="796.76513671875" y="398" width="79.7890625" height="25"/></g><g transform="translate(-201.882568359375,-18) scale(1,1)"><path fill="none" stroke="#000000" d="M 796.76513671875 398 L 876.55419921875 398 L 876.55419921875 423 L 796.76513671875 423 L 796.76513671875 398 Z Z" stroke-miterlimit="10"/></g><g transform="translate(-201.882568359375,-18) scale(1,1)"><g><path fill="none" stroke="none"/><text fill="#000000" stroke="none" font-family="Arial" font-size="13px" font-style="normal" font-weight="bold" text-decoration="none" x="803.426513671875" y="418.5">Commands</text></g></g><g transform="translate(-201.882568359375,-18) scale(1,1)"><rect fill="#C0C0C0" stroke="none" x="717.51513671875" y="461" width="22.383984374999955" height="15" opacity="0.2"/></g><g transform="translate(-201.882568359375,-18) scale(1,1)"><rect fill="#C0C0C0" stroke="none" x="717.51513671875" y="475" width="55.9599609375" height="25" opacity="0.2"/></g><g transform="translate(-201.882568359375,-18) scale(1,1)"><rect fill="#ffffff" stroke="none" x="710.51513671875" y="469" width="55.9599609375" height="24"/></g><g transform="translate(-201.882568359375,-18) scale(1,1)"><path fill="none" stroke="#000000" d="M 710.51513671875 469 L 766.47509765625 469 L 766.47509765625 493 L 710.51513671875 493 L 710.51513671875 469 Z Z" stroke-miterlimit="10"/></g><g transform="translate(-201.882568359375,-18) scale(1,1)"><rect fill="#ffffff" stroke="none" x="710.51513671875" y="454" width="22.383984374999955" height="15"/></g><g transform="translate(-201.882568359375,-18) scale(1,1)"><path fill="none" stroke="#000000" d="M 710.51513671875 454 L 732.89912109375 454 L 732.89912109375 469 L 710.51513671875 469 L 710.51513671875 454 Z Z" stroke-miterlimit="10"/></g><g transform="translate(-201.882568359375,-18) scale(1,1)"><rect fill="#ffffff" stroke="none" x="710.51513671875" y="468" width="55.9599609375" height="25"/></g><g transform="translate(-201.882568359375,-18) scale(1,1)"><path fill="none" stroke="#000000" d="M 710.51513671875 468 L 766.47509765625 468 L 766.47509765625 493 L 710.51513671875 493 L 710.51513671875 468 Z Z" stroke-miterlimit="10"/></g><g transform="translate(-201.882568359375,-18) scale(1,1)"><g><path fill="none" stroke="none"/><text fill="#000000" stroke="none" font-family="Arial" font-size="13px" font-style="normal" font-weight="bold" text-decoration="none" x="716.82421875" y="488.5">Factory</text></g></g><g transform="translate(-201.882568359375,-18) scale(1,1)"><rect fill="#C0C0C0" stroke="none" x="853.01513671875" y="461" width="28.744335937499955" height="15" opacity="0.2"/></g><g transform="translate(-201.882568359375,-18) scale(1,1)"><rect fill="#C0C0C0" stroke="none" x="853.01513671875" y="475" width="71.86083984375" height="25" opacity="0.2"/></g><g transform="translate(-201.882568359375,-18) scale(1,1)"><rect fill="#ffffff" stroke="none" x="846.01513671875" y="469" width="71.86083984375" height="24"/></g><g transform="translate(-201.882568359375,-18) scale(1,1)"><path fill="none" stroke="#000000" d="M 846.01513671875 469 L 917.8759765625 469 L 917.8759765625 493 L 846.01513671875 493 L 846.01513671875 469 Z Z" stroke-miterlimit="10"/></g><g transform="translate(-201.882568359375,-18) scale(1,1)"><rect fill="#ffffff" stroke="none" x="846.01513671875" y="454" width="28.744335937499955" height="15"/></g><g transform="translate(-201.882568359375,-18) scale(1,1)"><path fill="none" stroke="#000000" d="M 846.01513671875 454 L 874.75947265625 454 L 874.75947265625 469 L 846.01513671875 469 L 846.01513671875 454 Z Z" stroke-miterlimit="10"/></g><g transform="translate(-201.882568359375,-18) scale(1,1)"><rect fill="#ffffff" stroke="none" x="846.01513671875" y="468" width="71.86083984375" height="25"/></g><g transform="translate(-201.882568359375,-18) scale(1,1)"><path fill="none" stroke="#000000" d="M 846.01513671875 468 L 917.8759765625 468 L 917.8759765625 493 L 846.01513671875 493 L 846.01513671875 468 Z Z" stroke-miterlimit="10"/></g><g transform="translate(-201.882568359375,-18) scale(1,1)"><g><path fill="none" stroke="none"/><text fill="#000000" stroke="none" font-family="Arial" font-size="13px" font-style="normal" font-weight="bold" text-decoration="none" x="852.6796875" y="488.5">Strategies</text></g></g><g transform="translate(-201.882568359375,-18) scale(1,1)"><rect fill="#C0C0C0" stroke="none" x="895.76513671875" y="321" width="35.09707031250002" height="15" opacity="0.2"/></g><g transform="translate(-201.882568359375,-18) scale(1,1)"><rect fill="#C0C0C0" stroke="none" x="895.76513671875" y="335" width="87.74267578125" height="25" opacity="0.2"/></g><g transform="translate(-201.882568359375,-18) scale(1,1)"><rect fill="#ffffff" stroke="none" x="888.76513671875" y="329" width="87.74267578125" height="24"/></g><g transform="translate(-201.882568359375,-18) scale(1,1)"><path fill="none" stroke="#000000" d="M 888.76513671875 329 L 976.5078125 329 L 976.5078125 353 L 888.76513671875 353 L 888.76513671875 329 Z Z" stroke-miterlimit="10"/></g><g transform="translate(-201.882568359375,-18) scale(1,1)"><rect fill="#ffffff" stroke="none" x="888.76513671875" y="314" width="35.09707031250002" height="15"/></g><g transform="translate(-201.882568359375,-18) scale(1,1)"><path fill="none" stroke="#000000" d="M 888.76513671875 314 L 923.86220703125 314 L 923.86220703125 329 L 888.76513671875 329 L 888.76513671875 314 Z Z" stroke-miterlimit="10"/></g><g transform="translate(-201.882568359375,-18) scale(1,1)"><rect fill="#ffffff" stroke="none" x="888.76513671875" y="328" width="87.74267578125" height="25"/></g><g transform="translate(-201.882568359375,-18) scale(1,1)"><path fill="none" stroke="#000000" d="M 888.76513671875 328 L 976.5078125 328 L 976.5078125 353 L 888.76513671875 353 L 888.76513671875 328 Z Z" stroke-miterlimit="10"/></g><g transform="translate(-201.882568359375,-18) scale(1,1)"><g><path fill="none" stroke="none"/><text fill="#000000" stroke="none" font-family="Arial" font-size="13px" font-style="normal" font-weight="bold" text-decoration="none" x="896.140625" y="348.5">Presentation</text></g></g><g transform="translate(-201.882568359375,-18) scale(1,1)"><rect fill="#C0C0C0" stroke="none" x="1006.5302734375" y="321" width="19.59999999999991" height="15" opacity="0.2"/></g><g transform="translate(-201.882568359375,-18) scale(1,1)"><rect fill="#C0C0C0" stroke="none" x="1006.5302734375" y="335" width="49" height="25" opacity="0.2"/></g><g transform="translate(-201.882568359375,-18) scale(1,1)"><rect fill="#ffffff" stroke="none" x="999.5302734375" y="329" width="49" height="24"/></g><g transform="translate(-201.882568359375,-18) scale(1,1)"><path fill="none" stroke="#000000" d="M 999.5302734375 329 L 1048.5302734375 329 L 1048.5302734375 353 L 999.5302734375 353 L 999.5302734375 329 Z Z" stroke-miterlimit="10"/></g><g transform="translate(-201.882568359375,-18) scale(1,1)"><rect fill="#ffffff" stroke="none" x="999.5302734375" y="314" width="19.600000000000023" height="15"/></g><g transform="translate(-201.882568359375,-18) scale(1,1)"><path fill="none" stroke="#000000" d="M 999.5302734375 314 L 1019.1302734375 314 L 1019.1302734375 329 L 999.5302734375 329 L 999.5302734375 314 Z Z" stroke-miterlimit="10"/></g><g transform="translate(-201.882568359375,-18) scale(1,1)"><rect fill="#ffffff" stroke="none" x="999.5302734375" y="328" width="49" height="25"/></g><g transform="translate(-201.882568359375,-18) scale(1,1)"><path fill="none" stroke="#000000" d="M 999.5302734375 328 L 1048.5302734375 328 L 1048.5302734375 353 L 999.5302734375 353 L 999.5302734375 328 Z Z" stroke-miterlimit="10"/></g><g transform="translate(-201.882568359375,-18) scale(1,1)"><g><path fill="none" stroke="none"/><text fill="#000000" stroke="none" font-family="Arial" font-size="13px" font-style="normal" font-weight="bold" text-decoration="none" x="1011.39208984375" y="348.5">Utils</text></g></g><g transform="translate(-201.882568359375,-18) scale(1,1)"><path fill="none" stroke="#000000" d="M 501 97 Q 501 83 546 62" stroke-miterlimit="10"/></g><g transform="translate(-201.882568359375,-18) scale(1,1)"><path fill="#FFFFFF" stroke="none" d="M 532.6567180200332 64.96019825731787 C 532.6567180200332 61.09420465731787 535.7907244200331 57.96019825731787 539.6567180200332 57.96019825731787 C 543.5227116200332 57.96019825731787 546.6567180200332 61.09420465731787 546.6567180200332 64.96019825731787 C 546.6567180200332 68.82619185731787 543.5227116200332 71.96019825731787 539.6567180200332 71.96019825731787 C 535.7907244200331 71.96019825731787 532.6567180200332 68.82619185731787 532.6567180200332 64.96019825731787 Z"/></g><g transform="translate(-201.882568359375,-18) scale(1,1)"><path fill="none" stroke="#000000" d="M 532.6567180200332 64.96019825731787 C 532.6567180200332 61.09420465731787 535.7907244200331 57.96019825731787 539.6567180200332 57.96019825731787 C 543.5227116200332 57.96019825731787 546.6567180200332 61.09420465731787 546.6567180200332 64.96019825731787 C 546.6567180200332 68.82619185731787 543.5227116200332 71.96019825731787 539.6567180200332 71.96019825731787 C 535.7907244200331 71.96019825731787 532.6567180200332 68.82619185731787 532.6567180200332 64.96019825731787 Z" stroke-miterlimit="10"/></g><g transform="translate(-201.882568359375,-18) scale(1,1)"><path fill="none" stroke="#000000" d="M 533.3134360400663 67.92039651463574 L 546 62" stroke-miterlimit="10"/></g><g transform="translate(-201.882568359375,-18) scale(1,1)"><path fill="none" stroke="#000000" d="M 542.616916277351 71.30348023728473 L 536.6965197627153 58.61691627735102" stroke-miterlimit="10"/></g><g transform="translate(-201.882568359375,-18) scale(1,1)"><path fill="none" stroke="#000000" d="M 502 167 Q 501 153 501 138" stroke-miterlimit="10"/></g><g transform="translate(-201.882568359375,-18) scale(1,1)"><path fill="#FFFFFF" stroke="none" d="M 494 145 C 494 141.1340064 497.1340064 138 501 138 C 504.8659936 138 508 141.1340064 508 145 C 508 148.8659936 504.8659936 152 501 152 C 497.1340064 152 494 148.8659936 494 145 Z"/></g><g transform="translate(-201.882568359375,-18) scale(1,1)"><path fill="none" stroke="#000000" d="M 494 145 C 494 141.1340064 497.1340064 138 501 138 C 504.8659936 138 508 141.1340064 508 145 C 508 148.8659936 504.8659936 152 501 152 C 497.1340064 152 494 148.8659936 494 145 Z" stroke-miterlimit="10"/></g><g transform="translate(-201.882568359375,-18) scale(1,1)"><path fill="none" stroke="#000000" d="M 501 152 L 501 138" stroke-miterlimit="10"/></g><g transform="translate(-201.882568359375,-18) scale(1,1)"><path fill="none" stroke="#000000" d="M 508 145 L 494 145" stroke-miterlimit="10"/></g><g transform="translate(-201.882568359375,-18) scale(1,1)"><path fill="none" stroke="#000000" d="M 603 97 Q 602 83 592 68" stroke-miterlimit="10"/></g><g transform="translate(-201.882568359375,-18) scale(1,1)"><path fill="#FFFFFF" stroke="none" d="M 588.8829013735766 73.8243520603649 C 588.8829013735766 69.9583584603649 592.0169077735766 66.8243520603649 595.8829013735766 66.8243520603649 C 599.7488949735766 66.8243520603649 602.8829013735766 69.9583584603649 602.8829013735766 73.8243520603649 C 602.8829013735766 77.6903456603649 599.7488949735766 80.8243520603649 595.8829013735766 80.8243520603649 C 592.0169077735766 80.8243520603649 588.8829013735766 77.6903456603649 588.8829013735766 73.8243520603649 Z"/></g><g transform="translate(-201.882568359375,-18) scale(1,1)"><path fill="none" stroke="#000000" d="M 588.8829013735766 73.8243520603649 C 588.8829013735766 69.9583584603649 592.0169077735766 66.8243520603649 595.8829013735766 66.8243520603649 C 599.7488949735766 66.8243520603649 602.8829013735766 69.9583584603649 602.8829013735766 73.8243520603649 C 602.8829013735766 77.6903456603649 599.7488949735766 80.8243520603649 595.8829013735766 80.8243520603649 C 592.0169077735766 80.8243520603649 588.8829013735766 77.6903456603649 588.8829013735766 73.8243520603649 Z" stroke-miterlimit="10"/></g><g transform="translate(-201.882568359375,-18) scale(1,1)"><path fill="none" stroke="#000000" d="M 599.7658027471532 79.6487041207298 L 592 68" stroke-miterlimit="10"/></g><g transform="translate(-201.882568359375,-18) scale(1,1)"><path fill="none" stroke="#000000" d="M 601.7072534339416 69.9414506867883 L 590.0585493132116 77.7072534339415" stroke-miterlimit="10"/></g><g transform="translate(-201.882568359375,-18) scale(1,1)"><path fill="none" stroke="#000000" d="M 703 97 Q 703 83 613 57" stroke-miterlimit="10"/></g><g transform="translate(-201.882568359375,-18) scale(1,1)"><path fill="#FFFFFF" stroke="none" d="M 612.724999279888 58.94277756974543 C 612.724999279888 55.07678396974543 615.859005679888 51.942777569745424 619.724999279888 51.942777569745424 C 623.5909928798881 51.942777569745424 626.724999279888 55.07678396974543 626.724999279888 58.94277756974543 C 626.724999279888 62.808771169745434 623.5909928798881 65.94277756974543 619.724999279888 65.94277756974543 C 615.859005679888 65.94277756974543 612.724999279888 62.808771169745434 612.724999279888 58.94277756974543 Z"/></g><g transform="translate(-201.882568359375,-18) scale(1,1)"><path fill="none" stroke="#000000" d="M 612.724999279888 58.94277756974543 C 612.724999279888 55.07678396974543 615.859005679888 51.942777569745424 619.724999279888 51.942777569745424 C 623.5909928798881 51.942777569745424 626.724999279888 55.07678396974543 626.724999279888 58.94277756974543 C 626.724999279888 62.808771169745434 623.5909928798881 65.94277756974543 619.724999279888 65.94277756974543 C 615.859005679888 65.94277756974543 612.724999279888 62.808771169745434 612.724999279888 58.94277756974543 Z" stroke-miterlimit="10"/></g><g transform="translate(-201.882568359375,-18) scale(1,1)"><path fill="none" stroke="#000000" d="M 626.449998559776 60.88555513949084 L 613 57" stroke-miterlimit="10"/></g><g transform="translate(-201.882568359375,-18) scale(1,1)"><path fill="none" stroke="#000000" d="M 621.6677768496335 52.21777828985743 L 617.7822217101426 65.66777684963343" stroke-miterlimit="10"/></g><g transform="translate(-201.882568359375,-18) scale(1,1)"><path fill="none" stroke="#000000" d="M 396 281 Q 396 267 397 252" stroke-miterlimit="10"/></g><g transform="translate(-201.882568359375,-18) scale(1,1)"><path fill="#FFFFFF" stroke="none" d="M 389.5343669263336 258.98449610499625 C 389.5343669263336 255.11850250499626 392.66837332633355 251.98449610499625 396.5343669263336 251.98449610499625 C 400.4003605263336 251.98449610499625 403.5343669263336 255.11850250499626 403.5343669263336 258.98449610499625 C 403.5343669263336 262.8504897049963 400.4003605263336 265.98449610499625 396.5343669263336 265.98449610499625 C 392.66837332633355 265.98449610499625 389.5343669263336 262.8504897049963 389.5343669263336 258.98449610499625 Z"/></g><g transform="translate(-201.882568359375,-18) scale(1,1)"><path fill="none" stroke="#000000" d="M 389.5343669263336 258.98449610499625 C 389.5343669263336 255.11850250499626 392.66837332633355 251.98449610499625 396.5343669263336 251.98449610499625 C 400.4003605263336 251.98449610499625 403.5343669263336 255.11850250499626 403.5343669263336 258.98449610499625 C 403.5343669263336 262.8504897049963 400.4003605263336 265.98449610499625 396.5343669263336 265.98449610499625 C 392.66837332633355 265.98449610499625 389.5343669263336 262.8504897049963 389.5343669263336 258.98449610499625 Z" stroke-miterlimit="10"/></g><g transform="translate(-201.882568359375,-18) scale(1,1)"><path fill="none" stroke="#000000" d="M 396.06873385266715 265.9689922099925 L 397 252" stroke-miterlimit="10"/></g><g transform="translate(-201.882568359375,-18) scale(1,1)"><path fill="none" stroke="#000000" d="M 403.51886303132983 259.4501291786627 L 389.5498708213373 258.51886303132983" stroke-miterlimit="10"/></g><g transform="translate(-201.882568359375,-18) scale(1,1)"><path fill="none" stroke="#000000" d="M 256 351 Q 256 337 370 308" stroke-miterlimit="10"/></g><g transform="translate(-201.882568359375,-18) scale(1,1)"><path fill="#FFFFFF" stroke="none" d="M 356.2160612075124 309.72573881563284 C 356.2160612075124 305.8597452156328 359.35006760751236 302.72573881563284 363.2160612075124 302.72573881563284 C 367.0820548075124 302.72573881563284 370.2160612075124 305.8597452156328 370.2160612075124 309.72573881563284 C 370.2160612075124 313.59173241563286 367.0820548075124 316.72573881563284 363.2160612075124 316.72573881563284 C 359.35006760751236 316.72573881563284 356.2160612075124 313.59173241563286 356.2160612075124 309.72573881563284 Z"/></g><g transform="translate(-201.882568359375,-18) scale(1,1)"><path fill="none" stroke="#000000" d="M 356.2160612075124 309.72573881563284 C 356.2160612075124 305.8597452156328 359.35006760751236 302.72573881563284 363.2160612075124 302.72573881563284 C 367.0820548075124 302.72573881563284 370.2160612075124 305.8597452156328 370.2160612075124 309.72573881563284 C 370.2160612075124 313.59173241563286 367.0820548075124 316.72573881563284 363.2160612075124 316.72573881563284 C 359.35006760751236 316.72573881563284 356.2160612075124 313.59173241563286 356.2160612075124 309.72573881563284 Z" stroke-miterlimit="10"/></g><g transform="translate(-201.882568359375,-18) scale(1,1)"><path fill="none" stroke="#000000" d="M 356.43212241502476 311.4514776312656 L 370 308" stroke-miterlimit="10"/></g><g transform="translate(-201.882568359375,-18) scale(1,1)"><path fill="none" stroke="#000000" d="M 364.9418000231452 316.50967760812046 L 361.49032239187954 302.9418000231452" stroke-miterlimit="10"/></g><g transform="translate(-201.882568359375,-18) scale(1,1)"><path fill="none" stroke="#000000" d="M 396 351 Q 396 337 396 322" stroke-miterlimit="10"/></g><g transform="translate(-201.882568359375,-18) scale(1,1)"><path fill="#FFFFFF" stroke="none" d="M 389 329 C 389 325.1340064 392.1340064 322 396 322 C 399.8659936 322 403 325.1340064 403 329 C 403 332.8659936 399.8659936 336 396 336 C 392.1340064 336 389 332.8659936 389 329 Z"/></g><g transform="translate(-201.882568359375,-18) scale(1,1)"><path fill="none" stroke="#000000" d="M 389 329 C 389 325.1340064 392.1340064 322 396 322 C 399.8659936 322 403 325.1340064 403 329 C 403 332.8659936 399.8659936 336 396 336 C 392.1340064 336 389 332.8659936 389 329 Z" stroke-miterlimit="10"/></g><g transform="translate(-201.882568359375,-18) scale(1,1)"><path fill="none" stroke="#000000" d="M 396 336 L 396 322" stroke-miterlimit="10"/></g><g transform="translate(-201.882568359375,-18) scale(1,1)"><path fill="none" stroke="#000000" d="M 403 329 L 389 329" stroke-miterlimit="10"/></g><g transform="translate(-201.882568359375,-18) scale(1,1)"><path fill="none" stroke="#000000" d="M 397 421 Q 396 407 396 392" stroke-miterlimit="10"/></g><g transform="translate(-201.882568359375,-18) scale(1,1)"><path fill="#FFFFFF" stroke="none" d="M 389 399 C 389 395.1340064 392.1340064 392 396 392 C 399.8659936 392 403 395.1340064 403 399 C 403 402.8659936 399.8659936 406 396 406 C 392.1340064 406 389 402.8659936 389 399 Z"/></g><g transform="translate(-201.882568359375,-18) scale(1,1)"><path fill="none" stroke="#000000" d="M 389 399 C 389 395.1340064 392.1340064 392 396 392 C 399.8659936 392 403 395.1340064 403 399 C 403 402.8659936 399.8659936 406 396 406 C 392.1340064 406 389 402.8659936 389 399 Z" stroke-miterlimit="10"/></g><g transform="translate(-201.882568359375,-18) scale(1,1)"><path fill="none" stroke="#000000" d="M 396 406 L 396 392" stroke-miterlimit="10"/></g><g transform="translate(-201.882568359375,-18) scale(1,1)"><path fill="none" stroke="#000000" d="M 403 399 L 389 399" stroke-miterlimit="10"/></g><g transform="translate(-201.882568359375,-18) scale(1,1)"><path fill="none" stroke="#000000" d="M 351 491 Q 351 477 371 462" stroke-miterlimit="10"/></g><g transform="translate(-201.882568359375,-18) scale(1,1)"><path fill="#FFFFFF" stroke="none" d="M 358.4 466.2 C 358.4 462.33400639999996 361.53400639999995 459.2 365.4 459.2 C 369.2659936 459.2 372.4 462.33400639999996 372.4 466.2 C 372.4 470.0659936 369.2659936 473.2 365.4 473.2 C 361.53400639999995 473.2 358.4 470.0659936 358.4 466.2 Z"/></g><g transform="translate(-201.882568359375,-18) scale(1,1)"><path fill="none" stroke="#000000" d="M 358.4 466.2 C 358.4 462.33400639999996 361.53400639999995 459.2 365.4 459.2 C 369.2659936 459.2 372.4 462.33400639999996 372.4 466.2 C 372.4 470.0659936 369.2659936 473.2 365.4 473.2 C 361.53400639999995 473.2 358.4 470.0659936 358.4 466.2 Z" stroke-miterlimit="10"/></g><g transform="translate(-201.882568359375,-18) scale(1,1)"><path fill="none" stroke="#000000" d="M 359.8 470.4 L 371 462" stroke-miterlimit="10"/></g><g transform="translate(-201.882568359375,-18) scale(1,1)"><path fill="none" stroke="#000000" d="M 369.59999999999997 471.8 L 361.2 460.59999999999997" stroke-miterlimit="10"/></g><g transform="translate(-201.882568359375,-18) scale(1,1)"><path fill="none" stroke="#000000" d="M 442 491 Q 441 477 423 462" stroke-miterlimit="10"/></g><g transform="translate(-201.882568359375,-18) scale(1,1)"><path fill="#FFFFFF" stroke="none" d="M 421.3775489571816 466.48129079765135 C 421.3775489571816 462.61529719765133 424.5115553571816 459.48129079765135 428.3775489571816 459.48129079765135 C 432.2435425571816 459.48129079765135 435.3775489571816 462.61529719765133 435.3775489571816 466.48129079765135 C 435.3775489571816 470.3472843976514 432.2435425571816 473.48129079765135 428.3775489571816 473.48129079765135 C 424.5115553571816 473.48129079765135 421.3775489571816 470.3472843976514 421.3775489571816 466.48129079765135 Z"/></g><g transform="translate(-201.882568359375,-18) scale(1,1)"><path fill="none" stroke="#000000" d="M 421.3775489571816 466.48129079765135 C 421.3775489571816 462.61529719765133 424.5115553571816 459.48129079765135 428.3775489571816 459.48129079765135 C 432.2435425571816 459.48129079765135 435.3775489571816 462.61529719765133 435.3775489571816 466.48129079765135 C 435.3775489571816 470.3472843976514 432.2435425571816 473.48129079765135 428.3775489571816 473.48129079765135 C 424.5115553571816 473.48129079765135 421.3775489571816 470.3472843976514 421.3775489571816 466.48129079765135 Z" stroke-miterlimit="10"/></g><g transform="translate(-201.882568359375,-18) scale(1,1)"><path fill="none" stroke="#000000" d="M 433.75509791436326 470.9625815953027 L 423 462" stroke-miterlimit="10"/></g><g transform="translate(-201.882568359375,-18) scale(1,1)"><path fill="none" stroke="#000000" d="M 432.85883975483296 461.10374184046975 L 423.89625815953025 471.85883975483296" stroke-miterlimit="10"/></g><g transform="translate(-201.882568359375,-18) scale(1,1)"><path fill="none" stroke="#000000" d="M 534 351 Q 533 337 421 308" stroke-miterlimit="10"/></g><g transform="translate(-201.882568359375,-18) scale(1,1)"><path fill="#FFFFFF" stroke="none" d="M 420.7765223482511 309.75463525088645 C 420.7765223482511 305.8886416508864 423.91052874825107 302.75463525088645 427.7765223482511 302.75463525088645 C 431.6425159482511 302.75463525088645 434.7765223482511 305.8886416508864 434.7765223482511 309.75463525088645 C 434.7765223482511 313.6206288508865 431.6425159482511 316.75463525088645 427.7765223482511 316.75463525088645 C 423.91052874825107 316.75463525088645 420.7765223482511 313.6206288508865 420.7765223482511 309.75463525088645 Z"/></g><g transform="translate(-201.882568359375,-18) scale(1,1)"><path fill="none" stroke="#000000" d="M 420.7765223482511 309.75463525088645 C 420.7765223482511 305.8886416508864 423.91052874825107 302.75463525088645 427.7765223482511 302.75463525088645 C 431.6425159482511 302.75463525088645 434.7765223482511 305.8886416508864 434.7765223482511 309.75463525088645 C 434.7765223482511 313.6206288508865 431.6425159482511 316.75463525088645 427.7765223482511 316.75463525088645 C 423.91052874825107 316.75463525088645 420.7765223482511 313.6206288508865 420.7765223482511 309.75463525088645 Z" stroke-miterlimit="10"/></g><g transform="translate(-201.882568359375,-18) scale(1,1)"><path fill="none" stroke="#000000" d="M 434.5530446965022 311.5092705017729 L 421 308" stroke-miterlimit="10"/></g><g transform="translate(-201.882568359375,-18) scale(1,1)"><path fill="none" stroke="#000000" d="M 429.53115759913754 302.97811290263536 L 426.02188709736464 316.53115759913754" stroke-miterlimit="10"/></g><g transform="translate(-201.882568359375,-18) scale(1,1)"><path fill="none" stroke="#000000" d="M 650 313 Q 648 299 786 273" stroke-miterlimit="10"/></g><g transform="translate(-201.882568359375,-18) scale(1,1)"><path fill="#FFFFFF" stroke="none" d="M 772.1210259503572 274.29603858906313 C 772.1210259503572 270.4300449890631 775.2550323503572 267.29603858906313 779.1210259503572 267.29603858906313 C 782.9870195503572 267.29603858906313 786.1210259503572 270.4300449890631 786.1210259503572 274.29603858906313 C 786.1210259503572 278.16203218906315 782.9870195503572 281.29603858906313 779.1210259503572 281.29603858906313 C 775.2550323503572 281.29603858906313 772.1210259503572 278.16203218906315 772.1210259503572 274.29603858906313 Z"/></g><g transform="translate(-201.882568359375,-18) scale(1,1)"><path fill="none" stroke="#000000" d="M 772.1210259503572 274.29603858906313 C 772.1210259503572 270.4300449890631 775.2550323503572 267.29603858906313 779.1210259503572 267.29603858906313 C 782.9870195503572 267.29603858906313 786.1210259503572 270.4300449890631 786.1210259503572 274.29603858906313 C 786.1210259503572 278.16203218906315 782.9870195503572 281.29603858906313 779.1210259503572 281.29603858906313 C 775.2550323503572 281.29603858906313 772.1210259503572 278.16203218906315 772.1210259503572 274.29603858906313 Z" stroke-miterlimit="10"/></g><g transform="translate(-201.882568359375,-18) scale(1,1)"><path fill="none" stroke="#000000" d="M 772.2420519007144 275.59207717812626 L 786 273" stroke-miterlimit="10"/></g><g transform="translate(-201.882568359375,-18) scale(1,1)"><path fill="none" stroke="#000000" d="M 780.4170645394204 281.17501263870594 L 777.824987361294 267.4170645394203" stroke-miterlimit="10"/></g><g transform="translate(-201.882568359375,-18) scale(1,1)"><path fill="none" stroke="#000000" d="M 751 313 Q 751 299 787 284" stroke-miterlimit="10"/></g><g transform="translate(-201.882568359375,-18) scale(1,1)"><path fill="#FFFFFF" stroke="none" d="M 773.5384615384615 286.6923076923077 C 773.5384615384615 282.82631409230765 776.6724679384615 279.6923076923077 780.5384615384615 279.6923076923077 C 784.4044551384616 279.6923076923077 787.5384615384615 282.82631409230765 787.5384615384615 286.6923076923077 C 787.5384615384615 290.5583012923077 784.4044551384616 293.6923076923077 780.5384615384615 293.6923076923077 C 776.6724679384615 293.6923076923077 773.5384615384615 290.5583012923077 773.5384615384615 286.6923076923077 Z"/></g><g transform="translate(-201.882568359375,-18) scale(1,1)"><path fill="none" stroke="#000000" d="M 773.5384615384615 286.6923076923077 C 773.5384615384615 282.82631409230765 776.6724679384615 279.6923076923077 780.5384615384615 279.6923076923077 C 784.4044551384616 279.6923076923077 787.5384615384615 282.82631409230765 787.5384615384615 286.6923076923077 C 787.5384615384615 290.5583012923077 784.4044551384616 293.6923076923077 780.5384615384615 293.6923076923077 C 776.6724679384615 293.6923076923077 773.5384615384615 290.5583012923077 773.5384615384615 286.6923076923077 Z" stroke-miterlimit="10"/></g><g transform="translate(-201.882568359375,-18) scale(1,1)"><path fill="none" stroke="#000000" d="M 774.0769230769231 289.3846153846154 L 787 284" stroke-miterlimit="10"/></g><g transform="translate(-201.882568359375,-18) scale(1,1)"><path fill="none" stroke="#000000" d="M 783.2307692307693 293.15384615384613 L 777.8461538461538 280.2307692307692" stroke-miterlimit="10"/></g><g transform="translate(-201.882568359375,-18) scale(1,1)"><path fill="none" stroke="#000000" d="M 834 313 Q 834 299 835 284" stroke-miterlimit="10"/></g><g transform="translate(-201.882568359375,-18) scale(1,1)"><path fill="#FFFFFF" stroke="none" d="M 827.5343669263336 290.98449610499625 C 827.5343669263336 287.11850250499623 830.6683733263336 283.98449610499625 834.5343669263336 283.98449610499625 C 838.4003605263337 283.98449610499625 841.5343669263336 287.11850250499623 841.5343669263336 290.98449610499625 C 841.5343669263336 294.8504897049963 838.4003605263337 297.98449610499625 834.5343669263336 297.98449610499625 C 830.6683733263336 297.98449610499625 827.5343669263336 294.8504897049963 827.5343669263336 290.98449610499625 Z"/></g><g transform="translate(-201.882568359375,-18) scale(1,1)"><path fill="none" stroke="#000000" d="M 827.5343669263336 290.98449610499625 C 827.5343669263336 287.11850250499623 830.6683733263336 283.98449610499625 834.5343669263336 283.98449610499625 C 838.4003605263337 283.98449610499625 841.5343669263336 287.11850250499623 841.5343669263336 290.98449610499625 C 841.5343669263336 294.8504897049963 838.4003605263337 297.98449610499625 834.5343669263336 297.98449610499625 C 830.6683733263336 297.98449610499625 827.5343669263336 294.8504897049963 827.5343669263336 290.98449610499625 Z" stroke-miterlimit="10"/></g><g transform="translate(-201.882568359375,-18) scale(1,1)"><path fill="none" stroke="#000000" d="M 834.0687338526672 297.9689922099925 L 835 284" stroke-miterlimit="10"/></g><g transform="translate(-201.882568359375,-18) scale(1,1)"><path fill="none" stroke="#000000" d="M 841.5188630313299 291.4501291786627 L 827.5498708213373 290.51886303132983" stroke-miterlimit="10"/></g><g transform="translate(-201.882568359375,-18) scale(1,1)"><path fill="none" stroke="#000000" d="M 835 383 Q 834 369 834 354" stroke-miterlimit="10"/></g><g transform="translate(-201.882568359375,-18) scale(1,1)"><path fill="#FFFFFF" stroke="none" d="M 827 361 C 827 357.1340064 830.1340064 354 834 354 C 837.8659936 354 841 357.1340064 841 361 C 841 364.8659936 837.8659936 368 834 368 C 830.1340064 368 827 364.8659936 827 361 Z"/></g><g transform="translate(-201.882568359375,-18) scale(1,1)"><path fill="none" stroke="#000000" d="M 827 361 C 827 357.1340064 830.1340064 354 834 354 C 837.8659936 354 841 357.1340064 841 361 C 841 364.8659936 837.8659936 368 834 368 C 830.1340064 368 827 364.8659936 827 361 Z" stroke-miterlimit="10"/></g><g transform="translate(-201.882568359375,-18) scale(1,1)"><path fill="none" stroke="#000000" d="M 834 368 L 834 354" stroke-miterlimit="10"/></g><g transform="translate(-201.882568359375,-18) scale(1,1)"><path fill="none" stroke="#000000" d="M 841 361 L 827 361" stroke-miterlimit="10"/></g><g transform="translate(-201.882568359375,-18) scale(1,1)"><path fill="none" stroke="#000000" d="M 738 453 Q 738 439 796 418" stroke-miterlimit="10"/></g><g transform="translate(-201.882568359375,-18) scale(1,1)"><path fill="#FFFFFF" stroke="none" d="M 782.4181390503062 420.38308758523397 C 782.4181390503062 416.51709398523394 785.5521454503062 413.38308758523397 789.4181390503062 413.38308758523397 C 793.2841326503062 413.38308758523397 796.4181390503062 416.51709398523394 796.4181390503062 420.38308758523397 C 796.4181390503062 424.249081185234 793.2841326503062 427.38308758523397 789.4181390503062 427.38308758523397 C 785.5521454503062 427.38308758523397 782.4181390503062 424.249081185234 782.4181390503062 420.38308758523397 Z"/></g><g transform="translate(-201.882568359375,-18) scale(1,1)"><path fill="none" stroke="#000000" d="M 782.4181390503062 420.38308758523397 C 782.4181390503062 416.51709398523394 785.5521454503062 413.38308758523397 789.4181390503062 413.38308758523397 C 793.2841326503062 413.38308758523397 796.4181390503062 416.51709398523394 796.4181390503062 420.38308758523397 C 796.4181390503062 424.249081185234 793.2841326503062 427.38308758523397 789.4181390503062 427.38308758523397 C 785.5521454503062 427.38308758523397 782.4181390503062 424.249081185234 782.4181390503062 420.38308758523397 Z" stroke-miterlimit="10"/></g><g transform="translate(-201.882568359375,-18) scale(1,1)"><path fill="none" stroke="#000000" d="M 782.8362781006125 422.76617517046793 L 796 418" stroke-miterlimit="10"/></g><g transform="translate(-201.882568359375,-18) scale(1,1)"><path fill="none" stroke="#000000" d="M 791.8012266355402 426.9649485349277 L 787.0350514650722 413.8012266355402" stroke-miterlimit="10"/></g><g transform="translate(-201.882568359375,-18) scale(1,1)"><path fill="none" stroke="#000000" d="M 880 453 Q 879 439 861 424" stroke-miterlimit="10"/></g><g transform="translate(-201.882568359375,-18) scale(1,1)"><path fill="#FFFFFF" stroke="none" d="M 859.3775489571816 428.48129079765135 C 859.3775489571816 424.61529719765133 862.5115553571816 421.48129079765135 866.3775489571816 421.48129079765135 C 870.2435425571816 421.48129079765135 873.3775489571816 424.61529719765133 873.3775489571816 428.48129079765135 C 873.3775489571816 432.3472843976514 870.2435425571816 435.48129079765135 866.3775489571816 435.48129079765135 C 862.5115553571816 435.48129079765135 859.3775489571816 432.3472843976514 859.3775489571816 428.48129079765135 Z"/></g><g transform="translate(-201.882568359375,-18) scale(1,1)"><path fill="none" stroke="#000000" d="M 859.3775489571816 428.48129079765135 C 859.3775489571816 424.61529719765133 862.5115553571816 421.48129079765135 866.3775489571816 421.48129079765135 C 870.2435425571816 421.48129079765135 873.3775489571816 424.61529719765133 873.3775489571816 428.48129079765135 C 873.3775489571816 432.3472843976514 870.2435425571816 435.48129079765135 866.3775489571816 435.48129079765135 C 862.5115553571816 435.48129079765135 859.3775489571816 432.3472843976514 859.3775489571816 428.48129079765135 Z" stroke-miterlimit="10"/></g><g transform="translate(-201.882568359375,-18) scale(1,1)"><path fill="none" stroke="#000000" d="M 871.7550979143632 432.9625815953027 L 861 424" stroke-miterlimit="10"/></g><g transform="translate(-201.882568359375,-18) scale(1,1)"><path fill="none" stroke="#000000" d="M 870.858839754833 423.10374184046975 L 861.8962581595302 433.85883975483296" stroke-miterlimit="10"/></g><g transform="translate(-201.882568359375,-18) scale(1,1)"><path fill="none" stroke="#000000" d="M 930 313 Q 929 299 889 283" stroke-miterlimit="10"/></g><g transform="translate(-201.882568359375,-18) scale(1,1)"><path fill="#FFFFFF" stroke="none" d="M 888.4993368361968 285.5997347344787 C 888.4993368361968 281.7337411344787 891.6333432361968 278.5997347344787 895.4993368361968 278.5997347344787 C 899.3653304361968 278.5997347344787 902.4993368361968 281.7337411344787 902.4993368361968 285.5997347344787 C 902.4993368361968 289.46572833447874 899.3653304361968 292.5997347344787 895.4993368361968 292.5997347344787 C 891.6333432361968 292.5997347344787 888.4993368361968 289.46572833447874 888.4993368361968 285.5997347344787 Z"/></g><g transform="translate(-201.882568359375,-18) scale(1,1)"><path fill="none" stroke="#000000" d="M 888.4993368361968 285.5997347344787 C 888.4993368361968 281.7337411344787 891.6333432361968 278.5997347344787 895.4993368361968 278.5997347344787 C 899.3653304361968 278.5997347344787 902.4993368361968 281.7337411344787 902.4993368361968 285.5997347344787 C 902.4993368361968 289.46572833447874 899.3653304361968 292.5997347344787 895.4993368361968 292.5997347344787 C 891.6333432361968 292.5997347344787 888.4993368361968 289.46572833447874 888.4993368361968 285.5997347344787 Z" stroke-miterlimit="10"/></g><g transform="translate(-201.882568359375,-18) scale(1,1)"><path fill="none" stroke="#000000" d="M 901.9986736723936 288.19946946895743 L 889 283" stroke-miterlimit="10"/></g><g transform="translate(-201.882568359375,-18) scale(1,1)"><path fill="none" stroke="#000000" d="M 898.0990715706755 279.1003978982819 L 892.8996021017181 292.0990715706755" stroke-miterlimit="10"/></g><g transform="translate(-201.882568359375,-18) scale(1,1)"><path fill="none" stroke="#000000" d="M 1025 313 Q 1025 299 889 273" stroke-miterlimit="10"/></g><g transform="translate(-201.882568359375,-18) scale(1,1)"><path fill="#FFFFFF" stroke="none" d="M 888.8754834057996 274.31443065110875 C 888.8754834057996 270.4484370511087 892.0094898057996 267.31443065110875 895.8754834057996 267.31443065110875 C 899.7414770057997 267.31443065110875 902.8754834057996 270.4484370511087 902.8754834057996 274.31443065110875 C 902.8754834057996 278.1804242511088 899.7414770057997 281.31443065110875 895.8754834057996 281.31443065110875 C 892.0094898057996 281.31443065110875 888.8754834057996 278.1804242511088 888.8754834057996 274.31443065110875 Z"/></g><g transform="translate(-201.882568359375,-18) scale(1,1)"><path fill="none" stroke="#000000" d="M 888.8754834057996 274.31443065110875 C 888.8754834057996 270.4484370511087 892.0094898057996 267.31443065110875 895.8754834057996 267.31443065110875 C 899.7414770057997 267.31443065110875 902.8754834057996 270.4484370511087 902.8754834057996 274.31443065110875 C 902.8754834057996 278.1804242511088 899.7414770057997 281.31443065110875 895.8754834057996 281.31443065110875 C 892.0094898057996 281.31443065110875 888.8754834057996 278.1804242511088 888.8754834057996 274.31443065110875 Z" stroke-miterlimit="10"/></g><g transform="translate(-201.882568359375,-18) scale(1,1)"><path fill="none" stroke="#000000" d="M 902.7509668115993 275.6288613022175 L 889 273" stroke-miterlimit="10"/></g><g transform="translate(-201.882568359375,-18) scale(1,1)"><path fill="none" stroke="#000000" d="M 897.1899140569084 267.4389472453091 L 894.5610527546909 281.1899140569084" stroke-miterlimit="10"/></g></g></svg>