<svg version="1.1" xmlns="http://www.w3.org/2000/svg" xmlns:xlink="http://www.w3.org/1999/xlink" width="1493" height="1063"><defs/><g><g transform="translate(-22,-150) scale(1,1)"><rect fill="#C0C0C0" stroke="none" x="359" y="535" width="462.76220703125" height="87" opacity="0.2"/></g><g transform="translate(-22,-150) scale(1,1)"><rect fill="#ffffff" stroke="none" x="352" y="528" width="462.76220703125" height="87"/></g><g transform="translate(-22,-150) scale(1,1)"><path fill="none" stroke="#000000" d="M 352 528 L 814.76220703125 528 L 814.76220703125 615 L 352 615 L 352 528 Z Z" stroke-miterlimit="10"/></g><g transform="translate(-22,-150) scale(1,1)"><path fill="none" stroke="#000000" d="M 352 568 L 814.76220703125 568" stroke-miterlimit="10"/></g><g transform="translate(-22,-150) scale(1,1)"><path fill="none" stroke="#000000" d="M 352 578 L 814.76220703125 578" stroke-miterlimit="10"/></g><g transform="translate(-22,-150) scale(1,1)"><g><path fill="none" stroke="none"/><text fill="#000000" stroke="none" font-family="Arial" font-size="13px" font-style="normal" font-weight="bold" text-decoration="none" x="554.115234375" y="547.5">AddGame</text></g></g><g transform="translate(-22,-150) scale(1,1)"><g><path fill="none" stroke="none"/><text fill="#000000" stroke="none" font-family="Arial" font-size="13px" font-style="normal" font-weight="normal" text-decoration="none" x="534.980224609375" y="562.5">(from Strategies)</text></g></g><g transform="translate(-22,-150) scale(1,1)"><g><path fill="none" stroke="none"/><text fill="#000000" stroke="none" font-family="Arial" font-size="13px" font-style="normal" font-weight="normal" text-decoration="none" x="357" y="595.5">+HandleRequest(header: Header, clientSocketHandler: ISocketHandler): void</text></g></g><g transform="translate(-22,-150) scale(1,1)"><g><path fill="none" stroke="none"/><text fill="#000000" stroke="none" font-family="Arial" font-size="13px" font-style="normal" font-weight="normal" text-decoration="none" x="357" y="610.5">-UploadImage(clientSocketHandler: ISocketHandler, gameName: string): string</text></g></g><g transform="translate(-22,-150) scale(1,1)"><rect fill="#C0C0C0" stroke="none" x="359" y="639" width="454.50390625" height="72" opacity="0.2"/></g><g transform="translate(-22,-150) scale(1,1)"><rect fill="#ffffff" stroke="none" x="352" y="632" width="454.50390625" height="72"/></g><g transform="translate(-22,-150) scale(1,1)"><path fill="none" stroke="#000000" d="M 352 632 L 806.50390625 632 L 806.50390625 704 L 352 704 L 352 632 Z Z" stroke-miterlimit="10"/></g><g transform="translate(-22,-150) scale(1,1)"><path fill="none" stroke="#000000" d="M 352 672 L 806.50390625 672" stroke-miterlimit="10"/></g><g transform="translate(-22,-150) scale(1,1)"><path fill="none" stroke="#000000" d="M 352 682 L 806.50390625 682" stroke-miterlimit="10"/></g><g transform="translate(-22,-150) scale(1,1)"><g><path fill="none" stroke="none"/><text fill="#000000" stroke="none" font-family="Arial" font-size="13px" font-style="normal" font-weight="bold" text-decoration="none" x="550.35107421875" y="651.5">BuyGame</text></g></g><g transform="translate(-22,-150) scale(1,1)"><g><path fill="none" stroke="none"/><text fill="#000000" stroke="none" font-family="Arial" font-size="13px" font-style="normal" font-weight="normal" text-decoration="none" x="530.85107421875" y="666.5">(from Strategies)</text></g></g><g transform="translate(-22,-150) scale(1,1)"><g><path fill="none" stroke="none"/><text fill="#000000" stroke="none" font-family="Arial" font-size="13px" font-style="normal" font-weight="normal" text-decoration="none" x="357" y="699.5">+HandleRequest(header: Header, clientSocketHandler: ISocketHandler): void</text></g></g><g transform="translate(-22,-150) scale(1,1)"><rect fill="#C0C0C0" stroke="none" x="663" y="343" width="454.50390625" height="87" opacity="0.2"/></g><g transform="translate(-22,-150) scale(1,1)"><rect fill="#ffffff" stroke="none" x="656" y="336" width="454.50390625" height="87"/></g><g transform="translate(-22,-150) scale(1,1)"><path fill="none" stroke="#000000" d="M 656 336 L 1110.50390625 336 L 1110.50390625 423 L 656 423 L 656 336 Z Z" stroke-miterlimit="10"/></g><g transform="translate(-22,-150) scale(1,1)"><path fill="none" stroke="#000000" d="M 656 376 L 1110.50390625 376" stroke-miterlimit="10"/></g><g transform="translate(-22,-150) scale(1,1)"><path fill="none" stroke="#000000" d="M 656 386 L 1110.50390625 386" stroke-miterlimit="10"/></g><g transform="translate(-22,-150) scale(1,1)"><g><path fill="none" stroke="none"/><text fill="#000000" stroke="none" font-family="Arial" font-size="13px" font-style="italic" font-weight="bold" text-decoration="none" x="829.06201171875" y="355.5">CommandStrategy</text></g></g><g transform="translate(-22,-150) scale(1,1)"><g><path fill="none" stroke="none"/><text fill="#000000" stroke="none" font-family="Arial" font-size="13px" font-style="normal" font-weight="normal" text-decoration="none" x="834.85107421875" y="370.5">(from Strategies)</text></g></g><g transform="translate(-22,-150) scale(1,1)"><g><path fill="none" stroke="none"/><text fill="#000000" stroke="none" font-family="Arial" font-size="13px" font-style="normal" font-weight="normal" text-decoration="none" x="661" y="403.5">«constructor»+CommandStrategy()</text></g></g><g transform="translate(-22,-150) scale(1,1)"><g><path fill="none" stroke="none"/><text fill="#000000" stroke="none" font-family="Arial" font-size="13px" font-style="italic" font-weight="normal" text-decoration="none" x="661" y="418.5">+HandleRequest(header: Header, clientSocketHandler: ISocketHandler): void</text></g></g><g transform="translate(-22,-150) scale(1,1)"><path fill="none" stroke="#000000" d="M 800 528 L 800 423" stroke-miterlimit="10"/></g><g transform="translate(-22,-150) scale(1,1)"><path fill="#FFFFFF" stroke="none" d="M 808.419035512032 443.3253497152483 L 800 423 L 791.580964487968 443.3253497152483"/></g><g transform="translate(-22,-150) scale(1,1)"><path fill="none" stroke="#000000" d="M 808.419035512032 443.3253497152483 L 800 423 L 791.580964487968 443.3253497152483 L 808.419035512032 443.3253497152483" stroke-miterlimit="10"/></g><g transform="translate(-22,-150) scale(1,1)"><path fill="none" stroke="#000000" d="M 807 668 L 816 668 L 816 423" stroke-miterlimit="10"/></g><g transform="translate(-22,-150) scale(1,1)"><path fill="#FFFFFF" stroke="none" d="M 824.419035512032 443.3253497152483 L 816 423 L 807.580964487968 443.3253497152483"/></g><g transform="translate(-22,-150) scale(1,1)"><path fill="none" stroke="#000000" d="M 824.419035512032 443.3253497152483 L 816 423 L 807.580964487968 443.3253497152483 L 824.419035512032 443.3253497152483" stroke-miterlimit="10"/></g><g transform="translate(-22,-150) scale(1,1)"><rect fill="#C0C0C0" stroke="none" x="359" y="727" width="454.50390625" height="72" opacity="0.2"/></g><g transform="translate(-22,-150) scale(1,1)"><rect fill="#ffffff" stroke="none" x="352" y="720" width="454.50390625" height="72"/></g><g transform="translate(-22,-150) scale(1,1)"><path fill="none" stroke="#000000" d="M 352 720 L 806.50390625 720 L 806.50390625 792 L 352 792 L 352 720 Z Z" stroke-miterlimit="10"/></g><g transform="translate(-22,-150) scale(1,1)"><path fill="none" stroke="#000000" d="M 352 760 L 806.50390625 760" stroke-miterlimit="10"/></g><g transform="translate(-22,-150) scale(1,1)"><path fill="none" stroke="#000000" d="M 352 770 L 806.50390625 770" stroke-miterlimit="10"/></g><g transform="translate(-22,-150) scale(1,1)"><g><path fill="none" stroke="none"/><text fill="#000000" stroke="none" font-family="Arial" font-size="13px" font-style="normal" font-weight="bold" text-decoration="none" x="514.2138671875" y="739.5">DeleteGamePublished</text></g></g><g transform="translate(-22,-150) scale(1,1)"><g><path fill="none" stroke="none"/><text fill="#000000" stroke="none" font-family="Arial" font-size="13px" font-style="normal" font-weight="normal" text-decoration="none" x="530.85107421875" y="754.5">(from Strategies)</text></g></g><g transform="translate(-22,-150) scale(1,1)"><g><path fill="none" stroke="none"/><text fill="#000000" stroke="none" font-family="Arial" font-size="13px" font-style="normal" font-weight="normal" text-decoration="none" x="357" y="787.5">+HandleRequest(header: Header, clientSocketHandler: ISocketHandler): void</text></g></g><g transform="translate(-22,-150) scale(1,1)"><path fill="none" stroke="#000000" d="M 807 756 L 831 756 L 831 423" stroke-miterlimit="10"/></g><g transform="translate(-22,-150) scale(1,1)"><path fill="#FFFFFF" stroke="none" d="M 839.419035512032 443.3253497152483 L 831 423 L 822.580964487968 443.3253497152483"/></g><g transform="translate(-22,-150) scale(1,1)"><path fill="none" stroke="#000000" d="M 839.419035512032 443.3253497152483 L 831 423 L 822.580964487968 443.3253497152483 L 839.419035512032 443.3253497152483" stroke-miterlimit="10"/></g><g transform="translate(-22,-150) scale(1,1)"><rect fill="#C0C0C0" stroke="none" x="359" y="815" width="454.50390625" height="72" opacity="0.2"/></g><g transform="translate(-22,-150) scale(1,1)"><rect fill="#ffffff" stroke="none" x="352" y="808" width="454.50390625" height="72"/></g><g transform="translate(-22,-150) scale(1,1)"><path fill="none" stroke="#000000" d="M 352 808 L 806.50390625 808 L 806.50390625 880 L 352 880 L 352 808 Z Z" stroke-miterlimit="10"/></g><g transform="translate(-22,-150) scale(1,1)"><path fill="none" stroke="#000000" d="M 352 848 L 806.50390625 848" stroke-miterlimit="10"/></g><g transform="translate(-22,-150) scale(1,1)"><path fill="none" stroke="#000000" d="M 352 858 L 806.50390625 858" stroke-miterlimit="10"/></g><g transform="translate(-22,-150) scale(1,1)"><g><path fill="none" stroke="none"/><text fill="#000000" stroke="none" font-family="Arial" font-size="13px" font-style="normal" font-weight="bold" text-decoration="none" x="531.20654296875" y="827.5">GetGameDetails</text></g></g><g transform="translate(-22,-150) scale(1,1)"><g><path fill="none" stroke="none"/><text fill="#000000" stroke="none" font-family="Arial" font-size="13px" font-style="normal" font-weight="normal" text-decoration="none" x="530.85107421875" y="842.5">(from Strategies)</text></g></g><g transform="translate(-22,-150) scale(1,1)"><g><path fill="none" stroke="none"/><text fill="#000000" stroke="none" font-family="Arial" font-size="13px" font-style="normal" font-weight="normal" text-decoration="none" x="357" y="875.5">+HandleRequest(header: Header, clientSocketHandler: ISocketHandler): void</text></g></g><g transform="translate(-22,-150) scale(1,1)"><path fill="none" stroke="#000000" d="M 807 844 L 848 844 L 848 423" stroke-miterlimit="10"/></g><g transform="translate(-22,-150) scale(1,1)"><path fill="#FFFFFF" stroke="none" d="M 856.419035512032 443.3253497152483 L 848 423 L 839.580964487968 443.3253497152483"/></g><g transform="translate(-22,-150) scale(1,1)"><path fill="none" stroke="#000000" d="M 856.419035512032 443.3253497152483 L 848 423 L 839.580964487968 443.3253497152483 L 856.419035512032 443.3253497152483" stroke-miterlimit="10"/></g><g transform="translate(-22,-150) scale(1,1)"><rect fill="#C0C0C0" stroke="none" x="359" y="903" width="454.50390625" height="72" opacity="0.2"/></g><g transform="translate(-22,-150) scale(1,1)"><rect fill="#ffffff" stroke="none" x="352" y="896" width="454.50390625" height="72"/></g><g transform="translate(-22,-150) scale(1,1)"><path fill="none" stroke="#000000" d="M 352 896 L 806.50390625 896 L 806.50390625 968 L 352 968 L 352 896 Z Z" stroke-miterlimit="10"/></g><g transform="translate(-22,-150) scale(1,1)"><path fill="none" stroke="#000000" d="M 352 936 L 806.50390625 936" stroke-miterlimit="10"/></g><g transform="translate(-22,-150) scale(1,1)"><path fill="none" stroke="#000000" d="M 352 946 L 806.50390625 946" stroke-miterlimit="10"/></g><g transform="translate(-22,-150) scale(1,1)"><g><path fill="none" stroke="none"/><text fill="#000000" stroke="none" font-family="Arial" font-size="13px" font-style="normal" font-weight="bold" text-decoration="none" x="533.00927734375" y="915.5">GetGameImage</text></g></g><g transform="translate(-22,-150) scale(1,1)"><g><path fill="none" stroke="none"/><text fill="#000000" stroke="none" font-family="Arial" font-size="13px" font-style="normal" font-weight="normal" text-decoration="none" x="530.85107421875" y="930.5">(from Strategies)</text></g></g><g transform="translate(-22,-150) scale(1,1)"><g><path fill="none" stroke="none"/><text fill="#000000" stroke="none" font-family="Arial" font-size="13px" font-style="normal" font-weight="normal" text-decoration="none" x="357" y="963.5">+HandleRequest(header: Header, clientSocketHandler: ISocketHandler): void</text></g></g><g transform="translate(-22,-150) scale(1,1)"><path fill="none" stroke="#000000" d="M 807 932 L 864 932 L 864 423" stroke-miterlimit="10"/></g><g transform="translate(-22,-150) scale(1,1)"><path fill="#FFFFFF" stroke="none" d="M 872.419035512032 443.3253497152483 L 864 423 L 855.580964487968 443.3253497152483"/></g><g transform="translate(-22,-150) scale(1,1)"><path fill="none" stroke="#000000" d="M 872.419035512032 443.3253497152483 L 864 423 L 855.580964487968 443.3253497152483 L 872.419035512032 443.3253497152483" stroke-miterlimit="10"/></g><g transform="translate(-22,-150) scale(1,1)"><rect fill="#C0C0C0" stroke="none" x="991" y="535" width="454.50390625" height="72" opacity="0.2"/></g><g transform="translate(-22,-150) scale(1,1)"><rect fill="#ffffff" stroke="none" x="984" y="528" width="454.50390625" height="72"/></g><g transform="translate(-22,-150) scale(1,1)"><path fill="none" stroke="#000000" d="M 984 528 L 1438.50390625 528 L 1438.50390625 600 L 984 600 L 984 528 Z Z" stroke-miterlimit="10"/></g><g transform="translate(-22,-150) scale(1,1)"><path fill="none" stroke="#000000" d="M 984 568 L 1438.50390625 568" stroke-miterlimit="10"/></g><g transform="translate(-22,-150) scale(1,1)"><path fill="none" stroke="#000000" d="M 984 578 L 1438.50390625 578" stroke-miterlimit="10"/></g><g transform="translate(-22,-150) scale(1,1)"><g><path fill="none" stroke="none"/><text fill="#000000" stroke="none" font-family="Arial" font-size="13px" font-style="normal" font-weight="bold" text-decoration="none" x="1158.512451171875" y="547.5">ListFilteredGames</text></g></g><g transform="translate(-22,-150) scale(1,1)"><g><path fill="none" stroke="none"/><text fill="#000000" stroke="none" font-family="Arial" font-size="13px" font-style="normal" font-weight="normal" text-decoration="none" x="1162.85107421875" y="562.5">(from Strategies)</text></g></g><g transform="translate(-22,-150) scale(1,1)"><g><path fill="none" stroke="none"/><text fill="#000000" stroke="none" font-family="Arial" font-size="13px" font-style="normal" font-weight="normal" text-decoration="none" x="989" y="595.5">+HandleRequest(header: Header, clientSocketHandler: ISocketHandler): void</text></g></g><g transform="translate(-22,-150) scale(1,1)"><path fill="none" stroke="#000000" d="M 984 564 L 976 564 L 976 423" stroke-miterlimit="10"/></g><g transform="translate(-22,-150) scale(1,1)"><path fill="#FFFFFF" stroke="none" d="M 984.419035512032 443.3253497152483 L 976 423 L 967.580964487968 443.3253497152483"/></g><g transform="translate(-22,-150) scale(1,1)"><path fill="none" stroke="#000000" d="M 984.419035512032 443.3253497152483 L 976 423 L 967.580964487968 443.3253497152483 L 984.419035512032 443.3253497152483" stroke-miterlimit="10"/></g><g transform="translate(-22,-150) scale(1,1)"><rect fill="#C0C0C0" stroke="none" x="991" y="623" width="454.50390625" height="72" opacity="0.2"/></g><g transform="translate(-22,-150) scale(1,1)"><rect fill="#ffffff" stroke="none" x="984" y="616" width="454.50390625" height="72"/></g><g transform="translate(-22,-150) scale(1,1)"><path fill="none" stroke="#000000" d="M 984 616 L 1438.50390625 616 L 1438.50390625 688 L 984 688 L 984 616 Z Z" stroke-miterlimit="10"/></g><g transform="translate(-22,-150) scale(1,1)"><path fill="none" stroke="#000000" d="M 984 656 L 1438.50390625 656" stroke-miterlimit="10"/></g><g transform="translate(-22,-150) scale(1,1)"><path fill="none" stroke="#000000" d="M 984 666 L 1438.50390625 666" stroke-miterlimit="10"/></g><g transform="translate(-22,-150) scale(1,1)"><g><path fill="none" stroke="none"/><text fill="#000000" stroke="none" font-family="Arial" font-size="13px" font-style="normal" font-weight="bold" text-decoration="none" x="1180.1865234375" y="635.5">ListGames</text></g></g><g transform="translate(-22,-150) scale(1,1)"><g><path fill="none" stroke="none"/><text fill="#000000" stroke="none" font-family="Arial" font-size="13px" font-style="normal" font-weight="normal" text-decoration="none" x="1162.85107421875" y="650.5">(from Strategies)</text></g></g><g transform="translate(-22,-150) scale(1,1)"><g><path fill="none" stroke="none"/><text fill="#000000" stroke="none" font-family="Arial" font-size="13px" font-style="normal" font-weight="normal" text-decoration="none" x="989" y="683.5">+HandleRequest(header: Header, clientSocketHandler: ISocketHandler): void</text></g></g><g transform="translate(-22,-150) scale(1,1)"><path fill="none" stroke="#000000" d="M 984 652 L 960 652 L 960 423" stroke-miterlimit="10"/></g><g transform="translate(-22,-150) scale(1,1)"><path fill="#FFFFFF" stroke="none" d="M 968.419035512032 443.3253497152483 L 960 423 L 951.580964487968 443.3253497152483"/></g><g transform="translate(-22,-150) scale(1,1)"><path fill="none" stroke="#000000" d="M 968.419035512032 443.3253497152483 L 960 423 L 951.580964487968 443.3253497152483 L 968.419035512032 443.3253497152483" stroke-miterlimit="10"/></g><g transform="translate(-22,-150) scale(1,1)"><rect fill="#C0C0C0" stroke="none" x="991" y="711" width="454.50390625" height="72" opacity="0.2"/></g><g transform="translate(-22,-150) scale(1,1)"><rect fill="#ffffff" stroke="none" x="984" y="704" width="454.50390625" height="72"/></g><g transform="translate(-22,-150) scale(1,1)"><path fill="none" stroke="#000000" d="M 984 704 L 1438.50390625 704 L 1438.50390625 776 L 984 776 L 984 704 Z Z" stroke-miterlimit="10"/></g><g transform="translate(-22,-150) scale(1,1)"><path fill="none" stroke="#000000" d="M 984 744 L 1438.50390625 744" stroke-miterlimit="10"/></g><g transform="translate(-22,-150) scale(1,1)"><path fill="none" stroke="#000000" d="M 984 754 L 1438.50390625 754" stroke-miterlimit="10"/></g><g transform="translate(-22,-150) scale(1,1)"><g><path fill="none" stroke="none"/><text fill="#000000" stroke="none" font-family="Arial" font-size="13px" font-style="normal" font-weight="bold" text-decoration="none" x="1159.591552734375" y="723.5">ListOwnedGames</text></g></g><g transform="translate(-22,-150) scale(1,1)"><g><path fill="none" stroke="none"/><text fill="#000000" stroke="none" font-family="Arial" font-size="13px" font-style="normal" font-weight="normal" text-decoration="none" x="1162.85107421875" y="738.5">(from Strategies)</text></g></g><g transform="translate(-22,-150) scale(1,1)"><g><path fill="none" stroke="none"/><text fill="#000000" stroke="none" font-family="Arial" font-size="13px" font-style="normal" font-weight="normal" text-decoration="none" x="989" y="771.5">+HandleRequest(header: Header, clientSocketHandler: ISocketHandler): void</text></g></g><g transform="translate(-22,-150) scale(1,1)"><path fill="none" stroke="#000000" d="M 984 740 L 944 740 L 944 423" stroke-miterlimit="10"/></g><g transform="translate(-22,-150) scale(1,1)"><path fill="#FFFFFF" stroke="none" d="M 952.419035512032 443.3253497152483 L 944 423 L 935.580964487968 443.3253497152483"/></g><g transform="translate(-22,-150) scale(1,1)"><path fill="none" stroke="#000000" d="M 952.419035512032 443.3253497152483 L 944 423 L 935.580964487968 443.3253497152483 L 952.419035512032 443.3253497152483" stroke-miterlimit="10"/></g><g transform="translate(-22,-150) scale(1,1)"><rect fill="#C0C0C0" stroke="none" x="991" y="807" width="454.50390625" height="72" opacity="0.2"/></g><g transform="translate(-22,-150) scale(1,1)"><rect fill="#ffffff" stroke="none" x="984" y="800" width="454.50390625" height="72"/></g><g transform="translate(-22,-150) scale(1,1)"><path fill="none" stroke="#000000" d="M 984 800 L 1438.50390625 800 L 1438.50390625 872 L 984 872 L 984 800 Z Z" stroke-miterlimit="10"/></g><g transform="translate(-22,-150) scale(1,1)"><path fill="none" stroke="#000000" d="M 984 840 L 1438.50390625 840" stroke-miterlimit="10"/></g><g transform="translate(-22,-150) scale(1,1)"><path fill="none" stroke="#000000" d="M 984 850 L 1438.50390625 850" stroke-miterlimit="10"/></g><g transform="translate(-22,-150) scale(1,1)"><g><path fill="none" stroke="none"/><text fill="#000000" stroke="none" font-family="Arial" font-size="13px" font-style="normal" font-weight="bold" text-decoration="none" x="1195.347900390625" y="819.5">Login</text></g></g><g transform="translate(-22,-150) scale(1,1)"><g><path fill="none" stroke="none"/><text fill="#000000" stroke="none" font-family="Arial" font-size="13px" font-style="normal" font-weight="normal" text-decoration="none" x="1162.85107421875" y="834.5">(from Strategies)</text></g></g><g transform="translate(-22,-150) scale(1,1)"><g><path fill="none" stroke="none"/><text fill="#000000" stroke="none" font-family="Arial" font-size="13px" font-style="normal" font-weight="normal" text-decoration="none" x="989" y="867.5">+HandleRequest(header: Header, clientSocketHandler: ISocketHandler): void</text></g></g><g transform="translate(-22,-150) scale(1,1)"><path fill="none" stroke="#000000" d="M 984 836 L 928 836 L 928 423" stroke-miterlimit="10"/></g><g transform="translate(-22,-150) scale(1,1)"><path fill="#FFFFFF" stroke="none" d="M 936.419035512032 443.3253497152483 L 928 423 L 919.580964487968 443.3253497152483"/></g><g transform="translate(-22,-150) scale(1,1)"><path fill="none" stroke="#000000" d="M 936.419035512032 443.3253497152483 L 928 423 L 919.580964487968 443.3253497152483 L 936.419035512032 443.3253497152483" stroke-miterlimit="10"/></g><g transform="translate(-22,-150) scale(1,1)"><rect fill="#C0C0C0" stroke="none" x="991" y="903" width="454.50390625" height="72" opacity="0.2"/></g><g transform="translate(-22,-150) scale(1,1)"><rect fill="#ffffff" stroke="none" x="984" y="896" width="454.50390625" height="72"/></g><g transform="translate(-22,-150) scale(1,1)"><path fill="none" stroke="#000000" d="M 984 896 L 1438.50390625 896 L 1438.50390625 968 L 984 968 L 984 896 Z Z" stroke-miterlimit="10"/></g><g transform="translate(-22,-150) scale(1,1)"><path fill="none" stroke="#000000" d="M 984 936 L 1438.50390625 936" stroke-miterlimit="10"/></g><g transform="translate(-22,-150) scale(1,1)"><path fill="none" stroke="#000000" d="M 984 946 L 1438.50390625 946" stroke-miterlimit="10"/></g><g transform="translate(-22,-150) scale(1,1)"><g><path fill="none" stroke="none"/><text fill="#000000" stroke="none" font-family="Arial" font-size="13px" font-style="normal" font-weight="bold" text-decoration="none" x="1191.37109375" y="915.5">Logout</text></g></g><g transform="translate(-22,-150) scale(1,1)"><g><path fill="none" stroke="none"/><text fill="#000000" stroke="none" font-family="Arial" font-size="13px" font-style="normal" font-weight="normal" text-decoration="none" x="1162.85107421875" y="930.5">(from Strategies)</text></g></g><g transform="translate(-22,-150) scale(1,1)"><g><path fill="none" stroke="none"/><text fill="#000000" stroke="none" font-family="Arial" font-size="13px" font-style="normal" font-weight="normal" text-decoration="none" x="989" y="963.5">+HandleRequest(header: Header, clientSocketHandler: ISocketHandler): void</text></g></g><g transform="translate(-22,-150) scale(1,1)"><path fill="none" stroke="#000000" d="M 984 932 L 912 932 L 912 423" stroke-miterlimit="10"/></g><g transform="translate(-22,-150) scale(1,1)"><path fill="#FFFFFF" stroke="none" d="M 920.419035512032 443.3253497152483 L 912 423 L 903.580964487968 443.3253497152483"/></g><g transform="translate(-22,-150) scale(1,1)"><path fill="none" stroke="#000000" d="M 920.419035512032 443.3253497152483 L 912 423 L 903.580964487968 443.3253497152483 L 920.419035512032 443.3253497152483" stroke-miterlimit="10"/></g><g transform="translate(-22,-150) scale(1,1)"><rect fill="#C0C0C0" stroke="none" x="991" y="991" width="463.48583984375" height="117" opacity="0.2"/></g><g transform="translate(-22,-150) scale(1,1)"><rect fill="#ffffff" stroke="none" x="984" y="984" width="463.48583984375" height="117"/></g><g transform="translate(-22,-150) scale(1,1)"><path fill="none" stroke="#000000" d="M 984 984 L 1447.48583984375 984 L 1447.48583984375 1101 L 984 1101 L 984 984 Z Z" stroke-miterlimit="10"/></g><g transform="translate(-22,-150) scale(1,1)"><path fill="none" stroke="#000000" d="M 984 1024 L 1447.48583984375 1024" stroke-miterlimit="10"/></g><g transform="translate(-22,-150) scale(1,1)"><path fill="none" stroke="#000000" d="M 984 1034 L 1447.48583984375 1034" stroke-miterlimit="10"/></g><g transform="translate(-22,-150) scale(1,1)"><g><path fill="none" stroke="none"/><text fill="#000000" stroke="none" font-family="Arial" font-size="13px" font-style="normal" font-weight="bold" text-decoration="none" x="1150.349365234375" y="1003.5">ModifyGamePublished</text></g></g><g transform="translate(-22,-150) scale(1,1)"><g><path fill="none" stroke="none"/><text fill="#000000" stroke="none" font-family="Arial" font-size="13px" font-style="normal" font-weight="normal" text-decoration="none" x="1167.342041015625" y="1018.5">(from Strategies)</text></g></g><g transform="translate(-22,-150) scale(1,1)"><g><path fill="none" stroke="none"/><text fill="#000000" stroke="none" font-family="Arial" font-size="13px" font-style="normal" font-weight="normal" text-decoration="none" x="989" y="1051.5">+HandleRequest(header: Header, clientSocketHandler: ISocketHandler): void</text></g></g><g transform="translate(-22,-150) scale(1,1)"><g><path fill="none" stroke="none"/><text fill="#000000" stroke="none" font-family="Arial" font-size="13px" font-style="normal" font-weight="normal" text-decoration="none" x="989" y="1066.5">-ModifyGame(newGame: Game, user: User, oldGameName: string): string</text></g></g><g transform="translate(-22,-150) scale(1,1)"><g><path fill="none" stroke="none"/><text fill="#000000" stroke="none" font-family="Arial" font-size="13px" font-style="normal" font-weight="normal" text-decoration="none" x="989" y="1081.5">-UpdateImage(clientSocketHandler: ISocketHandler, gameName: string): string</text></g></g><g transform="translate(-22,-150) scale(1,1)"><g><path fill="none" stroke="none"/><text fill="#000000" stroke="none" font-family="Arial" font-size="13px" font-style="normal" font-weight="normal" text-decoration="none" x="989" y="1096.5">-DeletePreviousImage(gameToModify: Game, newGame: Game): void</text></g></g><g transform="translate(-22,-150) scale(1,1)"><path fill="none" stroke="#000000" d="M 984 1042 L 896 1042 L 896 423" stroke-miterlimit="10"/></g><g transform="translate(-22,-150) scale(1,1)"><path fill="#FFFFFF" stroke="none" d="M 904.419035512032 443.3253497152483 L 896 423 L 887.580964487968 443.3253497152483"/></g><g transform="translate(-22,-150) scale(1,1)"><path fill="none" stroke="#000000" d="M 904.419035512032 443.3253497152483 L 896 423 L 887.580964487968 443.3253497152483 L 904.419035512032 443.3253497152483" stroke-miterlimit="10"/></g><g transform="translate(-22,-150) scale(1,1)"><rect fill="#C0C0C0" stroke="none" x="727" y="167" width="340.2841796875" height="85" opacity="0.2"/></g><g transform="translate(-22,-150) scale(1,1)"><rect fill="#ffffff" stroke="none" x="720" y="160" width="340.2841796875" height="85"/></g><g transform="translate(-22,-150) scale(1,1)"><path fill="none" stroke="#000000" d="M 720 160 L 1060.2841796875 160 L 1060.2841796875 245 L 720 245 L 720 160 Z Z" stroke-miterlimit="10"/></g><g transform="translate(-22,-150) scale(1,1)"><path fill="none" stroke="#000000" d="M 720 200 L 1060.2841796875 200" stroke-miterlimit="10"/></g><g transform="translate(-22,-150) scale(1,1)"><path fill="none" stroke="#000000" d="M 720 223 L 1060.2841796875 223" stroke-miterlimit="10"/></g><g transform="translate(-22,-150) scale(1,1)"><g><path fill="none" stroke="none"/><text fill="#000000" stroke="none" font-family="Arial" font-size="13px" font-style="normal" font-weight="bold" text-decoration="none" x="838.488037109375" y="179.5">CommandFactory</text></g></g><g transform="translate(-22,-150) scale(1,1)"><g><path fill="none" stroke="none"/><text fill="#000000" stroke="none" font-family="Arial" font-size="13px" font-style="normal" font-weight="normal" text-decoration="none" x="849.336181640625" y="194.5">(from Factory)</text></g></g><g transform="translate(-22,-150) scale(1,1)"><g><path fill="none" stroke="none"/><text fill="#000000" stroke="none" font-family="Arial" font-size="13px" font-style="normal" font-weight="normal" text-decoration="none" x="725" y="217.5">-_commandMap: Dictionary&lt;int, CommandStrategy&gt;</text><path fill="none" stroke="#000000" d="M 725 217.5 L 1028.46240234375 217.5" stroke-miterlimit="10"/></g></g><g transform="translate(-22,-150) scale(1,1)"><g><path fill="none" stroke="none"/><text fill="#000000" stroke="none" font-family="Arial" font-size="13px" font-style="normal" font-weight="normal" text-decoration="none" x="725" y="240.5">+GetStrategy(commandConstant: int): CommandStrategy</text><path fill="none" stroke="#000000" d="M 725 240.5 L 1056.2841796875 240.5" stroke-miterlimit="10"/></g></g><g transform="translate(-22,-150) scale(1,1)"><path fill="none" stroke="#000000" d="M 888 245 L 888 336" stroke-miterlimit="10" stroke-dasharray="3"/></g><g transform="translate(-22,-150) scale(1,1)"><path fill="none" stroke="#000000" d="M 883.790482243984 325.83732514237585 L 888 336 L 892.209517756016 325.83732514237585" stroke-miterlimit="10"/></g><g transform="translate(-22,-150) scale(1,1)"><path fill="none" stroke="#000000" d="M 720 216 L 320 216 L 320 576 L 352 576" stroke-miterlimit="10" stroke-dasharray="3"/></g><g transform="translate(-22,-150) scale(1,1)"><path fill="none" stroke="#000000" d="M 341.83732514237585 580.209517756016 L 352 576 L 341.83732514237585 571.790482243984" stroke-miterlimit="10"/></g><g transform="translate(-22,-150) scale(1,1)"><path fill="none" stroke="#000000" d="M 720 208 L 312 208 L 312 700 L 352 700" stroke-miterlimit="10" stroke-dasharray="3"/></g><g transform="translate(-22,-150) scale(1,1)"><path fill="none" stroke="#000000" d="M 341.83732514237585 704.209517756016 L 352 700 L 341.83732514237585 695.790482243984" stroke-miterlimit="10"/></g><g transform="translate(-22,-150) scale(1,1)"><path fill="none" stroke="#000000" d="M 720 200 L 304 200 L 304 788 L 352 788" stroke-miterlimit="10" stroke-dasharray="3"/></g><g transform="translate(-22,-150) scale(1,1)"><path fill="none" stroke="#000000" d="M 341.83732514237585 792.209517756016 L 352 788 L 341.83732514237585 783.790482243984" stroke-miterlimit="10"/></g><g transform="translate(-22,-150) scale(1,1)"><path fill="none" stroke="#000000" d="M 720 192 L 296 192 L 296 840 L 352 840" stroke-miterlimit="10" stroke-dasharray="3"/></g><g transform="translate(-22,-150) scale(1,1)"><path fill="none" stroke="#000000" d="M 341.83732514237585 844.209517756016 L 352 840 L 341.83732514237585 835.790482243984" stroke-miterlimit="10"/></g><g transform="translate(-22,-150) scale(1,1)"><path fill="none" stroke="#000000" d="M 720 184 L 288 184 L 288 936 L 352 936" stroke-miterlimit="10" stroke-dasharray="3"/></g><g transform="translate(-22,-150) scale(1,1)"><path fill="none" stroke="#000000" d="M 341.83732514237585 940.209517756016 L 352 936 L 341.83732514237585 931.790482243984" stroke-miterlimit="10"/></g><g transform="translate(-22,-150) scale(1,1)"><path fill="none" stroke="#000000" d="M 1060 224 L 1464 224 L 1464 564 L 1439 564" stroke-miterlimit="10" stroke-dasharray="3"/></g><g transform="translate(-22,-150) scale(1,1)"><path fill="none" stroke="#000000" d="M 1449.162674857624 559.790482243984 L 1439 564 L 1449.162674857624 568.209517756016" stroke-miterlimit="10"/></g><g transform="translate(-22,-150) scale(1,1)"><path fill="none" stroke="#000000" d="M 1060 216 L 1472 216 L 1472 652 L 1439 652" stroke-miterlimit="10" stroke-dasharray="3"/></g><g transform="translate(-22,-150) scale(1,1)"><path fill="none" stroke="#000000" d="M 1449.162674857624 647.790482243984 L 1439 652 L 1449.162674857624 656.209517756016" stroke-miterlimit="10"/></g><g transform="translate(-22,-150) scale(1,1)"><path fill="none" stroke="#000000" d="M 1060 208 L 1480 208 L 1480 740 L 1439 740" stroke-miterlimit="10" stroke-dasharray="3"/></g><g transform="translate(-22,-150) scale(1,1)"><path fill="none" stroke="#000000" d="M 1449.162674857624 735.790482243984 L 1439 740 L 1449.162674857624 744.209517756016" stroke-miterlimit="10"/></g><g transform="translate(-22,-150) scale(1,1)"><path fill="none" stroke="#000000" d="M 1060 200 L 1488 200 L 1488 848 L 1439 848" stroke-miterlimit="10" stroke-dasharray="3"/></g><g transform="translate(-22,-150) scale(1,1)"><path fill="none" stroke="#000000" d="M 1449.162674857624 843.790482243984 L 1439 848 L 1449.162674857624 852.209517756016" stroke-miterlimit="10"/></g><g transform="translate(-22,-150) scale(1,1)"><path fill="none" stroke="#000000" d="M 1060 192 L 1496 192 L 1496 932 L 1439 932" stroke-miterlimit="10" stroke-dasharray="3"/></g><g transform="translate(-22,-150) scale(1,1)"><path fill="none" stroke="#000000" d="M 1449.162674857624 927.790482243984 L 1439 932 L 1449.162674857624 936.209517756016" stroke-miterlimit="10"/></g><g transform="translate(-22,-150) scale(1,1)"><path fill="none" stroke="#000000" d="M 1060 184 L 1504 184 L 1504 1008 L 1447 1008" stroke-miterlimit="10" stroke-dasharray="3"/></g><g transform="translate(-22,-150) scale(1,1)"><path fill="none" stroke="#000000" d="M 1457.162674857624 1003.790482243984 L 1447 1008 L 1457.162674857624 1012.209517756016" stroke-miterlimit="10"/></g><g transform="translate(-22,-150) scale(1,1)"><rect fill="#C0C0C0" stroke="none" x="39" y="535" width="195.38623046875" height="59" opacity="0.2"/></g><g transform="translate(-22,-150) scale(1,1)"><rect fill="#ffffff" stroke="none" x="32" y="528" width="195.38623046875" height="59"/></g><g transform="translate(-22,-150) scale(1,1)"><path fill="none" stroke="#000000" d="M 32 528 L 227.38623046875 528 L 227.38623046875 587 L 32 587 L 32 528 Z Z" stroke-miterlimit="10"/></g><g transform="translate(-22,-150) scale(1,1)"><path fill="none" stroke="#000000" d="M 32 568 L 227.38623046875 568" stroke-miterlimit="10"/></g><g transform="translate(-22,-150) scale(1,1)"><path fill="none" stroke="#000000" d="M 32 578 L 227.38623046875 578" stroke-miterlimit="10"/></g><g transform="translate(-22,-150) scale(1,1)"><g><path fill="none" stroke="none"/><text fill="#000000" stroke="none" font-family="Arial" font-size="13px" font-style="normal" font-weight="bold" text-decoration="none" x="42.61279296875" y="547.5">GameAlreadyAddedException</text></g></g><g transform="translate(-22,-150) scale(1,1)"><g><path fill="none" stroke="none"/><text fill="#000000" stroke="none" font-family="Arial" font-size="13px" font-style="normal" font-weight="normal" text-decoration="none" x="56.3681640625" y="562.5">(from CustomExceptions)</text></g></g><g transform="translate(-22,-150) scale(1,1)"><path fill="none" stroke="#000000" d="M 352 564 L 227 564" stroke-miterlimit="10" stroke-dasharray="3"/></g><g transform="translate(-22,-150) scale(1,1)"><path fill="none" stroke="#000000" d="M 237.16267485762415 559.790482243984 L 227 564 L 237.16267485762415 568.209517756016" stroke-miterlimit="10"/></g><g transform="translate(-22,-150) scale(1,1)"><rect fill="#C0C0C0" stroke="none" x="39" y="639" width="200.42626953125" height="59" opacity="0.2"/></g><g transform="translate(-22,-150) scale(1,1)"><rect fill="#ffffff" stroke="none" x="32" y="632" width="200.42626953125" height="59"/></g><g transform="translate(-22,-150) scale(1,1)"><path fill="none" stroke="#000000" d="M 32 632 L 232.42626953125 632 L 232.42626953125 691 L 32 691 L 32 632 Z Z" stroke-miterlimit="10"/></g><g transform="translate(-22,-150) scale(1,1)"><path fill="none" stroke="#000000" d="M 32 672 L 232.42626953125 672" stroke-miterlimit="10"/></g><g transform="translate(-22,-150) scale(1,1)"><path fill="none" stroke="#000000" d="M 32 682 L 232.42626953125 682" stroke-miterlimit="10"/></g><g transform="translate(-22,-150) scale(1,1)"><g><path fill="none" stroke="none"/><text fill="#000000" stroke="none" font-family="Arial" font-size="13px" font-style="normal" font-weight="bold" text-decoration="none" x="43.326904296875" y="651.5">GameAlreadyBoughtException</text></g></g><g transform="translate(-22,-150) scale(1,1)"><g><path fill="none" stroke="none"/><text fill="#000000" stroke="none" font-family="Arial" font-size="13px" font-style="normal" font-weight="normal" text-decoration="none" x="58.88818359375" y="666.5">(from CustomExceptions)</text></g></g><g transform="translate(-22,-150) scale(1,1)"><path fill="none" stroke="#000000" d="M 352 664 L 232 664" stroke-miterlimit="10" stroke-dasharray="3"/></g><g transform="translate(-22,-150) scale(1,1)"><path fill="none" stroke="#000000" d="M 242.16267485762415 659.790482243984 L 232 664 L 242.16267485762415 668.209517756016" stroke-miterlimit="10"/></g><g transform="translate(-22,-150) scale(1,1)"><rect fill="#C0C0C0" stroke="none" x="719" y="1151" width="155.64990234375" height="59" opacity="0.2"/></g><g transform="translate(-22,-150) scale(1,1)"><rect fill="#ffffff" stroke="none" x="712" y="1144" width="155.64990234375" height="59"/></g><g transform="translate(-22,-150) scale(1,1)"><path fill="none" stroke="#000000" d="M 712 1144 L 867.64990234375 1144 L 867.64990234375 1203 L 712 1203 L 712 1144 Z Z" stroke-miterlimit="10"/></g><g transform="translate(-22,-150) scale(1,1)"><path fill="none" stroke="#000000" d="M 712 1184 L 867.64990234375 1184" stroke-miterlimit="10"/></g><g transform="translate(-22,-150) scale(1,1)"><path fill="none" stroke="#000000" d="M 712 1194 L 867.64990234375 1194" stroke-miterlimit="10"/></g><g transform="translate(-22,-150) scale(1,1)"><g><path fill="none" stroke="none"/><text fill="#000000" stroke="none" font-family="Arial" font-size="13px" font-style="normal" font-weight="bold" text-decoration="none" x="724.7900390625" y="1163.5">InvalidGameException</text></g></g><g transform="translate(-22,-150) scale(1,1)"><g><path fill="none" stroke="none"/><text fill="#000000" stroke="none" font-family="Arial" font-size="13px" font-style="normal" font-weight="normal" text-decoration="none" x="716.5" y="1178.5">(from CustomExceptions)</text></g></g><g transform="translate(-22,-150) scale(1,1)"><rect fill="#C0C0C0" stroke="none" x="359" y="999" width="454.50390625" height="72" opacity="0.2"/></g><g transform="translate(-22,-150) scale(1,1)"><rect fill="#ffffff" stroke="none" x="352" y="992" width="454.50390625" height="72"/></g><g transform="translate(-22,-150) scale(1,1)"><path fill="none" stroke="#000000" d="M 352 992 L 806.50390625 992 L 806.50390625 1064 L 352 1064 L 352 992 Z Z" stroke-miterlimit="10"/></g><g transform="translate(-22,-150) scale(1,1)"><path fill="none" stroke="#000000" d="M 352 1032 L 806.50390625 1032" stroke-miterlimit="10"/></g><g transform="translate(-22,-150) scale(1,1)"><path fill="none" stroke="#000000" d="M 352 1042 L 806.50390625 1042" stroke-miterlimit="10"/></g><g transform="translate(-22,-150) scale(1,1)"><g><path fill="none" stroke="none"/><text fill="#000000" stroke="none" font-family="Arial" font-size="13px" font-style="normal" font-weight="bold" text-decoration="none" x="540.2392578125" y="1011.5">ReviewGame</text></g></g><g transform="translate(-22,-150) scale(1,1)"><g><path fill="none" stroke="none"/><text fill="#000000" stroke="none" font-family="Arial" font-size="13px" font-style="normal" font-weight="normal" text-decoration="none" x="530.85107421875" y="1026.5">(from Strategies)</text></g></g><g transform="translate(-22,-150) scale(1,1)"><g><path fill="none" stroke="none"/><text fill="#000000" stroke="none" font-family="Arial" font-size="13px" font-style="normal" font-weight="normal" text-decoration="none" x="357" y="1059.5">+HandleRequest(header: Header, clientSocketHandler: ISocketHandler): void</text></g></g><g transform="translate(-22,-150) scale(1,1)"><path fill="none" stroke="#000000" d="M 807 1028 L 880 1028 L 880 423" stroke-miterlimit="10"/></g><g transform="translate(-22,-150) scale(1,1)"><path fill="#FFFFFF" stroke="none" d="M 888.419035512032 443.3253497152483 L 880 423 L 871.580964487968 443.3253497152483"/></g><g transform="translate(-22,-150) scale(1,1)"><path fill="none" stroke="#000000" d="M 888.419035512032 443.3253497152483 L 880 423 L 871.580964487968 443.3253497152483 L 888.419035512032 443.3253497152483" stroke-miterlimit="10"/></g><g transform="translate(-22,-150) scale(1,1)"><path fill="none" stroke="#000000" d="M 807 1064 L 856 1064 L 856 1144" stroke-miterlimit="10" stroke-dasharray="3"/></g><g transform="translate(-22,-150) scale(1,1)"><path fill="none" stroke="#000000" d="M 851.790482243984 1133.837325142376 L 856 1144 L 860.209517756016 1133.837325142376" stroke-miterlimit="10"/></g><g transform="translate(-22,-150) scale(1,1)"><path fill="none" stroke="#000000" d="M 984 680 L 856 680 L 856 1144" stroke-miterlimit="10" stroke-dasharray="3"/></g><g transform="translate(-22,-150) scale(1,1)"><path fill="none" stroke="#000000" d="M 851.790482243984 1133.837325142376 L 856 1144 L 860.209517756016 1133.837325142376" stroke-miterlimit="10"/></g><g transform="translate(-22,-150) scale(1,1)"><path fill="none" stroke="#000000" d="M 807 880 L 856 880 L 856 1144" stroke-miterlimit="10" stroke-dasharray="3"/></g><g transform="translate(-22,-150) scale(1,1)"><path fill="none" stroke="#000000" d="M 851.790482243984 1133.837325142376 L 856 1144 L 860.209517756016 1133.837325142376" stroke-miterlimit="10"/></g><g transform="translate(-22,-150) scale(1,1)"><path fill="none" stroke="#000000" d="M 984 592 L 856 592 L 856 1144" stroke-miterlimit="10" stroke-dasharray="3"/></g><g transform="translate(-22,-150) scale(1,1)"><path fill="none" stroke="#000000" d="M 851.790482243984 1133.837325142376 L 856 1144 L 860.209517756016 1133.837325142376" stroke-miterlimit="10"/></g><g transform="translate(-22,-150) scale(1,1)"><path fill="none" stroke="#000000" d="M 807 784 L 856 784 L 856 1144" stroke-miterlimit="10" stroke-dasharray="3"/></g><g transform="translate(-22,-150) scale(1,1)"><path fill="none" stroke="#000000" d="M 851.790482243984 1133.837325142376 L 856 1144 L 860.209517756016 1133.837325142376" stroke-miterlimit="10"/></g><g transform="translate(-22,-150) scale(1,1)"><path fill="none" stroke="#000000" d="M 807 968 L 856 968 L 856 1144" stroke-miterlimit="10" stroke-dasharray="3"/></g><g transform="translate(-22,-150) scale(1,1)"><path fill="none" stroke="#000000" d="M 851.790482243984 1133.837325142376 L 856 1144 L 860.209517756016 1133.837325142376" stroke-miterlimit="10"/></g><g transform="translate(-22,-150) scale(1,1)"><path fill="none" stroke="#000000" d="M 807 704 L 856 704 L 856 1144" stroke-miterlimit="10" stroke-dasharray="3"/></g><g transform="translate(-22,-150) scale(1,1)"><path fill="none" stroke="#000000" d="M 851.790482243984 1133.837325142376 L 856 1144 L 860.209517756016 1133.837325142376" stroke-miterlimit="10"/></g><g transform="translate(-22,-150) scale(1,1)"><rect fill="#C0C0C0" stroke="none" x="55" y="999" width="197.54443359375" height="59" opacity="0.2"/></g><g transform="translate(-22,-150) scale(1,1)"><rect fill="#ffffff" stroke="none" x="48" y="992" width="197.54443359375" height="59"/></g><g transform="translate(-22,-150) scale(1,1)"><path fill="none" stroke="#000000" d="M 48 992 L 245.54443359375 992 L 245.54443359375 1051 L 48 1051 L 48 992 Z Z" stroke-miterlimit="10"/></g><g transform="translate(-22,-150) scale(1,1)"><path fill="none" stroke="#000000" d="M 48 1032 L 245.54443359375 1032" stroke-miterlimit="10"/></g><g transform="translate(-22,-150) scale(1,1)"><path fill="none" stroke="#000000" d="M 48 1042 L 245.54443359375 1042" stroke-miterlimit="10"/></g><g transform="translate(-22,-150) scale(1,1)"><g><path fill="none" stroke="none"/><text fill="#000000" stroke="none" font-family="Arial" font-size="13px" font-style="normal" font-weight="bold" text-decoration="none" x="59.33642578125" y="1011.5">InvalidReviewRatingException</text></g></g><g transform="translate(-22,-150) scale(1,1)"><g><path fill="none" stroke="none"/><text fill="#000000" stroke="none" font-family="Arial" font-size="13px" font-style="normal" font-weight="normal" text-decoration="none" x="73.447265625" y="1026.5">(from CustomExceptions)</text></g></g><g transform="translate(-22,-150) scale(1,1)"><path fill="none" stroke="#000000" d="M 352 1024 L 246 1024" stroke-miterlimit="10" stroke-dasharray="3"/></g><g transform="translate(-22,-150) scale(1,1)"><path fill="none" stroke="#000000" d="M 256.16267485762415 1019.790482243984 L 246 1024 L 256.16267485762415 1028.2095177560159" stroke-miterlimit="10"/></g><g transform="translate(-22,-150) scale(1,1)"><rect fill="#C0C0C0" stroke="none" x="919" y="1151" width="175.1689453125" height="59" opacity="0.2"/></g><g transform="translate(-22,-150) scale(1,1)"><rect fill="#ffffff" stroke="none" x="912" y="1144" width="175.1689453125" height="59"/></g><g transform="translate(-22,-150) scale(1,1)"><path fill="none" stroke="#000000" d="M 912 1144 L 1087.1689453125 1144 L 1087.1689453125 1203 L 912 1203 L 912 1144 Z Z" stroke-miterlimit="10"/></g><g transform="translate(-22,-150) scale(1,1)"><path fill="none" stroke="#000000" d="M 912 1184 L 1087.1689453125 1184" stroke-miterlimit="10"/></g><g transform="translate(-22,-150) scale(1,1)"><path fill="none" stroke="#000000" d="M 912 1194 L 1087.1689453125 1194" stroke-miterlimit="10"/></g><g transform="translate(-22,-150) scale(1,1)"><g><path fill="none" stroke="none"/><text fill="#000000" stroke="none" font-family="Arial" font-size="13px" font-style="normal" font-weight="bold" text-decoration="none" x="922.266845703125" y="1163.5">InvalidUsernameException</text></g></g><g transform="translate(-22,-150) scale(1,1)"><g><path fill="none" stroke="none"/><text fill="#000000" stroke="none" font-family="Arial" font-size="13px" font-style="normal" font-weight="normal" text-decoration="none" x="926.259521484375" y="1178.5">(from CustomExceptions)</text></g></g><g transform="translate(-22,-150) scale(1,1)"><path fill="none" stroke="#000000" d="M 815 608 L 944 608 L 944 1144" stroke-miterlimit="10" stroke-dasharray="3"/></g><g transform="translate(-22,-150) scale(1,1)"><path fill="none" stroke="#000000" d="M 939.790482243984 1133.837325142376 L 944 1144 L 948.209517756016 1133.837325142376" stroke-miterlimit="10"/></g><g transform="translate(-22,-150) scale(1,1)"><path fill="none" stroke="#000000" d="M 807 688 L 944 688 L 944 1144" stroke-miterlimit="10" stroke-dasharray="3"/></g><g transform="translate(-22,-150) scale(1,1)"><path fill="none" stroke="#000000" d="M 939.790482243984 1133.837325142376 L 944 1144 L 948.209517756016 1133.837325142376" stroke-miterlimit="10"/></g><g transform="translate(-22,-150) scale(1,1)"><path fill="none" stroke="#000000" d="M 807 768 L 944 768 L 944 1144" stroke-miterlimit="10" stroke-dasharray="3"/></g><g transform="translate(-22,-150) scale(1,1)"><path fill="none" stroke="#000000" d="M 939.790482243984 1133.837325142376 L 944 1144 L 948.209517756016 1133.837325142376" stroke-miterlimit="10"/></g><g transform="translate(-22,-150) scale(1,1)"><path fill="none" stroke="#000000" d="M 807 1048 L 944 1048 L 944 1144" stroke-miterlimit="10" stroke-dasharray="3"/></g><g transform="translate(-22,-150) scale(1,1)"><path fill="none" stroke="#000000" d="M 939.790482243984 1133.837325142376 L 944 1144 L 948.209517756016 1133.837325142376" stroke-miterlimit="10"/></g><g transform="translate(-22,-150) scale(1,1)"><path fill="none" stroke="#000000" d="M 984 1088 L 944 1088 L 944 1144" stroke-miterlimit="10" stroke-dasharray="3"/></g><g transform="translate(-22,-150) scale(1,1)"><path fill="none" stroke="#000000" d="M 939.790482243984 1133.837325142376 L 944 1144 L 948.209517756016 1133.837325142376" stroke-miterlimit="10"/></g></g></svg>